<?xml version="1.0" encoding="UTF-8"?>
<svg id="India" xmlns="http://www.w3.org/2000/svg" version="1.1" viewBox="0 0 184.254 260.753">
  <defs>
    <style>
      .cls-1 {
        fill: #fff;
        font-family: Helvetica, Helvetica;
        font-size: 12px;
      }

      .cls-2 {
        fill: #005250;
        stroke: #fff;
        stroke-miterlimit: 10;
        stroke-width: .25px;
      }
    </style>
  </defs>
  <g>
    <path class="cls-2" d="M121.277,25.033l-.137.008-1.17.398-.305-.075-.168-.354-.17-.246-.277.205-.305.365-.242.238.23.533-.345.525-1.045.796-.242.254-.521.835-.173.189-.62.424-.453.429-.221.142-.332.105-.627.08-.259.145-.147.342-.232.718-.386.623-.889,1.122-.37.31-1.036.279-.456.372-.255.551.002.506.165.501.237.533.16.52-.027.437-.207.411-.392.44-.099.074-.216.117-.095.077-.063.138.025.122.045.111-.007.101-.124.179-.149.153-.348.266-.005.003-.158.205-.156.112-.118.13-.048.256-.104.182-.507.166-.185.141-.068.352.126.333.368.649.128.802.095.206.149.026.16-.008.127.11.047.373-.07.46-.357,1.3-.165-.038-.219-.172-.3.039-.088.288.291.828.045.305-.215.262-.334.097-.363-.003-.296-.04-.537.26-.34.752-.146.882.056.649v.004l-.147.342-.248.193-.291.149-.269.214-.216.322-.115.333-.048.358-.014.397.106.802.32.253.318.064-.059.311-.086.224-.16.29-.478.529-.239.171-.237.123-.233.074-.264.014-.32-.067-.327-.223-.102-.199.018-.214.072-.159-.045-.11-.221.04-.212.079-.189.019-.097-.144.018-.211.068-.234-.027-.18-.113-.075-.241.043-.499.216-.18-.018-.108-.172.013-.198.162-.399.054-.208-.156-.211-.338-.215-.851-.148-.354-.017-.232.111.005.121-.018.14-.063.147-.456.167-1.157-.255-.356.198-.21.084h-.208s-.137-.206-.137-.206l-.097-.229-.144-.163-.701.018-1.435.569-.228-.528-.241-.898-.117-.187-.151-.188-.269-.273-.119-.169-.135-.133-.172-.009-.162.091-.198.054-.357-.031-.411-.139-2.186-1.573-.273-.277-.167-.251-.036-.188-.007-.206-.063-.182-.153-.165-1.295-.723-.221-.06-.113.018-.404.235-1.096.297-.636.424-.151-1.053-.119-.368-.219-.396-.312-.353-2.54-1.365-.129-.13.034-.046.178-.099.005-.13-.029-.116.021-.118.083-.075.318-.075.117-.096.09-.032.108.054.162.111.194.06.156-.035.221-.424.119-.156.151-.052.111.046.119.085.162.015.217-.099.815-.756.142-.233.068-.247.016-.192-.235-.164-1.275-.266-.463-.183-2.838-1.678-.939-.845-.605-.811-.314-.535-.37-.823-.629-.653-1.705-.789-.329-.277-.156-.244-.474-1.102-.675-.982-1.011-1.1-.185-.125-.156-.037-.262-.013-.284.072-.167.113-.137.167-.084.262.025.509.075.454.517,1.685.128.885-.153.826-.593.631-.83.407-.397-.123-.144-.066-.627-.48-.995-.609-.282-.113-.223.024-.534.443-1.591.817-.828-1.63-.129-.512-.151-1.034-.291-.814-.068-.355.02-.835-.088-.8.057-.347.769-1.241.771-1.837.595-.687.893-.66.336-.327.108-.265-.298-.32-2.039-.96-1.06-.668-1.548-1.389-.435-.13-.305-.012-.589.383-.063-.12-.242-.35-.038-.17.183-.278.381-.166.444-.082.368-.021.356-.076.411-.185,1.389-.863.402-.183.176-.022.194-.255.041-.208-.005-.177-.022-.129-.084-.106-.181-.035-.239-.02-.194-.06-.135-.171-.392-.691.034-.106.314-.213.099-.183.031-.191-.106-.518-.075-.155-.278-.338-.072-.247-.016-.438-.076-.331-.485-.473-.063-.285.041-.359.406-.905.219-.672.176-.268.147-.017.156.142.081.058.23.005.108-.443-.009-.485-.066-.219-.133-.131-.172-.091-.162-.168-.21-.385-.007-.219.118-.111.151.031.18.076h.149l.158-.079.154-.164.106-.239-.022-.183-.19-.369.043-.202.131-.185,1.04-1.056.555-.711.541-.551.212-.155.203-.068.19.003.785.143.327-.016.208-.047.541-.263.806-.586,1.198-.686.841-.265.864-.59.228-.079.271-.005.616.094.352-.003.174.047.128.103.088.167.183.126.165.009.241-.052.151.044.156.123.539.608.3.197.174.053.311-.04.366-.1.726-.092.408.021.291.076.199.11.316.11.26.022.359-.031.614.041.537.094.435-.01.248.054.137.144.332.719.241.354.221.236.404.266,1.106.07.239-.033.253-.035.551-.181.066-.333-.065-.326-.517-.803-.474-.753-.541-.552-.129-.151-.328-.494.199-.203.19-.286.293-.623.289.143.431.45.289.104.219-.471.119-.882.331-.783.846-.165.251.131.483.425.584.356.108.28.072.314.181.299.137.062.329.039.122.085.081.211-.014.188-.047.191-.013.219.066.162.268.211.099.151.009.175-.045.168-.025.178.072.203.266.208.298.074.242.15.101.431.007.386.048.357.124.324.234.284.442.239.472.14.419.229.178.318.1.179.115.661.115.264.223.066.284-.056.271-.013.266.054.257.143.075.08.061.093.045.105.023.116.164.268.262.303.295.254.253.124.377.1.207.082.203-.038.71-.449.311-.066.7-.033.878-.239.375.041,1.266.317.293.142.217.261.305.578.395.456.199.129.082.053.27.174,1.228.509.401.332.275.485.314.441.516.207.296-.073.546-.304h.286s.212.16.212.16l.465.748.496.282.118.184-.424.781-.124.109-.142.021-.169-.007-.158.018-.11.096.005.251.18.242.232.239.162.243.059.393-.095.301-.164.289-.149.352.632-.147.636.036,1.27.371,1.723.977.876.348.571.364.293.075.347-.049.259-.082.266-.023.366.13,1.71.964.492.395.214.278.341.649.212.288.251.209,1.483.651,1.335.367.56.299.352.567.122.283-.127.315Z"/>
    <path class="cls-2" d="M105.237,52.373l.153.031.562.331.58.775.251.198.332.118.612.105.293.182.099.127.181.316.133.147.142.068.316.077.133.112.474.977.198.249.348.143.336-.048.334-.09.348.018.316.188.735.885.341.185.086-.26-.147-1.253.047-.339.172-.269.348-.195.293.01.372.012.056.117-.029.171-.009.184.117.157.309.159.298.102.645.117.221.16.345.658.181.229.298.142.544.154.286.191.663.693.291.178.323.062.712.002.248.11.141.295.026.296.084.276.323.235.279.091.345.069.336.008.269-.092.205.117.061.211.032.244.126.213.811.156,1.725.331.406.215.359.456.354,1.168.236.547,1.009,1.161.236.473-.264.107-.069.161.11.151.284.07-.056.279.189.088.289-.048.25-.127.159-.23.073-.243.112-.18.266-.036.397.141.37.267.312.338.225.36.082.282.019.205.073.183.265.213,1.537.792.352.249.224.36.005.002.342.265.876.204.409.149.373.307.691.741.869.5.481.361.483.288.479.037.398-.275.701-.826.513-.227.892.089.4.133.024.008.349.296.325.346.296.171.758.299,2.075,1.716,1.347.673.939.954.673.21,1.485-.171,2.19-.565.378.15.101.04.302.488.212.751.167,1.459.189.74.39.452,2.157.145.435.14.797.449,1.1.271,2.126-.016.64.254.862.729.215.244.2.371.11.274.175.194.399.14.39-.019.339-.19.292-.297.375-.558.119-.244.024-.234-.263-.359-.034-.227.036-.238.088-.189.453-.161,1.633.014,1.902.256,1.268.474,2.409,1.292.799.29.093.094v.002s-.038.161-.038.161l-.04.1-.014.072.02.046.593-.066.119.038.047.081-.011.199-.14.529.029.125.086.137.235.221.147.096.198.164.095.116.223.386v.32l-.059.321-.013.489.054.201.118.194.413.311.135.159.217.557.106.177.304.243.133.187.079.303.016.267-.032.548.002.052.566,1.177.189.298.278.163.208.077.21.115.205.227.462.334.169-.004.108-.077.122-.11.118-.082.156-.07.172-.035.178-.003.155.026.162.06.137.128.119.208.097.402.021.332-.007.285-.122.957.031.169.077.125.18.055.312-.033.151.006.18.066.219.151,1.306,1.295.12.157.075.147.022.141-.005.101-.185.146-2.667.021-.656-.106-.467-.148-.18-.005-.291.068-.546-.01-.126.027-.119.089-.108.143-.101.254-.156.633-.084.191-.11.193-.108.136-.149.098-.185.072-.702.158-.066.035-.054.043-.068.092-.21.348-.065.062-.074.034-.07-.023-.056-.07-.038-.13-.027-.145-.032-.124-.048-.093-.065-.067-.086-.031-.111.018-.12.076-.065.122-.036.142-.002.608-.005.02-.022.301.029.204.108.181.264.148.237.059.242.015.203-.025.172-.055.124-.071.075-.061.074-.087.076-.063.092-.03.176.083.242.183.474.446.327.203.302.144,1.288.277.113.067.036.12-.005.223-.118.287-.28.429-.022.155.027.182.14.303.277.386-.007.095-.022.058-.323.199-.365-.042-.147-.043-.176-.03-.118.005-.119.041-.101.07-.206.182-.108.065-.165.047-.995.084-.268.077-.108.057-.066.049-.086.083-.074.118-.059.146-.011.189.063.175.172.171.422.304.278.422.462,1.125.153.064.244.164.147.012.205.083.377.257.196.054.164.089.176.211.142.242.126.379.162.048.196.01.167.083.081.162.156.626.102.209.084.131.228.251.311.238.322.081.32-.03.602-.191.208-.036.51.003.167.093.219.226.19.28.081.254.131.123.641.376.235.08.562-.036.296.015.21.092,1.284,1.196.088.158.032.091-.034.249-.194.243.023.272-.147.166-.113.063-.756.569-.11.043-.203.056-.442.022-.21-.032-.12-.052-.273-.162-.451-.13-.329-.23-.548-.55-.259-.109-.293.087-.282.151-.235.08-.199.122-.034.43.21.53.029.113.02.116.011.117-.004.111-.027.095-.04.085-.102.087-.155.089-.338.115-.242.043-.296-.005-.147-.033-.115-.044-.086-.043-.156-.106-.066-.065-.065-.075-.052-.092-.045-.102-.036-.113-.023-.12-.009-.115.005-.105.016-.09.02-.179-.004-.246-.038-.126-.575-.344-.632.187-1.482,1.198-.952,1.256-.374.363-1.108.767-.169.213-.072.166-.302.239-.557.288-.647.225-.11.08-.095.191-.079.228-.46.367-1.821,1.081-2.4,1.391-.286.171-.555.432-.237.137-.936.433-.557.353-.21.174-.255.268-.198.265-.079.141-.065.159-.059.204-.077.513-.076,1.071-.043.204.005.21.056.183.192.379.388.564.063.156.013.045.041.567-.016.712-.041.312-.07.221-.065.118-.048.174.036.247.093.225.377.374.171.055.113.069.102.103.345.559.149.188.207.173.232.143.244.106.643.157.156.127.1.173.108.381.036.238-.016.195-.325.536-.023.152.027.134.189.419.036.18-.052.247-.038.443.086.649-.036.548-1.482.166-.289.168-.248.177-.092.085-.057.095-.043.106-.023.119-.005.133.018.143.047.184.185.462.115.2.113.165.25.296.219.334.065.174.027.184-.041.15-.083.147-.458.608-.074.162-.013.163.005.149-.009.231-.056.164-.077.14-.471.541-.241.407-.113.234-.402,1.101-.189.298-.196.585-.09.175-.137.128-.569.349-.16.215-.086.252-.034.546-.021.107-.054.114-.365.617-.111.134-.11.099-.151.094-.395.143-.476.106-.178.059-.514.239-.216.055-.264.022-.823-.112-.63-.016-.517.076-.192-.003-.485-.118-.42-.199-.316-.216-.95-.898-.67-.171-.542-.806-.354-.322-.14-.069-.117-.075-.032-.128.038-.182.066-.22.002-.257-.047-.143-.097-.113-.217-.147-.307-.252-.23-.259-.133-.208-.097-.257.02-.124.099-.077.137-.031.356-.03.221-.132.194-.245.144-1.207.286-.507.081-.243.045-.241.038-1.062-.061-.247-.113-.15-.3-.132-.097-.11-.027-.144.005-.248.172-.87.009-.39-.138-.39-.025-.287.009-.176.092-.157.092-.102.092-.052.101-.007.469.166.242-.025.199-.104.16-.276.007-.161-.056-.131-.232-.209-.117-.18-.097-.216-.101-.446-.077-.189-.118-.13-.129-.029-.573-.031-.142-.039-.122-.131-.022-.138.038-.441-.05-.131-.111-.071h-.129l-.147.032-1.187.531-.215.056-.286.022-.799-.079-1.663-.573-.208.011-.248.054-.043.151-.022.165-.002.176.013.169.065.311-.005.167-.066.214-.242.226-.251.066-.663-.086-.869.089-.075-.116.106-.162.302-.632-.048-.263-.075-.157-.156-.085-.14-.054-.122-.003-.099.034-.072.05-.075.009-.081-.016-.14-.103-.05-.087-.025-.136.059-.827-.013-.363-.059-.115-.09-.01-.081.09-.059.089-.129.257-.07.093-.088.098-.126.047-.126-.019-.187-.134-.054-.121.004-.143.07-.14.065-.173.061-.222-.018-.4-.052-.183-.065-.118-.066-.042-.059-.011-.102.038-.704.526-.146.075-.16.061-.135.029-.131-.009-.068-.013-.221-.087-.85-.684-.408-.194-.162-.016-.419.007-.34-.037-.196-.059-.224-.115-1.302-.962-.138-.161-.077-.133-.038-.113.005-.092.043-.123.072-.147.03-.173-.021-.177-.214-.333-.034-.045v-.018l-.101-.241-.207-.257-.192-.11-.241-.055-.158.005-.14.021-.122.046-.269.153-.203.064-.226.003-.318-.08-.135-.098-.09-.157-.034-.211-.086-.217-.122-.091-.738.016-.7-.188-.44-.04-.248-.062-.128-.094-.077-.134v-.126l.029-.1.059-.096.036-.066-.011-.089-.063-.138-.156-.206-.07-.163-.084-.534-.374-.549-1.608.479-.332.188.052.077.088.083.497.312.102.12.022.131-.063.182-.151.114-.194.077-.474.062-.469-.02-.214-.05-.165-.074-.07-.081-.013-.102.023-.139.075-.241.014-.065-.011-.08-.054-.087-.124-.071-.393-.122-.219-.091-.28-.073-.216.038-.273.103h-.214s-.205-.07-.205-.07l-.239-.024-.117.086-.043.165.122.587.007.199-.018.202-.025.125-.061.171-.224.393-.284.366-.447.461-.059.122-.043.146-.022.187v.018l.009.018.061.112.07.157.032.098.027.138-.005.127-.054.155-.108.084-.083.038-.386.015-.189.043-.108.063-.119.121-.456.579-.512-.242-.656-.604-.278-.179-.178-.077-.102.015-.458.185-.208.05-.291.002-.194-.074-.133-.098-.169-.232-.133-.132-.124-.049-.129-.005-.914.259-.124.017-.49.016-.458-.051-.201-.105-.093-.12.005-.147.043-.156.007-.016.201-.204.115-.152.059-.11.07-.153.021-.132.011-.215.025-.088.032-.088.07-.102.076-.09.312-.254.04-.077.054-.547.043-.168.503-1.197.011-.251-.057-.14-.137-.115-.092-.041-.133-.03-.117-.003-.153.023-.14.044-.101.042-.066.044-.059.063-.043.072-.038.093-.111.452-.072.117-.108.096-.133.059-.151.031-1.295.041-.18.031-.108.044-.063.049-.011.067.043.072.086.07.765.507.147.153.059.167-.048.145-.147.111-.174.034-.377.008-.183.04-.32.112-.174.032-.146-.064-.138-.096-.435-.437-.108-.165-.086-.174-.147-.381-.117-.168-.108-.068-.151-.018-.104.029-.108.068-.027.096.013.14.038.175.009.161-.047.118-.09.071-.135.043-.147.022-.167.007-.562-.096-.275-.139-.167-.035-.076.016-.018.06.005.084.045.206.038.109.048.221.086.146.14.116.456.203.113.07.049.055.021.187-.641.426-.151.04-.194.021-.111-.067-.088-.094-.293-.418-.287-.323-.118-.026-.047.038-.005.088.014.115.118.453-.004.15-.072.117-.117.04-.147-.016-.124-.044-.147-.068-.158-.052-.275-.048-.241.041-.507.185-.194-.013-.155-.079-.194-.29-.092-.184-.113-.434v-.161l.029-.233.05-.079.07-.016.05.047.092.024.124.016.269-.084.128-.109.135-.203.345-.355.106-.139.077-.155.075-.081.097-.056.113-.04.108-.058.228-.147.285-.117.19-.103.092-.09.059-.093v-.1l-.029-.102-.146-.29-.036-.107-.04-.332-.032-.107-.048-.094-.063-.077-.076-.05-.086-.012-.088.027-.083.034h-.077l-.068-.051-.147-.289-.063-.081-.07-.065-.237-.145-.271-.097-.077-.115-.054-.197-.032-.741-.083-.599-.054-.175-.059-.132-.273-.379-.113-.191-.137-.039-.137-.013-.25.047-.323.097-.122.019-.12-.018-.268-.12-.129-.011-.122.059-.066.096-.111.27-.099.133-.129.134-.751.56-.056.024h-.084s-.102-.028-.102-.028l-.41-.2-1.246.588-.282.206-.451.439-.666.512-.338.203-.248.077-.429.021-.422.131-.203.137-.099.122-.016.105v.099l.018.112.038.126.079.154.108.152.286.338.061.131.025.128-.038.153-.065.049-.214.044-.217.071-.417.235-.223.057-.171-.036-.217-.287-.101-.09-.104-.05-.088-.014-.449.087-1.313.081-.219-.023-.542-.155-.679-.33-.21-.071-.106-.019-.11.007-.21.047-.181.149-.156.196-.284.589-.088.14-.122.119-.248.161-.198.033-.167-.041-.092-.098-.043-.118-.021-.136-.023-.111-.047-.117-.129-.101-.194-.066-.318.008-.167.064-.09.086-.022.116.016.321.043.276.004.267-.074.217-.596.058-.183-.078-.169-.112-.084-.15-.029-.198v-.24l.038-.292.049-.213.056-.173.09-.13.426-.397.156-.247.219-.513.598-.81.259-.557.038-.209-.066-.094-.133.055-.135.105-.307.305-.124.058-.151-.013-.167-.079-.165-.025-.192.044-.189.1-.129.136-.083.13-.057.119-.07.102-.081.068-.11.038-.126-.027-.119-.089-.156-.209-.066-.197-.02-.188.025-.15.032-.114.072-.182.429-.698.054-.2-.022-.114-.104-.122-.104-.046h-.158s-.462.584-.462.584l-.201.48-.041.249-.002.167.022.238.42,1.322.059.321-.004.215-.065.162-.126.091-.183.003-.408-.156-.189-.053-.145-.003-.135.013-.149.031-.311-.141-.169-.037-.189.012-.198.133-.135.163-.167.294-.154.102-.14.029-.115-.076-.057-.114-.07-.615-.05-.172-.151-.033-.271.028-.577.267-.289.093-.189.034-.118-.072-.088-.109-.059-.144-.009-.217.054-.211.113-.227.454-.471.059-.122-.027-.067-.043-.046-.196-.094-.065-.07-.038-.052-.081-.062-.126-.074-.273-.028-.135.037-.072.087-.016.148.011.193-.005.208-.047.194-.181.176-.199.046-.239.031-.172.086-.129.112-.235.336-.16.187-.287.21-.203.011-.167-.109-.102-.212-.032-.291.018-.272.079-.318.128-.278.174-.253.246-.219.415-.275.106-.089.109-.153.036-.167-.005-.173-.052-.294-.002-.177.043-.205.318-.545.045-.23.043-.551v-.13l-.032-.085-.086-.088-.086-.014-.153.024-.183.056-.212.018-.131-.065-.052-.099.041-.151.081-.161.075-.214.032-.216-.004-.369-.038-.187-.066-.21-.208-.208-.174-.037-.205.081-.167.169-.138.192-.113.248-.03.093-.018.12-.011.187.05.699-.029.205-.117.155-.189.119-.323.049-.178-.066-.102-.119-.027-.231.018-.74-.054-.424-.029-.079-.054-.11-.183-.275-.327.252-.144.049-.185.031-.173.09-.128.144-.048.192-.027.434.063.118.331.311.047.106.016.145-.054.179-.183.269-.065.13-.02.154.031.135.093.239.014.163-.036.154-.151.102-.151-.027-.136-.109-.212-.252-.135-.123-.275-.179-.088-.118-.092-.248-.07-.082-.149-.068-.361-.116h-.345s-.253.029-.253.029l-.149.061-.111.078-.075.11-.034.133.016.125.034.106.031.13-.02.1-.065.105-.232.191-.126.13-.427.611-.178.322-.077.183-.041.156.004.148.039.137.101.148.126.122.343.274.23.224.207.266.627,1.448.14.524.029.844.359,1.918.151.446.178.313.668.68.212.284.242.476.102.346.043.297-.009.882.074.589.007.23-.032.185-.056.146-.203.277-.07.162-.005.312.081.234.122.247.11.152.122.084.178.022.205-.044.51-.189.393-.08.224-.016.26.047.251.115.253.245.133.238.088.277.07.302.097.217.343.451.162.27-.014.189-.119.29-.018.101-.004.043.004.047.007.065.036.15.072.07.142.047.18.007.365.061.32.183.004.52-.106.331-.135.326-.167.244-.14.152-.196.172-.586.552-.224.422-.164.527-.223.46-.264.334-.449.462-.278.188-.307.054-.291-.136-.23-.21-.11-.257-.03-.211-.005-.183-.041-.125-.083-.054-.181-.019-.266.006-.559-.053-.269-.079-.302-.143-.268-.193-.515-.534-.356-.236-.948-.82-.462-.274-.345-.148-.203-.016-.154.068-.097.119-.102.164-.081.164-.061.205-.022.195-.009.181-.022.157-.066.155-.128.176-.201.186-.268.186-.391.137-.26-.023-.244-.127-.185-.185-.176-.23-.097-.209-.016-.221.047-.19.318-.548.034-.155-.029-.137-.106-.129-.164-.104-.447-.201-.3-.21-.251-.212-.092-.272-.041-.195-.115-.056-.156-.027-.172-.11-.036-.097-.259-.478-.061-.02.086-.257.442-.61.183-.354.097-.374.032-.404-.038-.081-.165-.197-.045-.112.101-.338.018-.122-.061-.447-.156-.277-.194-.225-.181-.291-.066-.351.004-.391-.038-.396-.47-.863-.083-.078-.194-.058-.144-.151-.079-.209.002-.233.194-.283.792-.645.544-.264.963-.902.212-.279.203-.397.072-.435-.18-.392.002-.298.081-.114.063-.51.061-.302.057-.166.244-.376.117-.517-.027-.205-.074-.262-.216-.34-.876-1.903-.234-.323-.208-.22-.275-.392-.081-.224-.011-.18.065-.118.122-.148,1.184-1.016.287-.415.176-1.018.241-.25,1.566-.421.366-.058.242-.011.534.102.349.007.208-.057.237-.132.183-.151.582-.331,1.71-.351.575-.322.072-.125.03-.09.016-.08.002-.134-.016-.176-.061-.227-.09-.23-.226-.436-.059-.187-.023-.186.013-.191.03-.202.065-.258.113-.3.156-.206.21-.158.237-.132.286-.214.302-.283.271-.672.196-.561.772-.968.124-.253.065-.186.05-.406.365-.822.559-.876.115-.232.016-.186-.088-.102-.284-.18-.137-.164-.084-.221-.027-.362.05-.178.101-.104.316-.12.153-.147.043-.112-.016-.118-.196-.304-.101-.208-.048-.276.041-.189.072-.133.235-.226.129-.094.136-.062.165-.052.479-.102.192-.087.158-.141.138-.173.386-.636.045-.122-.005-.11-.054-.068-.077-.07-.068-.044-.169-.203.215-.703-.048-.563-.144-.528-.224-.571-.932-1.43-.252-.485-.248-.752-.131-.63.005-.151-.012-.034v-.179l-.034-.145-.169-.228-.117-.031-.248-.005-.55.145-.212-.014-.329-.206-.525-.692-.343-.279-.181-.034-.194.005-.154-.033-.063-.15-.066-.247-.158-.068-.194.073-.176.176-.244-.436-.293.02-.659.416-.221.024-.348-.042-.144.018-.133.102-.084.132-.113.115-.208.049-.343-.051-.79-.478-.336-.097-.645-.079-.269-.149-.135-.169-.084-.155-.093-.114-.163-.043-.395.012-.192-.051-.233-.469-.363-.144-.426-.026-.697.096-.099.066-.14.132-.244.451-.057.078-.365-.048-.255-.08-.332.006-.039-.147-.074-.168-.111-.153-.167-.179-.072-.126-.014-.099.047-.094.077-.03.151.004.158-.025.183-.118.578-.567.09-.123-.009-.098-.059-.085-.099-.079-.102-.064-.138-.047-.388-.041-.171-.048-.169-.082-.216-.059-.294-.039-.517.027-.264.044-.219.141-.102.104-.165.117-.072.101-.065.124-.086.092-.138.044-.366-.023-.135.024-.106.089-.032.106-.007.138.007.348-.038.126-.05.033-.111-.066-.059-.091-.045-.114-.054-.195-.057-.086-.146-.12-.217-.06-1.027-.065-.497-.141h-.169l-.162.038-.217.159-.081.039-.097-.054-.059-.07-.083-.071-.118-.063-.178-.062-1.063-.143-.467-.131-.232-.009-.275.082-.216.144-.472.495-.411.263-2.274.967-.172.042-.146.004-.242-.094-.108-.014-.101.061-.205.503-.144.234-.25.273-.433.118-.158-.073-.036-.069-.016-.118.075-.424.022-.425-.023-.305.007-.143.047-.168.113-.164.253-.227.652-.385,2.913-1.337.366-.117.876-.185.214-.117.118-.159.002-.25-.093-.147-.111-.057-.104.02-.095.063-.07.076-.149.212-.083.041-.079-.023-.102-.111-.271-.527-.081-.101-.085-.044-.081.003-.077.046-.063.084-.043.083-.074.081-.081.027-.431-.023-.598-.11-.156-.064-.128-.099-.056-.14-.063-.275-.066-.072-.076-.018-.181.004-.108-.031-.081-.063-.065-.091-.043-.099-.02-.07-.005-.115.022-.085.076-.105.145-.084,1.065-.281.289-.137.129-.245.027-.172.065-.165.23-.098.399-.224.296-.495-.088-.23-.122-.054-.083-.068-.086-.09-.109-.409-.076-.203-.156-.223-.093-.212-.086-.37.029-.203v-.178l-.018-.112-.07-.114-.149-.049-.397-.021-.145-.054-.102-.052-.947-.708-.126-.065-.171-.042-.303-.045-.133-.047-.16-.1-.14-.117-.147-.194-.111-.222-.216-.813-.208-.269-.269-.463-.733-.878-.095-.167-.059-.194.025-.307.048-.188.018-.131-.029-.116-.102-.126-.216-.157-.065-.077-.014-.1.036-.151.066-.099.138-.15.048-.095.011-.115-.032-.347-.095-.371-.135-.227-.083-.093-.095-.053-.086-.026-.07-.027-.063-.077-.045-.122.022-.433-.036-.48-.221-.795.454-.443.113-.078.131-.065.095-.008.124-.038.142-.079.198-.157.647-.135.128-.075.467-.513.194-.029.194.055.215.087.187-.06.172-.195.156-.43.086-.113.25-.342.366-.181-.048-.43-.246-.492-.147-.404-.14-.158-.278-.159-.203-.203.145-.483-.101-.546-.016-.262.593.389-.14-.649-.014-.507.214-.361.546-.211-.174-.234-.471-.074-.079-.24.081-.053.165-.036.165-.074.075-.166.014-.139.043-.099.074-.065.106-.037-.169-.204-.44-.064-.223-.134-.034-.176.011-.271-.027-.248-.372-.319.097-.495.433-1.038-.37.038-.131-.106.027-.555-.068-.184-.158-.006-.312.117-.183-.04-.052-.098-.011-.123-.124-.237-.005-.114-.029-.102-.137-.079-.092.033-.3.191-.136.045-.022-.105.045-.23-.029-.231-.237-.105-.181-.047-.162-.127-.146-.189-.135-.233-.42-.85-.093-.128.056-.279.07-.136.102-.119.264-.236.09-.099.075-.118.032-.131-.011-.152-.054-.207-.259-.721-.021-.124-.011-.171-.068-.222-.108-.263-1.387-1.242-.124-.424-.239-.331.181-.427-.277-.657.214-.405.118-.173.014-.165-.066-.183-.126-.227-.129-.145-.465-.407.038-.347.212-.15.102-.185-.458-.769-.368-1.249-.056-.06-.084-.042-.075-.074-.032-.157.02-.052.045-.039.045-.063.02-.122-.185-2.976.057-.172.187-.245.092-.232-.077-.209-.133-.192-.07-.18-.018-.587.018-.158.084-.169.115-.136.077-.156-.029-.229-.305-.228-.485-.011-.447.06-.198-.018.124-.303.602-.579.225-.289-.262-.231-.481.063-.206-.227.054.014.038-.162.027-.333-.038-.169-.171-.241-.039-.138.113-.279.25-.136.248-.095.113-.157-.068-.234-.12-.214-.054-.248.135-.335-.101-.351.453-.472-.126-.4.374-.238.164-.17.066-.21-.036-.132-.074-.152-.049-.165.029-.17.115-.107.138-.005.133.018.099-.043.323-.658.508-2.484.196-.636.156-.318.176-.136.647-.682.032-.081v-.108l.016-.116.081-.104.079-.013.205.035.074-.022.097-.046.075.019.047-.019.021-.281.02-.113.052-.085.273-.106.541-.535.577-.328.043-.575.149-.217.521-.425,1.132-1.173.729-.581.325-.337.26-.941.05-.907-.027-.206-.023-.045.589-.383.305.012.435.13,1.548,1.389,1.06.668,2.039.96.298.32-.108.265-.336.327-.893.66-.595.687-.771,1.837-.769,1.241-.057.347.088.8-.02.835.068.355.291.814.151,1.034.129.512.828,1.63,1.591-.817.534-.443.223-.024.282.113.995.609.627.48.144.066.397.123.83-.407.593-.631.153-.826-.128-.885-.517-1.685-.075-.454-.025-.509.084-.262.137-.167.167-.113.284-.072.262.013.156.037.185.125,1.011,1.1.675.982.474,1.102.156.244.329.277,1.705.789.629.653.37.823.314.535.605.811.939.845,2.838,1.678.463.183,1.275.266.235.164-.016.192-.068.247-.142.233-.815.756-.217.099-.162-.015-.119-.085-.111-.046-.151.052-.119.156-.221.424-.156.035-.194-.06-.162-.111-.108-.054-.09.032-.117.096-.318.075-.083.075-.021.118.029.116-.005.13-.178.099-.034.046.129.13,2.54,1.365.312.353.219.396.119.368.151,1.053.636-.424,1.096-.297.404-.235.113-.018.221.06,1.295.723.153.165.063.182.007.206.036.188.167.251.273.277,2.186,1.573.411.139.357.031.198-.054.162-.091.172.009.135.133.119.169.269.273.151.188.117.187.241.898.228.528,1.435-.569.701-.018.144.163.097.229.137.204h.208s.21-.082.21-.082l.356-.198,1.157.255.456-.167.063-.147.018-.14-.005-.121.232-.111.354.017.851.148.338.215.156.211-.054.208-.162.399-.013.198.108.172.18.018.499-.216.241-.043.113.075.027.18-.068.234-.018.211.097.144.189-.019.212-.079.221-.04.045.11-.072.159-.018.214.102.199.327.223.32.067.264-.014.233-.074.237-.123.239-.171.478-.529.16-.29.086-.224.059-.311Z"/>
    <path class="cls-2" d="M152.643,145.481l-.25.338v.126l-.034.209-.005.243-.09.214-.19.19-.546.281-.296.107-.487.063-.375.18-.214.208-.066.265-.005.26-.048.226-.135.146-.537.307-.769.315-.259.191-.146.21-.224.141-.575.056-1.448-.202-2.657-.047-.339-.053-.684-.229-1.667.036-.526-.053-.819-.489-.44-.173-1.182-.081-.465.161-.855.509-.433.185-.476.012-.53-.135-.578-.434-.751-.863-.345-.276-.706-.003-.377.335.169.175.02.228-.145.235.05.177.253.337.445,1.108.275.435.086.346.005.306-.115.237-.155.176-.262.376-.151.104-.374.143-.113.152-.074.671-.106.24-.124.136-.12.095-.054.107.065.222.102.247.226.381.108.299.14.234.275.108.235-.097.485-.375.488-.21.354-.334.183-.125.259-.017.339.133.375.104,1,.439.851.048.354.184.401.541.433.879.277.367.243.157h.208l.149.085.07.217.077.161.156.075.952-.152.262.055.203.125.18.232.668.443.219.318.059.389-.436,1.476-.128.747-.013.417-.259.659-.214.314-.318-.096-.37-.038-.33.062-.875.543-.947.3-.345.235-.208.481-.013.34.194.679-.075.323-.587.621-.715.586-.34.164-.672.204-.323.166-.16.321-.043.429.115.6.031.686-.3.355-.108.168-.016.265.102.374-.005.342-.259.242-.42.073-1.004.71-.253.339-.083.297-.025.271-.113.187-.318.183-.359.138-.437.054-.323.137-.349.065-.474.344-.361.372-.23.172-.323.195-.199.229-.28.175-.248.055-.259-.203-.325-.613-.201-.216-.253-.099-.235.015-.42.359-.48.062-.268.09-.332.289-.406.184-.223-.05-.173-.097-.124-.371-.097-.179-.163-.038-.208.101-.23.245-.589.793-.146.418-.031.662.058.513-.032.484-.057.319-.408.708-.726.431-.167.148-.233.281-.124.311-.047.991-.083.213-.149.112-.291.093-.075.074.016.122.194.322.084.242-.02.273-.155.208-.136.049-.135-.065-.485-.747-.262-.132-.273.046-.271.227-.322.521-.704,1.485-.162.497-.038.804.086,1.149-.284.807-.286.53-.302.244-.586.088-.248.279-.162.505-.108,1.831-.065.244-.052.318.115,1.627-.048.46-.271.718-.137.668-.329.88-.28.089-.327.258-.086.056-.101.038-.135.016-.237-.097-1.898-1.18-.318-.121-.189-.033h-.155s-.14.029-.14.029l-.469.153-.156.028-.187.004-.126-.042-.122-.097-.039-.153.034-.131.305-.335.054-.084.023-.072.004-.102-.048-.249-.052-.158-.158-.213-.259-.229-.875-.612-.241-.29-.061-.18-.021-.181-.004-.148-.045-.134-.102-.083-.593-.083-.487-.225-.785-.533-.282-.26-.077.13-.128.11-.187.1-.968.315-.343.231-.145.376-1.304.432-.269.01-.088-.01-.084-.052-.022-.083.002-.078-.014-.04-.219-.012-.347.117-.205.033-.201.224-.115.081-.329.104-.28.055-.316.025-.216-.023-.163-.092-.111-.165-.093-.256-.111-.231-.156-.191-.257-.149-.296-.081-.392-.036-.938.187-.56-.054-.214.033-.171.068-.302.2-.334.285-.239.15-.402.138-.205.021-.167-.072-.07-.136-.052-.38-.034-.149-.057-.137-.059-.103-.043-.121-.075-.397-.604-.379-.208-.443-.268-.158-.774-.284-.232-.048-.242-.011-.239.015-.282-.033-.647.021-.402-.071-.239-.072-.632-.303-.323.028-.043.064-.027.099v.18l-.029.226-.122.34-.201.174-.37.141-.483.122-.882.343-.598.168-1.484.175-.796.243-.318.15-.176.186.02.157.065.197.075.173.02.171-.052.179-.203.207-.233.086-.675.06-.46.091-.683.22-1.069.099-.383.142-.348.029-1.205-.086-1.137-.31-.118-.068-.334-.295-.155-.105-.219-.099-.287-.036-.199.032-.19.106-.14.103-.201.115-.151.04-.156.01-.095-.014-.07-.02-.018-.021.005-.043.022-.071.007-.196-.05-.448-.068-.229-.135-.3-.016-.51-.129-.182-.21-.116-.106-.026-.377-.032-.138.012-.174.036-.133.055-.124.099-.401.525-.799.286-.97.214-.273.155-.237.241-.208.293-.393.44-.329.26-.693.414-.981.459-2.067.689-.336.059-.338-.013-.323-.102-.824-.359-.19-.03-.12.029-.44.3-.318.125-.544.368-.167.044-.135-.034-.09-.115-.106-.109-.135-.061-.449-.02-.214-.048-.192-.013-.174.051-.278.151-.183.059-.215.018-.167-.036-.14-.073-.118-.129-.119-.159-.129-.121-.135-.069-.208-.029-.1.026-.081.093-.135.27-.131.102-.063-.032-.038-.15-.034-.218-.074-.206-.472-.694-.374-.697-.016-.038-.027-.2-.005-.197.029-.223.063-.15.145-.09.223-.026,1.71.112.194-.035.149-.074.038-.151-.065-.141-.124-.164-.084-.198-.013-.252.023-.266v-.275l-.178-1.312-.059-.198-.12-.158-.171-.111-.388-.144-.097-.061-.049-.083-.032-.074-.03-.11-.07-.14-.102-.113-.232-.121-.232-.051-2.22-.082-.287.086-.194.166-.153.238-.19.138-.485.105-.113.072-.144.267-.101.134-.129.095-.185.069h-.144s-.119-.048-.119-.048l-.093-.083-.07-.094-.052-.088-.077-.07-.142-.088-.203-.037-.898.076-.803.219-.704.348-1.936,1.403-.307.101-.975-.013-.514.246-.354.43-.083.503-.016.232-.023.125-.025.412.005.071v.056l-.011.066-.029.093-.108.242-.145.157-.214.179-.12.167-.347.743-.158.177-.189.134-.672.375-.426.322-.162.176-.065.152.038.178.07.204.239.495.011.788-.153.328-.155.252-.18.207-.207.118-1.255.134-.316.068-.44.208-.286.257-.215.273-.345.544-.226.27-.456.205-.548.183-1.067.092-.535.131-1.735-.204-.347-.157-.399-.233-.614-.857-.065-.126-.025-.077.004-.052.011-.044.034-.054.054-.033.106-.025h.117s.158-.017.158-.017l.133-.088.07-.225-.178-.817-.038-.795-.39-.97-.248-.487-.189-.175-.21-.027-.205.056-.176.024-.162-.009-.92-.235-.598-.232-.269-.03-.512.014-.514-.149-1.108.304-1.868.097-.753-.037-.661-.098-.273.025-.298.06-.392.009-.609.159h-.237s-.715-.083-.715-.083h-1.715l-.226-.056-.146-.055-.215-.044-.618.06-1.78-.398-.979-.368-.221-.119-.183-.159-.138-.199-.102-.202-.171-.443-.67-.958-.343-.359-.189-.129-.445-.232-.113-.036-.85-.047-.262-.097-.217-.152-.269-.231-.162-.098-.167-.057-.51-.076-.189-.006-1.565.149-.569-.003-.399-.047-.232-.107-.21-.172-.176-.185-.203-.17-.916-.253-.289-.167-.557-.45-.435-.288-.232-.186-.151-.174-.057-.17-.039-.515-.059-.171-.206-.403-.059-.196-.022-.28.086-1.566.039-.237-.149-.539-1-1.121-.354-.315-.277.025-.691.656-.167.083-.379.11-.251.117-.199.037-.081.034-.022.066-.002.111-.014.121-.059.094-.289.168-.325.115-.363.067-.404.021-.384-.078-.55-.341-.388-.078.004-1.358.223-.711-.021-.161-.142-.242-.16-.164-.104-.163-.054-.194-.054-.43-.079-.314-.176-.394-.142-.192-.291-.261-.092-.146-.036-.182.025-.556-.031-.245-.092-.344-.038-.325.052-.494.11-.267.113-.176.108-.069.113-.027.113.014.122.053.128.1.248.253.119.074.172.039.207-.002.546-.113.286-.105.264-.146.219-.163.173-.181.093-.13.084-.179.021-.191-.038-.171-.156-.16-.226-.114-.435-.103-.559-.033-.695.108-.198.005-.259-.117-.284-.204-.796-.76-.18-.208-.014-.219.149-.342.156-.127.138-.077.126-.016.095.009.984.309.173.01.178-.036.201-.084.169-.119.632-.729,1.306-1.011.14-.048.198-.033.447.007.214-.031.136-.052.21-.123.176-.147.151-.164.129-.185,1.421-2.868.016-.344-.124-.346-.44-.576-.244-.15-.203-.037-.145.096-.135.06-.133.021-.113-.012-.097-.041-.099-.166-.075-.284-.192-1.651-.356-.923.307-.198.246-.239.14-.108.199-.093.219-.048.356.005.255.067.268.1.318.059.345-.039,1.284-.683,1.076-.262.961-.65.756-.276.154-.141-.065-.184-.356-.253-.138-.14-.185-.282-.124-.115-.196-.099-.216-.025-.417.021-.183-.028-.526-.21-.533-.104-.147-.057-.099-.058-.102-.095-.129-.179-.054-.204.023-.253.612-1.159.226-.311,1.076-.988.291-.192.893-.269.397-.139.984-.664.189-.073.435-.097.14-.068.528-.506.167-.213.155-.257.14-.339.237-.748.102-.204.151-.199.156-.17.167-.224.144-.275.07-.395.013-.336-.022-.312-.11-.581-.269-.507-.176-.227-.048-.269-.027-.351.014-.588.092-.784.668-1.99.144-.25.124-.165.104-.167.005-.161-.129-.208-.172-.167-.381-.304-.174-.211-.171-.253-.158-.297-.124-.324-.084-.395-.057-.94-.093-.318-.167-.272-.242-.21-.269-.167-.289-.1-.289-.034-.833.121-.237-.011-.185-.063-.07-.136.043-.181.212-.268.146-.241.086-.32.011-.279.027-.241.092-.196.995-.868.255-.295.147-.294-.034-.37-.198-.216-.286-.156-1.683-.489-.097-.118-.047-.161-.002-.169.059-.239.07-.167.516-.873.614-1.463-.013-.205-.181-.31-.047-.181-.022-.499.038-.622.077-.225.097-.12.172.003.11.134.084.25.07.487.066.172.111.119.289.178.113.126.194.432.129.186.194.121.199.013.657-.032.232-.048.217-.106.21-.159.147-.21.048-.349-.018-.247.011-.229.061-.216.124-.279.014-.268-.086-.158-.135-.085-.146-.015-.162.027-.171.05-.176.023-.178-.035-.41-.128-.273-.026-.525.005-.198-.033-.092-.064-.023-.11.104-.574.02-.225-.014-.212-.059-.23-.327-.858.031-.209.126-.096.37.002.28.102.246.146.28.315.133.108.174.073.176.04.18.077.379.273.259.126.253.061.239-.021.138-.042.194-.122.499-.441.102-.05.106.007.287.139.113.037h.111s.108-.053.108-.053l.083-.094.074-.163.072-.426-.011-.246-.162-.712.036-.125.034-.064.052-.068.221-.197.097-.11.065-.098.048-.105.063-.254.027-.078.043-.088.164-.076.262-.034.841.098.503.008.627-.153.586-.186.151-.027.101-.002.075.028.002.082-.056.189-.189.27-.316.638.025.183.027.062.086.144.32.393.065.203-.023.178-.106.11-.156.066-.178-.018-.205-.068-.264-.123-.171-.024-.119.032-.061.083-.041.099-.022.142.016.154.14.198.259.148.514.108.415-.012.393-.065.749-.246h.185s.126.051.126.051l.032.117-.021.106-.076.152-.126.171-.171.18-.235.171-.275.143-.313.094-.316.046-.372.011-.314-.031-.298-.081-.259-.129-.217-.184-.384-.441-.178-.153-.153-.054-.119.055-.063.129.011.156.074.208.239.4.095.213.054.264-.041.22-.113.16-.363.289-.122.214-.029.231.054.229.12.185.178.169.199.132.296.079.375.012.638-.076.514-.01.578.094.794.285.503.072.548-.041,1.771-.431.844-.032.876-.207,1.191-.691.255-.092.259-.012.205.052.156.11.244.238.548.788.09.383-.016.234-.068.193v.213l.111.24.345.351.512.636.095,1.617-.016.25-.02.069-.059.107-.146.211-.201.154-.206.05-.212-.06-.577-.399-.26-.039-.205.054-.196.185-.16.281-.167.548-.016.304.052.255.065.208.092.805.093.283.128.157.183.103.19.071.155.078.124.125.074.148.054.261-.025.385-.135.39-.618.759-.199.408-.023.344.093.35.203.235.722.414.101.206-.081.2-.21.327-.499.475-.246.378-.147.277-.068.204-.153.175-.056.012-.072-.019-.172-.084-.343-.305-.163-.057-.187.042-.485.433-.198.076-.205.005-.219-.081-.217-.189-.128-.07-.264-.07-.129-.074-.313-.277-.171-.112-.163-.023-.102.026-.183.098-.172.412-.296.479.02.176.054.751.192.344.106.096.291.22.938.553.092.148.097.235.02.366.12.344.704.077.27.065.221.108.33.28.14.013.12-.077.097-.194.047-.184.027-.179.038-.159.259-.524.032-.164-.027-.195-.106-.401-.011-.142.052-.109.095-.076.19-.013.149.087.156.167.158.202.176.183.278.024.345-.095.613-.335.9-.258,1.286-.701.232-.18.129-.217.065-.143.054-.189.014-.077-.004-.05-.023-.065-.246-.264-.102-.15.079-.206.248-.27,1.464-.89.58-.679.045-.308-.002-.185-.052-.443-.002-.24.061-.676-.049-.373.016-.195.09-.393.02-.561.056-.188.097-.142.138-.112.248-.151.323-.156.154-.028.113.017.056.124.005.133-.054.286-.007.117.021.126.083.167.128.176.212.166.275.112.408-.019.575-.115.311.034.936.343.399.096.463.009.833-.104.187.057.185.163.106.209.124.402.07.128.126.074.165.027.329-.038.214-.077.162-.117.066-.121.176-.65.113-.212.16-.174.196-.131.496-.223.481-.157.201-.004.156.071.076.211-.022.208-.072.189-.172.324-.065.162-.02.146.032.109.232.212.972.658.311.268.411.273.489-.021.343-.2.135-.047h.126s.178.027.178.027l.214.004.187-.041.131-.125.07-.165.075-.241.117-.181.113-.145.04-.179-.045-.214-.235-.382-.806-1.044-.194-.401-.102-.433.032-1.251-.14-.511-.045-.173-.004-.132.014-.131.135-.492.005-.075v-.135l-.014-.156-.129-.658.009-.183.07-.115.19-.093.117-.006.115.032.122.071.122.047.109.027h.248s.106.039.106.039l.083.065.079.107.07.119.126.305.03.143.013.113-.016.315.016.072.027.018.063.03.14.026.178.002.284-.056.076-.023,1.604-.725.235-.171.054-.099.122-.171.034-.308-.031-.465-.224-.898-.153-.394-.174-.298-.223-.251-.83-.729-.181-.097-.185-.031-.131.021-.124.039-.167.027-.758-.08-.517-.3-.918-1.087-.217-.19-.038-.198.111-.178.086-.1.092-.063.144-.027.366-.027.361-.088.178-.077.192-.124.156-.186.072-.149.025-.123-.016-.43-.07-.303-.251-.606-.268-.518-.043-.111-.005-.039-.002-.083.032-.11.065-.131.172-.277.14-.121.252-.125.548-.116,1.466-.667.133-.024.181-.003.363.032.864-.118,1.726-.646.226-.035.302.103.298.027.338-.145.203-.006.239.068.264.184.257.139.332.026.215-.102.163-.177.084-.124.086-.092.101-.04.142-.036.138-.084.097-.166.021-.198-.047-.398.025-.155.066-.139.097-.131.027-.138-.039-.161-.095-.155-.366-.435-.124-.202-.05-.147-.038-.194-.005-.185.013-.13.048-.141.063-.147.022-.099-.011-.148-.068-.148-.214-.315-.077-.177-.032-.187.011-.219.048-.175.081-.147.07-.102.065-.111-.002-.091-.052-.135-.07-.124-.086-.114-.092-.092-.117-.08-.118-.055-.277-.046h-.171l-.361.056-.447.175-.32.216-.151.174-.102.2-.169.555-.081.171-.113.176-.14.138-.217.112-.282.053-.41-.043-.257-.076-.327-.16-.206-.021-.264.042-.401.18-.485.304-.488.198-.948-.019-.318.21-.102.023-.162-.056-.605-.474-.156-.074-.727-.128-.151.003-.128.033-.55.205-.122-.003-.126-.048-.117-.072-.731-.567-.194-.088-.212-.068-.197-.025-.356-.003-.167-.03-.189-.109-.14-.149-.395-.73-.135-.127-.196-.122-.253-.051-.165-.03-.147-.086-.133-.145-.077-.204-.099-.45-.345-1.07-.508-2.618-.079-.22-.102-.204-.059-.21.049-.237.109-.095.322-.064.117-.08.084-.245-.014-.536.022-.267.09-.248.397-.694.154-.062.079-.054.406-.405.16-.099.323-.016.174-.07.12-.153.151-.407.086-.119.185-.043.913.076.196.051.199-.005.228-.133.345-.435.178-.156.155-.076.149-.045.145-.082.144-.19.056-.21v-.221l.022-.219.117-.204,1.006-.637.246-.228.09-.191.045-.169.066-.157.155-.153.512-.109.14-.076.25-.283.165-.125.392-.125.117-.176.088-.216.117-.192.147-.104.525-.243.223-.047.241.043.117-.015.129-.1.088-.158.036-.313.048-.126.433-.316.479-.033.499.042.497-.088.356-.395.418-.236.21-.189.257-.187.122-.112.109-.159.12-.312.068-.133.314-.398.216-.176.241-.072.537.014.253-.039.217-.118.131.144.28-.17.018-.242-.014-.269.18-.253.309-.067.701.099.251-.091.203-.191.682-.408.895-.687.248-.104.255-.041.609-.182.323-.041.273-.077.201-.183.302-.399.499-.238.629-.209.392-.319-.214-.566.882-.276.187-.12.092-.166.054-.338.092-.155.147-.084.189-.038.322-.01.311-.064.494-.28.438-.184.16-.034.151.088.131.112.164.066.18.031h.183s.348-.052.348-.052l.101-.126-.004-.235.041-.378.049-.133.145-.251.032-.036-.009-.205-.097-.325-.023-.185.144-.297.327.009.548.222.233-.169.07-.585.23.094.311-.121.332-.006.255.08.365.048.057-.078.244-.451.14-.132.099-.066.697-.096.426.026.363.144.233.469.192.051.395-.012.163.043.093.114.084.155.135.169.269.149.645.079.336.097.79.478.343.051.208-.049.113-.115.084-.132.133-.102.144-.018.348.042.221-.024.659-.416.293-.02.244.436.176-.176.194-.073.158.068.066.247.063.15.154.033.194-.005.181.034.343.279.525.692.329.206.212.014.55-.145.248.005.117.031.169.228.034.145v.179l.012.034-.005.151.131.63.248.752.252.485.932,1.43.224.571.144.528.048.563-.215.703.169.203.068.044.077.07.054.068.005.11-.045.122-.386.636-.138.173-.158.141-.192.087-.479.102-.165.052-.136.062-.129.094-.235.226-.072.133-.041.189.048.276.101.208.196.304.016.118-.043.112-.153.147-.316.12-.101.104-.05.178.027.362.084.221.137.164.284.18.088.102-.016.186-.115.232-.559.876-.365.822-.05.406-.065.186-.124.253-.772.968-.196.561-.271.672-.302.283-.286.214-.237.132-.21.158-.156.206-.113.3-.065.258-.03.202-.013.191.023.186.059.187.226.436.09.23.061.227.016.176-.002.134-.016.08-.03.09-.072.125-.575.322-1.71.351-.582.331-.183.151-.237.132-.208.057-.349-.007-.534-.102-.242.011-.366.058-1.566.421-.241.25-.176,1.018-.287.415-1.184,1.016-.122.148-.065.118.011.18.081.224.275.392.208.22.234.323.876,1.903.216.34.074.262.027.205-.117.517-.244.376-.057.166-.061.302-.063.51-.081.114-.002.298.18.392-.072.435-.203.397-.212.279-.963.902-.544.264-.792.645-.194.283-.002.233.079.209.144.151.194.058.083.078.47.863.038.396-.004.391.066.351.181.291.194.225.156.277.061.447-.018.122-.101.338.045.112.165.197.038.081-.032.404-.097.374-.183.354-.442.61-.086.257.061.02.259.478.036.097.172.11.156.027.115.056.041.195.092.272.251.212.3.21.447.201.164.104.106.129.029.137-.034.155-.318.548-.047.19.016.221.097.209.176.23.185.185.244.127.26.023.391-.137.268-.186.201-.186.128-.176.066-.155.022-.157.009-.181.022-.195.061-.205.081-.164.102-.164.097-.119.154-.068.203.016.345.148.462.274.948.82.356.236.515.534.268.193.302.143.269.079.559.053.266-.006.181.019.083.054.041.125.005.183.03.211.11.257.23.21.291.136.307-.054.278-.188.449-.462.264-.334.223-.46.164-.527.224-.422.586-.552.196-.172.14-.152.167-.244.135-.326.106-.331-.004-.52-.32-.183-.365-.061-.18-.007-.142-.047-.072-.07-.036-.15-.007-.065-.004-.047.004-.043.018-.101.119-.29.014-.189-.162-.27-.343-.451-.097-.217-.07-.302-.088-.277-.133-.238-.253-.245-.251-.115-.26-.047-.224.016-.393.08-.51.189-.205.044-.178-.022-.122-.084-.11-.152-.122-.247-.081-.234.005-.312.07-.162.203-.277.056-.146.032-.185-.007-.23-.074-.589.009-.882-.043-.297-.102-.346-.242-.476-.212-.284-.668-.68-.178-.313-.151-.446-.359-1.918-.029-.844-.14-.524-.627-1.448-.207-.266-.23-.224-.343-.274-.126-.122-.101-.148-.039-.137-.004-.148.041-.156.077-.183.178-.322.427-.611.126-.13.232-.191.065-.105.02-.1-.031-.13-.034-.106-.016-.125.034-.133.075-.11.111-.078.149-.061.253-.027h.345s.361.114.361.114l.149.068.07.082.092.248.088.118.275.179.135.123.212.252.136.109.151.027.151-.102.036-.154-.014-.163-.093-.239-.031-.135.02-.154.065-.13.183-.269.054-.179-.016-.145-.047-.106-.331-.311-.063-.118.027-.434.048-.192.128-.144.173-.09.185-.031.144-.049.327-.252.183.275.054.11.029.079.054.424-.018.74.027.231.102.119.178.066.323-.049.189-.119.117-.155.029-.205-.05-.699.011-.187.018-.12.03-.093.113-.248.138-.192.167-.169.205-.081.174.037.208.208.066.21.038.187.004.369-.032.216-.075.214-.081.161-.041.151.052.099.131.065.212-.018.183-.056.153-.024.086.014.086.088.032.085v.13l-.043.551-.045.23-.318.545-.043.205.002.177.052.294.005.173-.036.167-.109.153-.106.089-.415.275-.246.219-.174.253-.128.278-.079.318-.018.272.032.291.102.212.167.109.203-.011.287-.21.16-.187.235-.336.129-.112.172-.086.239-.031.199-.046.181-.176.047-.194.005-.208-.011-.193.016-.148.072-.087.135-.037.273.028.126.074.081.062.038.052.065.07.196.094.043.046.027.067-.059.122-.454.471-.113.227-.054.211.009.217.059.144.088.109.118.072.189-.034.289-.093.577-.267.271-.028.151.033.05.172.07.615.057.114.115.076.14-.029.154-.102.167-.294.135-.163.198-.133.189-.012.169.037.311.141.149-.031.135-.013.145.003.189.053.408.156.183-.003.126-.091.065-.162.004-.215-.059-.321-.42-1.322-.022-.238.002-.167.041-.249.201-.48.462-.584h.158s.104.046.104.046l.104.122.022.114-.054.2-.429.698-.072.182-.032.114-.025.15.02.188.066.197.156.209.119.089.126.027.11-.038.081-.068.07-.102.057-.119.083-.13.129-.136.189-.1.192-.044.165.025.167.079.151.013.124-.058.307-.305.135-.105.133-.055.066.094-.038.209-.259.557-.598.81-.219.513-.156.247-.426.397-.09.13-.056.173-.049.213-.038.292v.24l.029.198.084.15.169.112.183.078.596-.058.074-.217-.004-.267-.043-.276-.016-.321.022-.116.09-.086.167-.064.318-.008.194.066.129.101.047.117.023.111.021.136.043.118.092.098.167.041.198-.033.248-.161.122-.119.088-.14.284-.589.156-.196.181-.149.21-.047.11-.007.106.019.21.071.679.33.542.155.219.023,1.313-.081.449-.087.088.014.104.05.101.09.217.287.171.036.223-.057.417-.235.217-.071.214-.044.065-.049.038-.153-.025-.128-.061-.131-.286-.338-.108-.152-.079-.154-.038-.126-.018-.112v-.099l.016-.105.099-.122.203-.137.422-.131.429-.021.248-.077.338-.203.666-.512.451-.439.282-.206,1.246-.588.41.2.102.03h.084s.056-.026.056-.026l.751-.56.129-.134.099-.133.111-.27.066-.096.122-.059.129.011.268.12.12.018.122-.019.323-.097.25-.047.137.013.137.039.113.191.273.379.059.132.054.175.083.599.032.741.054.197.077.115.271.097.237.145.07.065.063.081.147.289.068.051h.077l.083-.034.088-.027.086.012.076.05.063.077.048.094.032.107.04.332.036.107.146.29.029.102v.1l-.059.093-.092.09-.19.103-.285.117-.228.147-.108.058-.113.04-.097.056-.075.081-.077.155-.106.139-.345.355-.135.203-.128.109-.269.084-.124-.016-.092-.024-.05-.047-.07.016-.05.079-.029.233v.161l.113.434.092.184.194.29.155.079.194.013.507-.185.241-.041.275.048.158.052.147.068.124.044.147.016.117-.04.072-.117.004-.15-.118-.453-.014-.115.005-.088.047-.038.118.026.287.323.293.418.088.094.111.067.194-.021.151-.04.641-.426-.021-.187-.049-.055-.113-.07-.456-.203-.14-.116-.086-.146-.048-.221-.038-.109-.045-.206-.005-.084.018-.06.076-.016.167.035.275.139.562.096.167-.007.147-.022.135-.043.09-.071.047-.118-.009-.161-.038-.175-.013-.14.027-.096.108-.068.104-.029.151.018.108.068.117.168.147.381.086.174.108.165.435.437.138.096.146.064.174-.032.32-.112.183-.04.377-.008.174-.034.147-.111.048-.145-.059-.167-.147-.153-.765-.507-.086-.07-.043-.072.011-.067.063-.049.108-.044.18-.031,1.295-.041.151-.031.133-.059.108-.096.072-.117.111-.452.038-.093.043-.072.059-.063.066-.044.101-.042.14-.044.153-.023.117.003.133.03.092.041.137.115.057.14-.011.251-.503,1.197-.043.168-.054.547-.04.077-.312.254-.076.09-.07.102-.032.088-.025.088-.011.215-.021.132-.07.153-.059.11-.115.152-.201.204-.007.016-.043.156-.005.147.093.12.201.105.458.051.49-.016.124-.017.914-.259.129.005.124.049.133.132.169.232.133.098.194.074.291-.002.208-.05.458-.185.102-.015.178.077.278.179.656.604.512.242.456-.579.119-.121.108-.063.189-.043.386-.015.083-.038.108-.084.054-.155.005-.127-.027-.138-.032-.098-.07-.157-.061-.112-.009-.018v-.018l.022-.187.043-.146.059-.122.447-.461.284-.366.224-.393.061-.171.025-.125.018-.202-.007-.199-.122-.587.043-.165.117-.086.239.024.205.069h.214s.273-.102.273-.102l.216-.038.28.073.219.091.393.122.124.071.054.087.011.08-.014.065-.075.241-.023.139.013.102.07.081.165.074.214.05.469.02.474-.062.194-.077.151-.114.063-.182-.022-.131-.102-.12-.497-.312-.088-.083-.052-.077.332-.188,1.608-.479.374.549.084.534.07.163.156.206.063.138.011.089-.036.066-.059.096-.029.1v.126l.077.134.128.094.248.062.44.04.7.188.738-.016.122.091.086.217.034.211.09.157.135.098.318.08.226-.003.203-.064.269-.153.122-.046.14-.021.158-.005.241.055.192.11.207.257.101.241v.018l.034.045.214.333.021.177-.03.173-.072.147-.043.123-.005.092.038.113.077.133.138.161,1.302.962.224.115.196.059.34.037.419-.007.162.016.408.194.85.684.221.087.068.013.131.009.135-.029.16-.061.146-.075.704-.526.102-.038.059.011.066.042.065.118.052.183.018.4-.061.222-.065.173-.07.14-.004.143.054.121.187.134.126.019.126-.047.088-.098.07-.093.129-.257.059-.089.081-.09.09.01.059.115.013.363-.059.827.025.136.05.087.14.103.081.016.075-.009.072-.05.099-.034.122.003.14.054.156.085.075.157.048.263-.302.632-.106.162.075.116.869-.089.663.086.251-.066.242-.226.066-.214.005-.167-.065-.311-.013-.169.002-.176.022-.165.043-.151.248-.054.208-.011,1.663.573.799.079.286-.022.215-.056,1.187-.531.147-.032h.129l.111.071.05.131-.038.441.022.138.122.131.142.039.573.031.129.029.118.13.077.189.101.446.097.216.117.18.232.209.056.131-.007.161-.16.276-.199.104-.242.025-.469-.166-.101.007-.092.052-.092.102-.092.157-.009.176.025.287.138.39-.009.39-.172.87-.005.248.027.144.097.11.3.132.113.15.061.247-.038,1.062-.045.241-.081.243-.286.507-.144,1.207-.194.245-.221.132-.356.03-.137.031-.099.077-.02.124.097.257.133.208.23.259.307.252.217.147.097.113.047.143-.002.257-.066.22-.038.182.032.128.117.075.14.069.354.322.542.806Z"/>
    <path class="cls-2" d="M161.961,142.802l.93.293.898.056.16.047.135.089.278.252.616.349.119.145.074.177.027.252-.013.757.021.247.054.284.097.251.137.275.286.396,2.43,2.213.264.335.313.75.07.226.025.207-.036.175-.194.536-.039.15-.009.14.027.173.183.401.208.61.16.316.156.174.18.131.156.059.128.02.14-.006.402-.082.131-.012.151.007.156.031,1.074.454.102.02.068-.003.059-.056.038-.062.016-.113-.081-.414v-.222l.018-.111.032-.076.047-.072.086-.059.081-.035.178-.051.109-.049.221-.144.117-.04h.122s.174.085.174.085l.084.137.038.2.022.202.05.219.302.599.016.099-.022.148-.077.185-.101.179-.199.267-.537.573-.099.135-.07.15-.022.144.002.15.02.166.002.167-.013.182-.113.504-.02.186v.233l.052.243.066.139.097.075h.079s.108-.073.108-.073l.429-.45.124-.056.093.017.192.111.124.197.101.259.18.922-.124,1.491-.199.809.155.77.277.429.582.502.187.22.095.229.054.22.077.531.101.374.07.171.054.09.075.06.093.048.128.044.122-.007.11-.041.052-.061.018-.043.004-.024-.041-.292.005-.101.07-.062.149.023.582.374.118.057.289.093.162.025.164-.002.138-.047.124-.061.032-.01.187-.019h.156s.169.022.169.022l.165.054.463.222.146.135.074.148.034.376.063.22.167.344.083.221.041.224-.02.205-.099.22-.167.224-.216.229-.683.492-.133.116-.189.233-.108.1-.313.108-.128.074-.12.124-.09.139-.077.17-.28.948-.09.158-.111.123-.902.635-.349.354-.135.078-.138.051-.194.023-.526-.019-.093.032-.225.199-.298.365-.12.101-.108.071-.296.136-.075.057-.056.07-.059.113-.047.109-.108.38-.108.269-.036.314.043.122.347.613.077.267.036.322-.011.21-.03.168-.038.134-.059.137-.083.127-.498.59-.172.141-.242.107-.234.05-.72.068-.618.197-.429.3-1.453,1.312-.199.135-.999.374-.42.219-.284.187-.318.323-.841,1.242-.144.308-.043.211.07.127.181.204.081.077.081.104.038.12-.02.175-.108.117-.142.083-.187.065-.298.167-.115.127-.072.151-.086.698-.004.182.043.171.102.14.155.127.499.289.131.108.074.096.018.126-.027.163-.153.446-.031.159.014.101.077.3-.135.347-.075.029-.11.022-.323-.025-.099.061-.043.07-.011.294-.061.205-.075.064-.086-.006-.097-.096-.111-.082-.137-.043-.23.024-.109.134-.052.176-.011.454-.075.337-.259.547-1.6,2.627-.151.32-.013.193-.129.55-.129.387-.025.21.02.449.045.192.081.169.117.15.593.549.101.131.065.187.045.23.014.358-.052.21-.097.135-.156.047-.169-.002-.138-.03-.144-.047-.76-.33-.192-.017-.185.015-.133.135-.102.157-.093.191-.059.164-.031.138-.002.091.018.051.047.062.013.108-.045.173-.397.534-.122.22-.503,1.428-.21.352-.212.25-.307.26-.221.099-.251.05-.885.063-.153-.041-.119-.073-.255-.278-.151-.107-.155-.061-.199-.049-.172-.064-.129-.089-.097-.094-.118-.146-.21-.139-.216-.043-1.789.308-.348.013-.336.062-.205.072-.226.124-.122.042-.144.002-.124-.069-.099-.099-.138-.076-.153-.037-1.467.085-.199.053-.133.067-.076.085-.034.075.002.077.07.237-.048.355-.293.432-.354,1.051-.778,1.29-.242.279-.178.117-.174.015-.095.05-.137.107-.278.303-.189.28-.257.465-.172.216-.165.158-.266.136-.269.091-.118.014-.086-.029-.059-.062-.041-.099-.002-.099.027-.221v-.073l-.031-.07-.066-.062-.106-.052-.521-.131h-.088s-.118.033-.118.033l-.068.07-.056.08-.047.104-.022.111.038,2.086.043.195.065.199.172.384.068.203.049.23.011.241-.016.225-.068.325-.092.274-.3,1.261-.002.255.061.242.268.546.011.006.027.004.047-.015.043-.041.045-.051.065-.033.065.006.079.103.007.028.02.285.077.329.076.148.09.09h.095l.093-.059.081-.068.097-.043.048.201.027.435-.18,1.522.002.343.047.118.081.111.072.151.07.224.014.967.137.786v.461l-.038.271-.352,1.208-.016.301.054.184.85.39.11.081.275.264.076.044.086.029.242.022.704-.048.133.007.136.034.117.057.101.084.201.267.075.078.074.057.092.045.129.04.12-.015.142-.054.189-.131.027-.024.077-.047.079-.023.099-.017h.208s.397.049.397.049l.075.017.043.017.022.045.072.331.009.208-.032.253-.237.901-.016.195.018.144.047.09.05.074.312.291.074.134-.009.11-.086.117-.28.265-.164.112-.375.128-.181.083-.19.112-.665.56-.145.101-.304.019-.022-.053-.014-.073.014-.132.005-.162-.031-.259.005-.178.038-.187.048-.158.022-.177-.093-.078-.16-.035-.666-.018-.212-.076-.438-.247-.223-.082-1.643-.249-.19.01-.162.028-.135.061-.111.074-.095.091-.061.081-.081.123-.242.486-.102.146-.149.052-.119-.057-.135-.177-1.076-2.254-.183-.262-.135-.106-.113-.029-.392.065-.178-.005-.106-.043-.072-.064-.036-.064-.034-.095-.021-.077-.032-.079-.081-.105-.135-.128-.248-.186-.532-.512-.095-.075-.097-.042-.066-.016-.108-.009-.076.021-.084.066-.081.11-.059.104-.144.344-.061.101-.1.07-.129.04-.19.004-.097-.095-.022-.115.013-.118-.027-.112-.086-.164-.846-.977-.149-.112-.124-.034-.092.017-.171.126-.56.66-.323.2-.194.08-.133.177-.71,1.311-.07.181-.038.19.011.192.059.198.122.204.156.174.21.167,1.462.835.135.137.11.178.192.516.097.141.151.095.162.054.584.061.147.054.156.101.122.172.029.19-.169.743-.014.379.068.35.131.451.032.267-.027.238-.12.543-.054,1.41.05.172.108.109.499.097.138.057.108.097.088.151.28.637.074.103.086.063.11.041.433.107.146.072.136.12.151.237.043.184-.023.157-.092.105-.296.186-.117.109-.076.163.022.098.092.101.291.186.172.167.057.16-.016.182-.307.649-.086.243-.048.255.005.346.048.227.076.205.228.415.047.233-.022.207-.118.404-.016.183.086.127.404.275.124.151.047.16.05.471.102.212.259.405.063.168.012.183-.005.162.043,1.139-.059.219-.077.123-.101.03-.442.233-.072.057-.059.068-.041.076-.052.071-.118.13-.05.089-.027.122-.014.556-.162.826-.032.083-.043.075-.12.305-.075.343-.199-.036-.158-.106-.207-.228-.07-.045-.065-.011-.059.033-.065.092-.257.612-.12.191-.187.134-.253.071-.677.049-.124.033-.154.071-.18.117-.178.147-.133.154-.235.349-.12.131-.129.079-.133.032-.156.013-.124.051-.109.133-.016.129.022.093.083.109.128.096.318.178.137.127.111.264-.022.217-.108.165-.14.079-.149.063-.19.107-.411.329-.35.34-.447.555-.677.517-.215.198-.348.459-.551,1.007-.129.151-.133.101-.146.056-.447.075-.151.057-.124.072-.088.089-.21.393-.099.1-.155.098-.876.366-.323.093-.163.011-.128-.029-.075-.031-.092.022-.102.111-.23.6-.131.207-.097.186-.041.128-.016.119.014.099.027.092.145.269.022.157-.031.181-.081.27-.04.321-.172.586-.056.104-.061.082-.063.063-.135.194-.092.177-.032.143-.005.129.027.151-.002.619-.076.412-.059.207-.059.124-.128.162-.077.123-.106.227-.043.173-.023.179-.004.242-.032.133-.054.096-.081.043-.084.017-.086-.017-.072-.043-.135-.109-.079-.042-.086-.017-.099.027-.092.079-.041.094-.012.103-.016.328-.045.312.004.331.054.219-1.297-.041-.778.092-.512.003-.409-.094-.323-.14-.442-.27-.178-.085-.176-.031-.165.024-.212.12-.467.33-.447.215-.435.319-.226.113-.269-.016-.243-.15-.269-.394-.25-.608-.115-2.242-.086-.295-.327-.592-.126-.288-.111-.355-.059-.327-.011-.366.075-.295.128-.266.137-.235.075-.176-.039-.153-.133-.087-.295-.041-.228.07-.426.195-.208.069-.198-.013-.162-.107-.126-.22-.038-.255-.011-.247-.032-.241-.09-.212-.185-.112-.144-.02-.138.043-.07.066-.048.105-.075.375-.034.111-.043.08-.092.068-.144.045-.207.027-.449.011-.189-.051-.131-.123-.092-.245-.005-.195.045-.169.086-.125.135-.101.329-.147.149-.09.047-.112-.013-.176-.072-.191-.431-.693-.431-.992-.149-.554-.106-.269-.167-.281-.298-.345-.241-.341-.366-.369-.257-.367-.797-.929-.386-.348-.163-.117-.379-.184-.167-.118-.309-.301-.278-.113-.386-.009-.634.172-.327.153-.257-.076-.065-.204-.122-.149-.199-.058-.041.1-.147.194-.16.13-.072-.096-.059-.24-.14-.191-.162-.179-.126-.204-.041-.18-.023-.386-.043-.181-.079-.2-.104-.198-.147-.152-.208-.061-.214.055-.097-.329-.059-.233-.014-.201.095-.231.153-.159,1.114-.664.18-.321-.088-.361-1.047-1.27-.217-.487.007-.593.323-.728.97-1.137.354-.656.07-.361.043-.26.417-1.515.144-.297.149-.104.402-.168.178-.125.16-.238.253-.562.169-.233.156-.106.325-.112.147-.087.163-.185.284-.426.187-.152.392-.093.192.184.23.737.298.423.28.033.338-.103.469.016.176.19.354.594.108.293.066.021.07-.053.221-.258.242-.228.174-.136.402-.241.672-.265.138-.15.021-.204-.154-.324-.311-.422-.05-.15.056-.165.14-.094.203-.05.499-.06.264-.09.201-.157.138-.2.111-.245.029-.301-.054-.29-.273-.416-.41-.359-.287-.301-.124-.073-.149-.027-.133-.006-.145-.045-.519-.399-.266-.127-.839-.23-.201-.09-.171-.187-.113-.266-.162-.996-.14-.228-.149-.129-.162-.096-.196-.072-.67-.155-.223-.096-.219-.181-.156-.202-.129-.283-.167-.682-.068-.179-.118-.162-.162-.085-.174-.015-.16.03-.147.069-.111.096-.079.119-.038.109-.013.093.005.087.012.093.005.076-.016.058-.054.056-.093.03-.162.006-.189-.022-.471-.109-.205-.086-.145-.104-.043-.153.036-.129.124-.125.174-.087.331-.112.275-.136.153-.111.063-.068.061-.086.074-.137.05-.165-.018-.207-.076-.09-.128-.052-.503-.083-.126-.045-.093-.055-.075-.081-.041-.084.027-.158.079-.186.237-.362.129-.129.138-.051.12.046.541.281.196.068.162.025.124-.007.09-.039.066-.169.065-.273.106-.996.122-.477.043-.119.021-.089.029-.223-.07-.458-.392-1.134-.153-.066-.122-.037-.137-.027-1.401-.079-.142-.048-.068-.116-.002-.184.172-.59.002-.264-.016-.199.02-.215.119-.236.172-.118.221-.074.984-.102.187-.039.226-.081.228-.153.481-.464.183-.145.172-.094.354-.128.113-.058.076-.135-.005-.173-.095-.349-.077-.183-.063-.254-.023-.295.05-1.163.047-.17.12-.303.113-.194.076-.219-.104-.212-.068-.077-.043-.113-.027-.139.031-.811.016-.103.002-.092-.023-.087-.135-.097-.113-.062-.128-.053-.257-.075-.113-.01-.14.017-.109.042-.311.23-.257.151-.153.059-.151.021-.149-.023-.093-.047-.07-.065-.038-.092-.005-.156.029-.173.119-.265.106-.148.14-.127.726-.35.124-.098.086-.182.034-.281-.282-1.538-.004-1.797-.013-.387-.02-.164-.045-.212-.079-.147-.111-.124-.126-.065-.113-.007-.149.033-.271.095-.092.016-.117-.002-.172-.034-.167-.079-.146-.11-.133-.159-.097-.154-.158-.364-.099-.378-.013-.267.029-.204.192-.679.165-1.187.048-.193.097-.224.131-.171.205-.195,1.112-.722,1.34-.667.205-.168.505-.516.208-.416.011-.912.329-.88.137-.668.271-.718.048-.46-.115-1.627.052-.318.065-.244.108-1.831.162-.505.248-.279.586-.088.302-.244.286-.53.284-.807-.086-1.149.038-.804.162-.497.704-1.485.322-.521.271-.227.273-.046.262.132.485.747.135.065.136-.049.155-.208.02-.273-.084-.242-.194-.322-.016-.122.075-.074.291-.093.149-.112.083-.213.047-.991.124-.311.233-.281.167-.148.726-.431.408-.708.057-.319.032-.484-.058-.513.031-.662.146-.418.589-.793.23-.245.208-.101.163.038.097.179.124.371.173.097.223.05.406-.184.332-.289.268-.09.48-.062.42-.359.235-.015.253.099.201.216.325.613.259.203.248-.055.28-.175.199-.229.323-.195.23-.172.361-.372.474-.344.349-.065.323-.137.437-.054.359-.138.318-.183.113-.187.025-.271.083-.297.253-.339,1.004-.71.42-.073.259-.242.005-.342-.102-.374.016-.265.108-.168.3-.355-.031-.686-.115-.6.043-.429.16-.321.323-.166.672-.204.34-.164.715-.586.587-.621.075-.323-.194-.679.013-.34.208-.481.345-.235.947-.3.875-.543.33-.062.37.038.318.096.214-.314.259-.659.013-.417.128-.747.436-1.476-.059-.389-.219-.318-.668-.443-.18-.232-.203-.125-.262-.055-.952.152-.156-.075-.077-.161-.07-.217-.149-.085h-.208l-.243-.157-.277-.367-.433-.879-.401-.541-.354-.184-.851-.048-1-.439-.375-.104-.339-.133-.259.017-.183.125-.354.334-.488.21-.485.375-.235.097-.275-.108-.14-.234-.108-.299-.226-.381-.102-.247-.065-.222.054-.107.12-.095.124-.136.106-.24.074-.671.113-.152.374-.143.151-.104.262-.376.155-.176.115-.237-.005-.306-.086-.346-.275-.435-.445-1.108-.253-.337-.05-.177.145-.235-.02-.228-.169-.175.377-.335.706.003.345.276.751.863.578.434.53.135.476-.012.433-.185.855-.509.465-.161,1.182.081.44.173.819.489.526.053,1.667-.036.684.229.339.053,2.657.047,1.448.202.575-.056.224-.141.146-.21.259-.191.769-.315.537-.307.135-.146.048-.226.005-.26.066-.265.214-.208.375-.18.487-.063.296-.107.546-.281.19-.19.09-.214.005-.243.034-.209v-.126l.25-.338.67.171.95.898.316.216.42.199.485.118.192.003.517-.076.63.016.823.112.264-.022.216-.055.514-.239.178-.059.476-.106.395-.143.151-.094.11-.099.111-.134.365-.617.054-.114.021-.107.034-.546.086-.252.16-.215.569-.349.137-.128.09-.175.196-.585.189-.298Z"/>
  </g>
  <text class="cls-1" transform="translate(52.822 166.752)"><tspan x="0" y="0">CENTRAL</tspan></text>
</svg>