<?xml version="1.0" encoding="UTF-8"?>
<svg id="India" xmlns="http://www.w3.org/2000/svg" version="1.1" viewBox="0 0 147.934 182.733">
  <defs>
    <style>
      .cls-1 {
        fill: #019392;
        stroke: #fff;
        stroke-miterlimit: 10;
        stroke-width: .25px;
      }

      .cls-2 {
        fill: #fff;
        font-family: Helvetica, Helvetica;
        font-size: 12px;
      }
    </style>
  </defs>
  <g>
    <path class="cls-1" d="M127.726,7.29l.165.121,1.089.577.389.294.229.439.084.499v1.062l.106.958.268-.365.336-.286.351-.041.31.377.043.237-.027.201-.002.187.122.196.181.107.205.021.196-.055.165-.121.37-.02.434.195.405.301.275.304.237.486.141.394.244.283.549.154.982.056.49-.048.487-.13.205-.136.18-.185.185-.146.222-.021.24.011.721-.192.473.329.668.464.618.317,1.087-.129.714.119.688.261.439.35.037.337-.278.534.214.169.322-.006.607-.251.381.018.931.412.277.044.098.016.692-.006.069.014.167.07h.063s.083-.094.083-.094l.055-.129.027-.113v-.042s.008-.043.008-.043l.007-.088.036-.1.091-.076.071.006.138.124.066.032.138.022-.082.244.359,1.064.075.338.165,2.012-.262.435-.027.064-.018.06-.016.075-.198.56-.086.372-.176,1.344-.032.055-.04.044-.221.136-.146.111-.052.062-.007.091.005.161.18.145.076.119-.016.123-.118.063-.27.081-.435.226-.05.06-.076.158-.269.659-.271.185-.183.056-.039.127.039.126.092.138.016.229-.061.131-.14.106-.329.1-.37.155-.508.112.01-.399-.093-.286-.314-.061-.375.124-.12.161.036.584.119.223-.015.094-.355-.107-.126.01-.119.06-.113.104-.185.349.115.241.285.138.321.042-.203.13-.255.129-.19.159.002.229.172.086.241-.046.227.007.13.24-.147.326-.76.635-.147.523.02.26-.048.243-.128.176-.231.05-.178-.095-.152-.203-.245-.431-.082-.044-.087-.027-.087-.01-.942.081v.003s-.091.033-.091.033l-.088.011-.084-.011-.081-.036-.264-.393-.203.003-.208.19-.283.165-.281-.033-.35-.158-.317-.219-.416-.487-.614-.281-.145-.175-.108-.373-.181-.239-.257-.168-1.151-.501-.216-.248-.13-.344-.145-1.169-.13-.306-.348-.579-.112-.315-.01-.518.199-.026.251.118.152-.081-.011-.263-.125-.139-.415-.118-.289-.124-.02-.134.056-.167-.081-.231-.154-.125-.382-.1-.189-.076-.158-.135-.265-.3-.195-.1-.278-.206-.159-.162-.159-.048-.286.141-.219.211-.217.323-.143.361.011.328.357.383.5.171.431.224.162.55.111.156.138.047.155-.041.163-.109-.063.413.126.126.207.007.188.059.093.359-.352.245-.767.195-.495-.165-.767-.771-.468-.086-.35.236-.26.637-.275.106-.293-.132-.165-.274-.112-.327-.139-.296-.627-.242-1.469.541-.305-.223.129-.137.64-.323.224-.189.161-.359-.044-.238-.233-.186-.398-.201-.103-.143.019-.339-.129-.061-.154-.051-.041-.133.036-.168.075-.156-.404-.096-.185-.086-.189-.122-.138-.18-.099-.217-.117-.189-.208-.093-.368.006-.143-.018-.399-.169-.348-.236-.142-.14-.187-.211-.217-.178-.226-.268-.277-.13-.616-.185-.228-.263-.05-.381.016-.41-.027-.357-.158-.107-.222.231-.213.358-.129.279-.356,1.237-.226.382-.095.257.021.318.129.256.227.069.08-.115.049-.445.061-.132.122-.011.406.179,1.002.197.462.217.248.422.348,1.041.038.49-.386-.06-.13.034-.172.02-.163-.008-.115-.052-.18-.118-.099.083-.083.177-.128.165-.817.516-.262.24-.262.37-.064.281.028.702-.144.287-.305.189-1.015.348-.357.077-.19.075-.12.123-.11.141-.152.13-.576.369-.142.231-.194.628-.054.103-.025.1.022.19.063.096.108.068.094.107.026.211-.119.368-.437.345-.336.643-.322,1.091-.093.14-.092.061-.052.089.133.851.12.292-.024.167v.173l.274.311.082.164.119.365.223.237.325-.016.344-.152.286-.169.778-.227.564.293,1.049,1.224,1.264.853.46.517.076,1.18.243.238.654.331.177.382.472.362.134.276.171.174.359.071.741.027.34.166.56.365.364.085.204-.057.156-.153.149-.186.183-.154.138-.022.156.027.165.008.172-.08-.011-.336.528.207.15.13.211.253.221.197.158.25.024.41-.295.679.005.117.187.137.05.16.013.185.075.206.411.513.122.108.178.047.364.024.103.084.291.299.41.056.849-.042.128.156.039.182-.045.193-.122.185-.653.479-.151.205-.019.258.048.254-.05.189-.317.068.252.407-.444-.028-1.189-.421-.115-.067-.113-.037-.138.03-.115.136-.177.412-.141.107-1.037-.105-1.042-.39-.527-.103-.611-.017-.156.057-.216.242-.122.081-.197.047-.082-.007-.081-.038-.467-.127-.544-.216-.286-.076-.593.103-.171.319.047,1.076-.146,1.252-.203.563-.401.504-.055.502-.212.441-.604.79-.315.561-.159.122-.292-.027-.729-.195-.21-.012-.015-.346-.157-.372-.244-.322-.284-.193-.338-.032-.321.112-.862.471v.084l.094.1.08.164.228.66.05.36-.169.244-.241.238-.167.346-.225-.038-.114.133-.05.231-.023.258-.122.176-.221.038-.192.08-.083.833-.226.331-.144.344-.093.573.332.098.284.12.174.389.253.262.055.114v.991l.018.095.069.071.153.2.159.276.035.133.501.109,4.562,2.389,1.288,1.023.399.085,1.125.052.858.291.383-.023.26-.403.185-.434.376.083.569.35.399.537.096.75.033.079.044.311.04.07-.059.174-.201.297-.056.163h-.003s-.27.131-.27.131l-.384.144-.174.167-.099.232.004.183.082.385-.021.22-.111.394-.023.174.085.216.327.283.054.239.419.1.008.179-.202.269-.213.367.118.222.104.362.048.402-.052.34-.169.216-.659.647-.233.184-.333.069-.361-.032-.34.017-.278.222-.056.18.019.171.038.169-.002.172-.09.22-.255.401-.086.202-.004.181.126.286.025.175-.366,1.718.025.211.163.082.179.037.089.071-.034.236-.057.143.011.124.169.183.176.076.343-.038.138.029.26.282.407.731.293.316.509.349.189.087.257.51.217-.085.205-.314.228-.179.232.188-.04.406-.845,2.241-.421.672-.158.363.012.408.173.362.233.209,1.142.368.182.002.139-.065.118-.109.149-.1.228-.036.295.059,1.217.421.146.072.154.039.474-.017.1.089-.003.155-.089.2-.154.178-.465.385-.944,1.007-.234.472-.045.963-.162.534-.011.367.069.211.33.416.181.293.37.884.203.248.486.156.198.189.039.253-.029.364-.068.364-.075.25-.185.287-.196.237-.119.255.042.341.207.541.059.241.071.416.215.396.168.479.076.504-.106.43-.388.259.54.212.207.166.156.692.32.742.072.435-.03.147-.149.246-.047.192.002.182.207.995.094.229.288.497-.25.172.165.391.759.992.146.312.095.369.034.451-.304.38-.005.011v-.014s-.29-.127-.29-.127l.085.269-.051.203-.1.208-.052.285.055.3.243.482.058.231.143,1.195-.082.534-.417.249-.239-.111-.175.031-.086.165.025.297-.287-.15-.566-.403-.274-.083-.119-.185-.056-.384-.102-.322h-.257l-.154.319.1.427.23.375.239.161.245.07.284.171.479.383.348.574.262,1.543.222.69.072.099.348.351.259.575.042.065.052.762-.096.305-.321.151-.191-.011-.148-.069-.102-.11-.034-.138-.051-.118-.11.161-.103.238-.033.106-.339.05-.426-.232-.728-.521-.641-.115-.093-.063-.096-.154-.078-.19-.165-1.432-.105-.332h-.129l-.051.335-.246.606-.058.266.082.331.294.587-.021.298-.25.266-.352.092-.315-.104-.139-.322.294-.254.062-.07.003-.153-.033-.171-.1-.31-.103.369-.078.186-.109.079-.177.031-.086.089-.034.142-.004.188.085.357.161.286.098.268-.106.3-.488.231-.601-.075-.354-.342.255-.574-.594-1.281-.054-.355.325-2.11-.098-.277-.061-.267.351-1.08.04-1.008.09-.264.191-.206.238-.185.199-.23.082-.332-.146-.378-.653-.382-.148-.264.11-.275.266-.31.571-.503-.332.023-.301.152-.25.226-.182.246-.119.267-.034.292.115.236.331.096.212.203-.129.449-.376.691-.057.25-.147.309-.195.174-.204-.155-.187.074-.238.003-.204-.085-.085-.187.025-.277.074-.175.255-.381.124-.331-.016-.257-.066-.265-.065-.542-.096-.412v-.229l.304-.775.296-.205.158-.428-.055-.363-.344-.011.017.113-.089.293-.11.264-.058.024-.035.103-.163.323-.071.358-.153.182-.051.121-.014.122.028.46.096.355.008.209-.098.337-.31.439-.068.3.028.803-.033.333-.544,1.462-.042.344.014,1.138-.014.081.29-.048.397-.173.345.014.153.52-.045.341-.119.399-.187.238-.243-.147h-.119l.136,1.266-.079.467-.294-.21v.962l-.102.256-.232.044-.246-.12-.144-.243-.108.199-.011.205.083.194.165.164-.539.175-.331-.189-.103-.404.133-.47.113-.139.116-.094.09-.119.037-.219.009-.256.038-.237.072-.2.116-.144-.349-1.017-.081-.543.136-.407.351-.594-.033-.536-.263-.497-.352-.482.331-.736.006-.391-.337-.272.073.338-.13.217-.194.226-.117.365.045.345.26.645.062.344-.037.251-.091.028-.119-.028-.122.078-.108.441-.184.342-.075.318-.021.353.045.324.241.525.062.258-.068.359-.208.371-.25.146-.274.095-.286.218-.289-.018-.165-.579-.013-.742.17-.506-.208.044-.28.172-.153.037-.165-.068-.096-.165-.074-.209-.091-.192-.085.148-.028.181.047.191.318.381.065.179-.011.198-.058.256-.174.386-.238.188-.209-.084-.092-.432-.042-2.078-.066-.352-.146-.3-.29-.329-.201-.014.045.435.543,1.836.028.422-.045.206-.178.401-.014.224.074.166.226.203.066.139.024.189-.037.054-.102.042-.187.153-.141.058-.224.024-.204-.015-.089-.067-.058-.401-.147-.405-.228-.21-.28.187-.327-.721-.132-.436-.017-.367.165-.356.226-.377.122-.426-.157-.503.144-.265-.103-.313-.864-1.539.041-.182.052-.155-.221-.988.055-.32.11-.27.14-.228.738-.937.272-.458-.168-.412-.163-.965-.093-.299-.568-.321-.815-.283-.645-.32-.069-.431-.306.204-.283.088-.286-.058-.312-.235-.416-.476-.216-.322-.09-.286-.057-.388-.235-.689-.055-.33-.024-.394-.099-.338-.216-.209-.372-.01v.115l.283.389.225.796.204,1.448.092.284.218.329.462.54.287.205.294.074.556.038.662.143.645.225.493.421.218.74-.16.505-.411.553-.512.471-.46.264h-.628s-.095.064-.095.064l.035.2.066.207.031.194-.068.168-.252.351-.847,1.918-.229.329-.221.141-.17.066-.677.495-.119.037-.052.037-.061.101-.016.198-.033.083-.447.438-.577.4-1.361.699-.902.673-.346.1-.726-.036-.361.027-2.502.688-.158-.306-.551-.847-.099-.255-.052-.267-.007-.27.066-.526.005-.282-.124-.245-.277-.212-2.321-.518-.4-.152-.214-.195-.142-.289-.102-.288-.104-.399-.086-.729-.137-.322-.28-.275-.612-.296-.327-.096-.275.006-.136.103-.117.18-.095.195-.115.169-.156.104-.156.069-.122.099-.099.175-.074.204-.198.093-.286-.108-.46-.54-.158-.374-.038-.288.192-.514.014-.089.002-.17-.016-.219-.066-.364-.027-.087-.054-.104-.154-.207-.28-.241-.478-.315-.887-.376-.28-.06-.264-.013-.23.023-.248-.046-.909-.624-.259-.234-.307-.123-.295-.072-.289-.1-.189-.097-.314-.547.118-.118.232-.162.3-.171.083-.081.09-.005.291.116.196-.002.09-.114.038-.199-.025-.373.079-.122.138-.052.269.027.663-.058.273-.114.05-.142-.072-.15-.3-.292-.251-.2-.232-.224-.097-.318-.032-.622-.104-.317-.28-.312-.223-.166-.541-.278-.117-.11-.086-.139-.079-.253-.023-.184-.004-.101.004-.031.005-.019.016-.025.048-.064.095-.006.339.066.167-.006.108-.059.039-.117-.007-.123-.031-.145-.137-.344-.162-.251-.235-.25-.42-.268-.295-.092-.796-.014-.253-.079-.237-.159-.176-.277-.115-.253-.135-.901-1.087-.913-.445-.257-.138-.017-.142.031-.226-.008-.3-.047-.925-.742-.075-.269.014-.25.081-.5.007-.443.022-.185.165-.413.059-.207-.016-.178-.063-.203.004-.179.075-.144.463-.386.198-.092.25-.067.275-.032.212-.052.102-.044.083-.09.011-.081-.059-.069-.14-.055-.3-.01-.163-.055-.075-.016-.02-.017-.012-.011-.054-.032-.149-.031-2.371-.082-.93-.211h-.738s-.181.112-.181.112l-.255.115-.259.038-.251-.1-.366-.323-2.125-2.336-.318-.235-.336-.187-.393-.077-.304-.023-.736.263-.203.062-.05-.061-.092-.201-.036-.221-.122-.412-.557-.563-.162-.379.05-.42.196-.45.268-.419.268-.329.102-.179.047-.217.029-.438.07-.216.09-.137.011-.125-.171-.177-.113-.041-.544.041-.099-.079-.079-.172-.11-.172-.131-.103-.013-.308.054-.172.059-.071.357-.191.93-.179.278.017.408-.02.938-.163.146-.051.101-.082.092-.203-.025-.172-.226-.639-.018-.135.032-.115.088-.151.144-.154.158-.094.251-.008.3.088.729.448.535.007.093.367-.19.842-.036.251.004.031.012.039.07.089.135.079.259.032.149.052.472.218.331.208.181.227.237.111.259-.006.525-.191.512-.458.196-.122.171-.18.079-.071.029-.039.016-.013.03-.039.07-.109.065-.186.018-.218-.005-.235.027-.222.102-.26.219-.267.329-.301.532-.35.835-.416,1.458-.408.708-.324,1.094-.368,2.049-.337.621-.203.314-.464.079-.505-.113-.368-.079-.192-.023-.114-.005-.105.093-.351.118-.231.092-.13.332-.232.16-.205.038-.075.034-.099.031-.138.056-.127.09-.118.129-.088.219.02.304.118.898.618.365.174.284.034.201.004.135.043.372.387.343.256.399.195.907.228.598-.134.07-.251-.032-.111-.09-.158-.298-.282-.117-.137-.038-.147.036-.105.093-.091.167-.034.187.028.365.107.185.028.151.045.133.113.21.314.129.009.151-.095.092-.267.03-.208-.011-.407.048-.152.093-.084.199.003.146-.108.122-.234.043-.241-.038-.268-.118-.213-.338-.276-.075-.12-.016-.116v-.138l-.075-.1-.275-.254-.097-.154.025-.12.146-.127.334-.118.814-.193.129.012.124.097.097.159.049.225.016.251.047.188.07.092.102.017,1.027-.408.356-.01.503.137.201-.059.241-.269.169-.116.122-.126.043-.172-.022-.486.045-.309-.099-.497.029-.157.16-.111.155-.036.185.025.215.113.383.363.201.033.153-.104.171-.359.086-.24.043-.409.083-.144.198-.069.534.074.257-.025.185-.127.032-.269-.185-.351-.119-.087h-.079s-.113.056-.113.056l-.102.018-.077-.063-.022-.138v-.185l-.025-.202.032-.186.135-.169.372-.143.23-.063.447-.31.499-.403.23-.32.729-1.606.07-.307-.023-.2-.054-.18.016-.167.072-.142.155-.154.084-.111.075-.166.034-.119-.007-.141-.049-.13-.151-.216-.025-.141.065-.544-.032-.135-.115-.09-.185-.076-.206-.061-.129-.109-.027-.116.115-.113.178-.044.251.034.187.061.178.09.153.101.192.098.207.043.25-.007.26-.06.226-.113.187-.165.118-.134.09-.314-.208-.113h-.111s-.135-.055-.135-.055l-.065-.093.057-.182.126-.109.176-.111.079-.114.002-.161-.113-.203-.102-.117-.07-.138-.027-.163-.011-.252-.036-.188-.119-.205-.118-.269-.056-.082-.081-.06-.397-.056-.124-.042-.102-.071-.086-.159-.025-.187.084-.174.137-.042.122.039.181.124.129.023.097-.05.043-.121.022-.085.07-.971.083-.207.216-.31.048-.253-.018-.449-.059-.445-.323-1.335-.162-.415-.095-.208-.147-.106-.665-.699-.083-.054-.099-.018-.102-.045-.083-.132-.02-.124.023-.279-.004-.13-.102-.443-.029-.216.013-.265.066-.217.1-.143.077-.159.004-.264.58-.622.365-.594.016-.201-.171-.265-.138-.396-.077-.349-.054-.119-.119-.146-.14-.209-.043-.042-.063-.019-.066.004-.119.042-.066.01-.059-.015-.049-.038-.029-.052-.065-.197-.057-.13-.038-.052-.048-.039-.185-.074-.048-.04-.02-.061.031-.081.072-.085.171-.126.081-.085.049-.077.016-.064.007-.066-.005-.059.314-.188.578-.217.532-.262.23-.143.113-.143.147-.262.005-.006.005-.005.027-.018.09-.046.645-.206.352-.209.225-.167.332.11.239.192.027.071.005.132.266.124,1.071.194-.038-.296-.005-.255-.038-.091-.066-.102-.147-.146-.075-.098-.052-.086.016-.188.14-.53.081-.567-.002-.137-.02-.118-.088-.35-.07-.445-.063-.178-.172-.253-.483-.374-1.087-.471-.18-.306-.377-.265-.111-.157-.115-.254-.084-.338-.097-.175-.081-.105-.076-.073-.226-.41-.176-.114-.532-.25-.329-.208-.077-.098-.047-.083-.016-.074-.022-.067-.029-.061-.092-.167-.022-.077-.009-.102.036-.144.065-.081.131-.054.178-.045.059-.063.047-.101.129-.562.066-.176.027-.214-.018-.257.002-.003v-.006l.041-.195.14-.226.485-.517,1.205-.959.584-.757.158-.144.108-.023.119.003.122.015.124-.017.172-.077.375-.39.163-.116.352-.154.21-.148.314-.352.359-.296.623-.75.226-.227.226-.161.494-.155.194-.113.539-.527.219-.115.223-.042.278-.005.081-.021.052-.052.039-.096.025-.152-.004-.158-.072-.171-.128-.148-.235-.137-.334-.141-.086-.1-.013-.146.07-.141.108-.093.178-.1.072-.055.068-.092-.063-.127-.137-.178-.58-.587-.167-.132-.198-.065-.135-.074-.158-.141-.076-.08v-.002l-.005-.024.022-.215.167-.524-.041-.144-.163-.045-.762.275-.334.079-.158.014-.3-.095-.304-.071.253-.828.781-1.533.291-.85.072-.385.027-.367-.022-.366-.153-.767-.065-.834-.068-.333-.149-.302-.389-.59-.15-.3-.26-.679-.347-.63-.364-.509-.228-.212-.268-.124-.311-.2-.316-.696-.275-.265-.083-.148-.027-.156.029-.164.254-.566.067-1.361.266-.598.322.131.226.255.58.394.135.198.066.183.014.385.043.197.075.151.205.161.305.095.528.013.78-.11.69.125,1.798.741.115.145.093.069.154.055.248.01.555-.121.354-.176.411-.284,1.223-1.199.422-.036,1.237.193.885-.101.126.042.375.313.453.173.235-.053h.003ZM130.156,112.714l.272.111.235.172.161.249.045.343-.103.329-.212.042-.279-.028-.3.119-.413-.155-.137-.844.182-.68.549.343ZM115.865,110.671l.686-1.921.509-.947.477-.192.352,1.943-.062,1.116-.536.381.205.505.028.261-.115.25-.163.082-.201-.033-.468-.165-.488-.002-.204-.092-.15-.298-.016-.196.03-.236.115-.456ZM126.043,106.652l.242-.113.228.114.127.258-.062.318-.204.442-.106.451-.049,1.013-.175-.089-.636-.204-.136-.014-.023-.158-.096-.255-.011-.171.034-.135.215-.5.31-.523.344-.437ZM116.392,107.993l-.15-.138-.021-.314.049-.345.059-.232.129-.316.165-.304.199-.18.229.048.238.457-.132.592-.348.512-.419.22Z"/>
    <path class="cls-1" d="M116.5,19.105l.304.071.3.095.158-.014.334-.079.762-.275.163.045.041.144-.167.524-.022.215.005.024v.002l.076.08.158.141.135.074.198.065.167.132.58.587.137.178.063.127-.068.092-.072.055-.178.1-.108.093-.07.141.013.146.086.1.334.141.235.137.128.148.072.171.004.158-.025.152-.039.096-.052.052-.081.021-.278.005-.223.042-.219.115-.539.527-.194.113-.494.155-.226.161-.226.227-.623.75-.359.296-.314.352-.21.148-.352.154-.163.116-.375.39-.172.077-.124.017-.122-.015-.119-.003-.108.023-.158.144-.584.757-1.205.959-.485.517-.14.226-.041.195v.006l-.002.003.018.257-.027.214-.066.176-.129.562-.047.101-.059.063-.178.045-.131.054-.065.081-.036.144.009.102.022.077.092.167.029.061.022.067.016.074.047.083.077.098.329.208.532.25.176.114.226.41.076.073.081.105.097.175.084.338.115.254.111.157.377.265.18.306,1.087.471.483.374.172.253.063.178.07.445.088.35.02.118.002.137-.081.567-.14.53-.016.188.052.086.075.098.147.146.066.102.038.091.005.255.038.296-1.071-.194-.266-.124-.005-.132-.027-.071-.239-.192-.332-.11-.225.167-.352.209-.645.206-.09.046-.027.018-.005.005-.005.006-.147.262-.113.143-.23.143-.532.262-.578.217-.314.188.005.059-.007.066-.016.064-.049.077-.081.085-.171.126-.072.085-.031.081.02.061.048.04.185.074.048.039.038.052.057.13.065.197.029.052.049.038.059.015.066-.01.119-.042.066-.004.063.019.043.042.14.209.119.146.054.119.077.349.138.396.171.265-.016.201-.365.594-.58.622-.086-.257-.149-.18-.178-.125-.18-.09-.408-.065-.781.118-.375-.184-1.058-.222-.174-.193-.124-.25-.198-.259-.21-.161-.146-.063-.172-.025-.068-.067-.216-.072-.25.168-.666.589-.192.349-.07.272-.016.16-.232.143-.092.134-.108.507-.113.262-.291.143-.251-.056-.273-.114-.221-.125-.142-.011-.122.061-.113.075-.081.033-.386.019-.221.063-.185.185-.155.469-.039.362-.257,1.118-.079.156-.124.02-.411-.169-.241-.015-.542.202-.199.155-.402.424-.395.572-.118.293-.07.294.077,2.042-.045.24-.124.228-.163.222-.296.563-.137.174-.113.115-.054.081.054.153.083.19.027.288-.189.873.048.598-.239.685-.066.265-.032.4-.135.164-.217.083-.289-.038-.904-.364-.62-.16-.133.017-.043.293-.266.396-.162.225-.016.147.038.378-.036.101-1.333-.428-.552-.443-.233-.136-.221-.066-.18.025-.124.114-.172.394-.445.235h-.219l-.401.102-.304-.005-.352-.195-.375-.159-.377-.003-.859.87-.568.475-.16.206-.16.656.014.66-.189.139-.133.061-.086.154-.023.157.038.189-.025.197-.088.205-.124.174-.192.052-.388-.218-1.065-.823-1.367-.75-.095-.211.027-.162.451-.516.088-.18.02-.176-.075-.614-.065-.188-.106-.172-.49-.043-.672-.269-.172.044-.388.239-.295.012-.339-.071-.316-.256-.19-.211-.14-.31-.172-1.419-.174-.358-.282-.202-.295-.106-.275-.008-.192-.025-.083-.077.086-.19.108-.173.048-.155-.117-.198-.383.133-.287.264-.735.493-.83.09-.794-1.013-.291-.242-.318-.123-1.475.017-.246.066-.232.243-.178.288-.128.268-.07.247-.056.559-.084.254-.14.195-.444.128-.138.062.002.101.068.149.106.17.05.176.036.217v.7l-.097.214-.228.143-.415.004-.304-.064-.257-.081-.16-.005-.077.231-.07.084-.171.151-.061.102-.524.501-.162.04-.201-.071-.178-.092-.224-.024-.345.059-.41.019-.826-.081-.293.186-1.379.161-.253.074-.054.121-.023.142-.084.121-.18.099-1.564.586-.187.182-.04.172.04.175-.043.141-.145.146-.241.184-.659.646-.149.043-.113-.125.007-.193.097-.467-.023-.144-.113-.046-1.133.408-.287.204-.296.156-.354.084-.914-.1-.23-.159-.115-.204-.171-1.023-.05-.184-.135-.07-.158.072-.271.054-.151-.084-.167-.892-.216-.198-.255-.024-.201.129-.172.143-.264.145-.246.181-.753.415-.28.239-.225.366-.183.557-.124.134-.221-.003-.366-.094-.199-.01-.167-.095-.149-.111-.102-.053-.07.04-.081.192-.111.197-.409.371-.081.196-.04.171-.048.131-.359.35-.203.082-.189.028-.212-.022-.217-.085-.302-.247-.129-.148-.108-.191-.113-.157-.431-.337-.499-.257-.253-.196-.235-.246-.244-.371-.424-.427-.043-.152.113-.232.118-.134-.011-.617-.183-.379-.151-.15-.21-.06-.129.046-.176.214-.12.051-.117-.027-.131-.096-.133-.052-.119.028-.108.065-.154.03-.223-.042-.16.024-.097.06-.022.148.032.381-.029.159-.106.101-.144.016-.137-.072-.068-.171.005-.175-.023-.147-.076-.091-.138-.013-.083.061-.03.116-.002.152-.022.167-.063.156-.104.104-.155.026-.189-.083-.219-.197-.199-.372-.345-1.102-.553-1.174-.248-.208-.138-.08-.11.044-.065.074-.241.628-.043.083-.05.076-.065.067-.167.112-.23.114-.208.326-.271.194-.345.093-.672.047-.334.096-.187.023-.16-.022-.368-.097-.183-.023-.365.099-.35.447-.305.103-.943.04-1.02-.208-1.712-.267-.271.03.036-.548-.086-.649.038-.443.052-.247-.036-.18-.189-.419-.027-.134.023-.152.325-.536.016-.195-.036-.238-.108-.381-.1-.173-.156-.127-.643-.157-.244-.106-.232-.143-.207-.173-.149-.188-.345-.559-.102-.103-.113-.069-.171-.055-.377-.374-.093-.225-.036-.247.048-.174.065-.118.07-.221.041-.312.016-.712-.041-.567-.013-.045-.063-.156-.388-.564-.192-.379-.056-.183-.005-.21.043-.204.076-1.071.077-.513.059-.204.065-.159.079-.141.198-.265.255-.268.21-.174.557-.353.936-.433.237-.137.555-.432.286-.171,2.4-1.391,1.821-1.081.46-.367.079-.228.095-.191.11-.08.647-.225.557-.288.302-.239.072-.166.169-.213,1.108-.767.374-.363.952-1.256,1.482-1.198.632-.187.575.344.038.126.004.246-.02.179-.016.09-.005.105.009.115.023.12.036.113.045.102.052.092.065.075.066.065.156.106.086.043.115.044.147.033.296.005.242-.043.338-.115.155-.089.102-.087.04-.085.027-.095.004-.111-.011-.117-.02-.116-.029-.113-.21-.53.034-.43.199-.122.235-.08.282-.151.293-.087.259.109.548.55.329.23.451.13.273.162.12.052.21.032.442-.022.203-.056.11-.043.756-.569.113-.063.147-.166-.023-.272.194-.243.034-.249-.032-.091-.088-.158-1.284-1.196-.21-.092-.296-.015-.562.036-.235-.08-.641-.376-.131-.123-.081-.254-.19-.28-.219-.226-.167-.093-.51-.003-.208.036-.602.191-.32.03-.322-.081-.311-.238-.228-.251-.084-.131-.102-.209-.156-.626-.081-.162-.167-.083-.196-.01-.162-.048-.126-.379-.142-.242-.176-.211-.164-.089-.196-.054-.377-.257-.205-.083-.147-.012-.244-.164-.153-.064-.462-1.125-.278-.422-.422-.304-.172-.171-.063-.175.011-.189.059-.146.074-.118.086-.083.066-.049.108-.057.268-.077.995-.084.165-.047.108-.065.206-.182.101-.07.119-.041.118-.005.176.03.147.043.365.042.323-.199.022-.058.007-.095-.277-.386-.14-.303-.027-.182.022-.155.28-.429.118-.287.005-.223-.036-.12-.113-.067-1.288-.277-.302-.144-.327-.203-.474-.446-.242-.183-.176-.083-.092.03-.076.063-.074.087-.075.061-.124.071-.172.055-.203.025-.242-.015-.237-.059-.264-.148-.108-.181-.029-.204.022-.301.005-.02.002-.608.036-.142.065-.122.12-.076.111-.018.086.031.065.067.048.093.032.124.027.145.038.13.056.07.07.023.074-.034.065-.062.21-.348.068-.092.054-.043.066-.035.702-.158.185-.072.149-.098.108-.136.11-.193.084-.191.156-.633.101-.254.108-.143.119-.089.126-.027.546.01.291-.068.18.005.467.148.656.106,2.667-.021.185-.146.005-.101-.022-.141-.075-.147-.12-.157-1.306-1.295-.219-.151-.18-.066-.151-.006-.312.033-.18-.055-.077-.125-.031-.169.122-.957.007-.285-.021-.332-.097-.402-.119-.208-.137-.128-.162-.06-.155-.026-.178.003-.172.035-.156.07-.118.082-.122.11-.108.077-.169.004-.462-.334-.205-.227-.21-.115-.208-.077-.278-.163-.189-.298-.566-1.177-.002-.052.032-.548-.016-.267-.079-.303-.133-.187-.304-.243-.106-.177-.217-.557-.135-.159-.413-.311-.118-.194-.054-.201.013-.489.059-.321v-.32l-.223-.386-.095-.116-.198-.164-.147-.096-.235-.221-.086-.137-.029-.125.14-.529.011-.199-.047-.081-.119-.038-.593.066-.02-.046.014-.072.04-.1.038-.161v-.002s.022.022.022.022l.124-.184.101-.075.171-.065.005-.159-.069-.198-.043-.182-.495-.557-.15-.311.338-.135.806-.056.385-.114.017-.005.225.076.693.124.553-.021.369-.252.881-1.087.347-.143.306.07.076.357.164.167.187.11.418.167.162.179.187.474.163.05.526-.085.234.18.172.364.327.465.377.242,4.999.916.513.361.441.65.283.706.164.725.038.744-.094.772-.172.42-.246.445-.154.443.101.417.225.158,2.093.57.196-.003.235-.18.286-.102.27.061.185.304.003.002.408.247.866.29.391.223.252.37.099.405.147.351.401.208.215.06.22.03.299.151-.021.294.03.26.442.04.977-.383.393-.042.681.284.061.586.003.669.508.53,1.605.424.262-.007.603-.183.281-.209.037-.045.241-.292.289-.26.301.016.319.096.314-.098.627-.339.761-.41,1.375-.542.188.065,1.362.759.244.295.136.661-.128,1.432.185.682.246.302.938.742.156.042.175-.071.168-.045.137.122.033.163.004.17.032.151.12.108.282-.046.375-.221,1.187-1.024.304-.177.409-.045.62-.195.527.174,1.199.748.09.081.108.044.395-.024.027.003.109.014.263.078.116.064.083.091.106.081.182.034.122-.037.387-.248.659-.226.371-.057.294.058.126.133.007.274.121.136.125.017.376-.049h.154l.521.189,1.063.575.533.215.338.08.273.149.238.214.233.275h.004l.347.21,1.172.535,1.214.735.32.071.182-.143.115-.228.13-.192.238-.035.614.24.16.03.442-.128.426-.28.336-.382.179-.434.542-.32.487-.17.648-.226.222-.168.525-.547.251-.209.198-.008.054.368.01.327.199.954h.004l.174.565.288.648.4.528.499.203.929-.104.533-.165.18.18.119.298.156.252.228.141.731.327.235.043.212-.184.325-.695.199-.277.483-.288.56-.161.577-.032.534.101,1.246.708.607.168.643-.287.43-.33.189-.145.374-.13.285.154.232.205.289.037.255-.13.126-.294.117-.409.223-.088.295.106.322.167.298-.003.53-.447.308-.077.015.076.418.343.044-.01.082.158.113.337.109.184.247.228.56.337.248.239.542-.064.655-.691.519-.932.14-.79-.054-.242.012-.197.127-.416Z"/>
    <path class="cls-1" d="M105.904,112.378l-.15.041-1.109.46-1.098.451-.84.163-.649-.155-.177.101-.187.038h-.413s-.182.047-.182.047l-1.527.818-.857.612-2.539,2.74-.881,1.323-.516,1.508.117,1.713,1.88,4.313.235.797-.205.469-.306-.128-.344-.01-.656.138.184.298.371.149.809.059.396-.043.115.068.144.238.089.198.031.171-.054.145-.175.127-.223-.119-.253-.04-.225.07-.14.204.204.018.161.036.127.072.1.125.129-.018.083.018.065.081.081.171.426-.178.243-.181.171-.144-.273.338-.416.418-.475.354-.922.298-2.59,2.026-.395.42-.306.497-.161.558-.072,1.17.373-.204.25-.262.233-.128.329.195-.009-.234.027-.219.11-.417.238.41-.272.681-.45.64-.293.283-.212.071-.339.168-.314.208-.139.181.139.171.314-.13.607-.418-.646.507-1.551.952-.771.314-.863.223-.395.16-.284.246-.082.184-.201.823-.18.369-.024.269-.905,1.073-.41.296.092.189.129.135.172.069.212-.006-.505.3-.849-.478-1.269-1.076-.766.046-.385-.032-.164-.208-.065-.043-.399-.403-.079-.202-.093-.398-.076-.153h-.108l-.13.389.161.589.076.165.157.149.348.171.451.391.287.131.666.163.085.004.195-.024.076.019.072.092.016.105v.097s.031.07.031.07l.122.138.09.129.119.096.204.037.259.091.259.174.277.1-1.805,1.004-2.728,1.004-.392.211-.185.012-.202-.155-.175-.09-.175.08-.15.133-.102.069-.322.045-2.167.663-.738.131-.656.412-.344.141-.187.019-.585-.019-.174.038-.339.172-.526.119-1.048.535.03-.079.174-.069.034-.092-.412.068-1.131.685-1.194.446-.411.055-.12-.062-.041-.146-.013-.293-.064-.034-.109.02-.112-.007-.072-.105.013-.122.081-.015.091.005.042-.061.201-.152.464-.139.772-.279.062.093-.037.098-.079.131-.068.192.762-.495.307-.142-.154-.091-.076-.112.015-.137.108-.161-.055-.339.055-1.542-.229-.113-.733-.138-.663-.215-.23-.034-.407.123-.414.302-.726.771-.955.811-.267.018-.242.05-.212.08-.174.102-.369.319-.45.488-.306.528.055.431-.289.235-.257.625-.167.204-.267.226-.174.31-.014.308.209.22v.137l-.212.059-.283.148-.243.184-.105.172.028.27.074.148.117-.013.148-.218.082.181.025.198-.027.197-.081.177.204-.06.105-.101.069-.116.098-.098.192-.085.151-.018.129.003.122-.025.301-.21-.017-.182-.098-.209.051-.286.123.112.143.013.158-.049.167-.076-.512-.301-.187-.063v-.126l.345-.006.187-.167.156-.208.26-.131v-.114l-.099-.038-.079-.065-.051-.094-.02-.126.054-.051.199-.327-.004-.061.229.008.84.254.721-.65.229-.007.184.061.151-.025.146-.267.134.21.069.144.031.172.006.293-.054.036-.235.105-.071.042-.042.09-.031.21-.043.086-.165.125-.28.159-.27.061-.116-.163-.064-.254-.14-.013-.127.166-.034.284-.098-.045-.168-.038-.093-.031.245.268.058.119-.051.114.481-.046,4.274-2.095-.629.386-1.336.707-1.445.683-.757.342-.891.713-.779.334-1.045.789-1.928,1.884-1.28.894-2.151,1.893-1.409,1.816-.23.08-.062-.435-.059-.126-.135-.174-.145-.06-.19-.033-.614-.004-.241.02-.156.055-.072.078.029.113.054.118.032.11.025.167-.041.248-.104.209-.198.189-.142-.002-.081-.062-.086-.086-.181-.04-1.295.625-.189.129-.537.481-.201.058-.221-.009-.203-.041-.237-.017-.102.051-.043.089.029.13.088.212.007.109-.002.013-.142.249-.049.131-.013.118.029.09.047.072.032.084-.027.111-.081.134-.614.765-.16.053-.155-.008-.19-.033-.118.051-.095.115-.158.504-.138.322-.296.395-.273.206-.318.132-1.114.071-1.243.316-.348.049-.156-.044-.242-.188-.156-.07-.462-.015-.183-.063-.162-.135-.216-.08-.291-.01-.988.209-.839-.028-.819.052-.092-.049-.138-.117-.072-.044-.068-.059-.05-.08-.092-.184-.102-.157-.122-.137-.054-.077-.047-.089-.072-.206-.187-.559-.18-.24-.054-.099-.138-.758-.28-.694-.375-.17-.146-.008-.142.007-.129.056-.117.094-.011.013-.038.099-.03.116-.005.147.036.161.041.123.034.139.014.169-.057.234-.079.096-.104.015-.108-.082-.106-.186-.336-1.049-.086-.191-.25-.388-.708-.785-.14-.211-.255-.501-.189-.27-.14-.028-.11.076-.084.182-.07.226-.043.235-.102.212-.149.191-.325.104-.14.104-.108.127-.144.439-.113.211-.113.111-.165.06-.099-.037-.07-.133-.09-.435-.066-.213-.102-.172-.149-.146-.199-.083-.108.074-.032.152.178.621-.011.153-.048.125-.219.164-.016.026-.005.01-.002.007.081.149.032.101-.014.182-.088.154-.246.12-.205-.045-.372-.278-.189-.114-.415-.128-.208-.116-.047-.036-.199-.064-.172.01-.158.031-.151.048-.241.149-.023.159.018.116.075.105.101.09.077.095.07.146.097.318.054.1.356.456.086.058.072.022.086.002.097.013.088.024.048.058.059.208.041.091.075.07.092.041.07.058.018.12-.056.174-.208.186-.244.117-.374.108-.266.156-.551.421-.433.411-.275.206-.957.433-.189-.023-.154-.11-.16-.175-.196-.099-.192-.045-.226.035-.189.115-.305.295-.199.263-.383.671-.181.262-.205.233-.436.415-.04.086-.009.123.004.142-.027.171-.048.16-.025.147.032.139.264.393.129.335.058.081.108.019.291-.036h.097s.059.044.059.044l.043.054.027.247-.817,1.017-.061.138-.057.21.07.103.092.098.065.167.02.238-.081.486-.16.153-.18.054-.224-.018-.138.015-.178.065-.636.317-.151.026-.681.025-.163-.04-.111-.09-.059-.144v-.151l.048-.315-.038-.143-.124-.094-.298-.019-.208-.076-.183-.149-.172-.115-.221-.06-.359.05-.178.095-.095.135.014.189.109.435-.016.23-.077.219-.171.244-.199.129-.526.199-.562.379-.303.164-.18.132-.113.127-.049.155-.079.425-.066.186-.167.196-.117.011-.232-.128-.149-.03-.21-.009-.142-.037-.118-.079-.076-.121-.043-.167.005-.186.04-.207.225-.505.034-.135v-.148l-.045-.142-.079-.151-.093-.129-.111-.118-.866-.766-.196-.248-.106-.212-.02-.213.049-.366-.007-.147-.025-.108-.054-.11-.023-.096-.005-.145.011-.152-.004-.117-.07-.156-.088-.027-.181.03-.158-.031-.197-.093-.307-.087-.189.052-.156.16-.21.539-.135.261-.612.744-.074.122-.029.091.029.33v.253l-.048.279-.253.659-.027.133.014.096.137.294.02.182-.074.25-.113.218-.571.883-.102.216-.031.195.054.141.178.193.521.382.102.149.027.14-.075.149-.164.104-.206.095-.076.149.014.232.077.322.043.277-.032.246-.109.158-.183.05-.453-.04-.284.056-.16.139-.108.228-.07.232-.124.183-.18.082-.181-.03-.14-.06-.106-.025-.126-.006-.262.016-.21-.023-.018-.009-.298-.325-.239-.192-.3-.181-.69-.201-.866.12-.816.605-.647.128-.602.049-1.71,1.131-1.151.527-.339.205-.251.234-.146.206-.212.224-.241.108-.604.076-.269.156-.305.254-.289.307-.481.262-.357-.117-.584-.365-.226-.051-.147.038-.077.113-.111.315-.086.143-.124.095-.124.005-.217-.059-.178-.077-.972-.217-.054-.219-.004-.331.045-.312.016-.328.012-.103.041-.094.092-.079.099-.027.086.017.079.042.135.109.072.043.086.017.084-.017.081-.043.054-.096.032-.133.004-.242.023-.179.043-.173.106-.227.077-.123.128-.162.059-.124.059-.207.076-.412.002-.619-.027-.151.005-.129.032-.143.092-.177.135-.194.063-.063.061-.082.056-.104.172-.586.04-.321.081-.27.031-.181-.022-.157-.145-.269-.027-.092-.014-.099.016-.119.041-.128.097-.186.131-.207.23-.6.102-.111.092-.022.075.031.128.029.163-.011.323-.093.876-.366.155-.098.099-.1.21-.393.088-.089.124-.072.151-.057.447-.075.146-.056.133-.101.129-.151.551-1.007.348-.459.215-.198.677-.517.447-.555.35-.34.411-.329.19-.107.149-.063.14-.079.108-.165.022-.217-.111-.264-.137-.127-.318-.178-.128-.096-.083-.109-.022-.093.016-.129.109-.133.124-.051.156-.013.133-.032.129-.079.12-.131.235-.349.133-.154.178-.147.18-.117.154-.071.124-.033.677-.049.253-.071.187-.134.12-.191.257-.612.065-.092.059-.033.065.011.07.045.207.228.158.106.199.036.075-.343.12-.305.043-.075.032-.083.162-.826.014-.556.027-.122.05-.089.118-.13.052-.071.041-.076.059-.068.072-.057.442-.233.101-.03.077-.123.059-.219-.043-1.139.005-.162-.012-.183-.063-.168-.259-.405-.102-.212-.05-.471-.047-.16-.124-.151-.404-.275-.086-.127.016-.183.118-.404.022-.207-.047-.233-.228-.415-.076-.205-.048-.227-.005-.346.048-.255.086-.243.307-.649.016-.182-.057-.16-.172-.167-.291-.186-.092-.101-.022-.098.076-.163.117-.109.296-.186.092-.105.023-.157-.043-.184-.151-.237-.136-.12-.146-.072-.433-.107-.11-.041-.086-.063-.074-.103-.28-.637-.088-.151-.108-.097-.138-.057-.499-.097-.108-.109-.05-.172.054-1.41.12-.543.027-.238-.032-.267-.131-.451-.068-.35.014-.379.169-.743-.029-.19-.122-.172-.156-.101-.147-.054-.584-.061-.162-.054-.151-.095-.097-.141-.192-.516-.11-.178-.135-.137-1.462-.835-.21-.167-.156-.174-.122-.204-.059-.198-.011-.192.038-.19.07-.181.71-1.311.133-.177.194-.08.323-.2.56-.66.171-.126.092-.017.124.034.149.112.846.977.086.164.027.112-.013.118.022.115.097.095.19-.004.129-.04.1-.07.061-.101.144-.344.059-.104.081-.11.084-.066.076-.021.108.009.066.016.097.042.095.075.532.512.248.186.135.128.081.105.032.079.021.077.034.095.036.064.072.064.106.043.178.005.392-.065.113.029.135.106.183.262,1.076,2.254.135.177.119.057.149-.052.102-.146.242-.486.081-.123.061-.081.095-.091.111-.074.135-.061.162-.028.19-.01,1.643.249.223.082.438.247.212.076.666.018.16.035.093.078-.022.177-.048.158-.038.187-.005.178.031.259-.005.162-.014.132.014.073.022.053.304-.019.145-.101.665-.56.19-.112.181-.083.375-.128.164-.112.28-.265.086-.117.009-.11-.074-.134-.312-.291-.05-.074-.047-.09-.018-.144.016-.195.237-.901.032-.253-.009-.208-.072-.331-.022-.045-.043-.017-.075-.017-.397-.048h-.208s-.099.016-.099.016l-.079.023-.077.047-.027.024-.189.131-.142.054-.12.015-.129-.04-.092-.045-.074-.057-.075-.078-.201-.267-.101-.084-.117-.057-.136-.034-.133-.007-.704.048-.242-.022-.086-.029-.076-.044-.275-.264-.11-.081-.85-.39-.054-.184.016-.301.352-1.208.038-.271v-.461l-.137-.786-.014-.967-.07-.224-.072-.151-.081-.111-.047-.118-.002-.343.18-1.522-.027-.435-.048-.201-.097.043-.081.068-.093.059h-.095l-.09-.09-.076-.148-.077-.329-.02-.285-.007-.028-.079-.103-.065-.006-.065.033-.045.051-.043.041-.047.015-.027-.004-.011-.006-.268-.546-.061-.242.002-.255.3-1.261.092-.274.068-.325.016-.225-.011-.241-.049-.23-.068-.203-.172-.384-.065-.199-.043-.195-.038-2.086.022-.111.047-.104.056-.08.068-.07.118-.034h.088s.521.133.521.133l.106.052.066.062.031.07v.073l-.027.221.002.099.041.099.059.062.086.029.118-.014.269-.091.266-.136.165-.158.172-.216.257-.465.189-.28.278-.303.137-.107.095-.05.174-.015.178-.117.242-.279.778-1.29.354-1.051.293-.432.048-.355-.07-.237-.002-.077.034-.075.076-.085.133-.067.199-.053,1.467-.085.153.037.138.076.099.099.124.069.144-.002.122-.042.226-.124.205-.072.336-.062.348-.013,1.789-.308.216.043.21.139.118.146.097.094.129.089.172.064.199.049.155.061.151.107.255.278.119.073.153.041.885-.063.251-.05.221-.099.307-.26.212-.25.21-.352.503-1.428.122-.22.397-.534.045-.173-.013-.108-.047-.062-.018-.051.002-.091.031-.138.059-.164.093-.191.102-.157.133-.135.185-.015.192.017.76.33.144.047.138.03.169.002.156-.047.097-.135.052-.21-.014-.358-.045-.23-.065-.187-.101-.131-.593-.549-.117-.15-.081-.169-.045-.192-.02-.449.025-.21.129-.387.129-.55.013-.193.151-.32,1.6-2.627.259-.547.075-.337.011-.454.052-.176.109-.134.23-.024.137.043.111.082.097.096.086.006.075-.064.061-.205.011-.294.043-.07.099-.061.323.025.11-.022.075-.029.135-.347-.077-.3-.014-.101.031-.159.153-.446.027-.163-.018-.126-.074-.096-.131-.108-.499-.289-.155-.127-.102-.14-.043-.171.004-.182.086-.698.072-.151.115-.127.298-.167.187-.065.142-.083.108-.117.02-.175-.038-.12-.081-.104-.081-.077-.181-.204-.07-.127.043-.211.144-.308.841-1.242.318-.323.284-.187.42-.219.999-.374.199-.135,1.453-1.312.429-.3.618-.197.72-.068.234-.05.242-.107.172-.141.498-.59.083-.127.059-.137.038-.134.03-.168.011-.21-.036-.322-.077-.267-.347-.613-.043-.122.036-.314.647.147.497.247.539.35.995,1.362.11.273.111.21.187.265.535.419.178.071.122.015.375-.014.233.06,1.076.545.316.078,1.69-.088.219-.042,1.108-.585.111-.08.109-.105.063-.083.05-.15.02-.147-.009-.187.011-.15.054-.12.149-.083.232-.03,3.538-.08.253-.064.16-.088.077-.1.122-.09.167-.052.388-.034.291.039,1.06.263.517.225.138-.023.09-.031.28-.302.113-.078.146-.041.537-.055.081-.035.873-.564.474-.389.386,1.058.219.984.076.681v.498l-.101.488-.097.27-.097.188-.83,1.191-.541,1.21-.167.28-.118.166-.126.277.018.114.084.049.21-.04.684-.253.135-.022.203-.006.303.041.32.104.196.093,1.354.911.365.426.119.106.092.036.093-.026.113-.09.796-.932.805-.771.19-.108.763-.271.296-.203.242-.077.264-.046.201.005.205.032.217.082,1.557.943,1.024.288.805.139.404.165.108-.022.356-.194.208-.082.287-.079.21-.094.165-.112.187-.178.239-.157.205-.074.106.057.059.168-.02.201-.07.175-.243.318-.061.146-.011.151.005.192-.02.258.052.326.07.192.862.48.751-.186.345-.215.329-.27.83-1.184.128-.225.048-.129v-.128l-.02-.139-.007-.273.07-.304.14-.415.063-.289-.025-.264-.269-.501-.117-.305.011-.342.108-.224.322-.478.054-.291.004-.352-.117-1.091-.07-.322-.133-.257-.428-.528-.167-.286-.063-.334.005-.169.009-.077.007-.015.009-.011.118-.095.347-.14.14-.035.255-.031.104-.024.059-.023.133-.099.266-.44.167-.094.167-.07.176.017.129.068.128.118.656.856,2.877,1.453.374.25.264.224.313.529.174.225.232.237.347.26.304.127.314.06.305-.015.253-.043.661-.223.259-.033.183.04.155.072,1.67,1.083.772.709.693.314.314.547.189.097.289.1.295.072.307.123.259.234.909.624.248.046.23-.023.264.013.28.06.887.376.478.315.28.241.154.207.054.104.027.087.066.364.016.219-.002.17-.014.089-.192.514.038.288.158.374.46.54.286.108.198-.093.074-.204.099-.175.122-.099.156-.069.156-.104.115-.169.095-.195.117-.18.136-.103.275-.006.327.096.612.296.28.275.137.322.086.729.104.399.102.288.142.289.214.195.4.152,2.321.518.277.212.124.245-.005.282-.066.526.007.27.052.267.099.255.551.847.158.306Z"/>
    <path class="cls-1" d="M33.95,64.985l.402-1.101.113-.234.241-.407.471-.541.077-.14.056-.164.009-.231-.005-.149.013-.163.074-.162.458-.608.083-.147.041-.15-.027-.184-.065-.174-.219-.334-.25-.296-.113-.165-.115-.2-.185-.462-.047-.184-.018-.143.005-.133.023-.119.043-.106.057-.095.092-.085.248-.177.289-.168,1.482-.166.271-.03,1.712.267,1.02.208.943-.04.305-.103.35-.447.365-.099.183.023.368.097.16.022.187-.023.334-.096.672-.047.345-.093.271-.194.208-.326.23-.114.167-.112.065-.067.05-.076.043-.083.241-.628.065-.074.11-.044.138.08.248.208.553,1.174.345,1.102.199.372.219.197.189.083.155-.026.104-.104.063-.156.022-.167.002-.152.03-.116.083-.061.138.013.076.091.023.147-.005.175.068.171.137.072.144-.016.106-.101.029-.159-.032-.381.022-.148.097-.06.16-.024.223.042.154-.03.108-.065.119-.028.133.052.131.096.117.027.12-.051.176-.214.129-.046.21.06.151.15.183.379.011.617-.118.134-.113.232.043.152.424.427.244.371.235.246.253.196.499.257.431.337.113.157.108.191.129.148.302.247.217.085.212.022.189-.028.203-.082.359-.35.048-.131.04-.171.081-.196.409-.371.111-.197.081-.192.07-.04.102.053.149.111.167.095.199.01.366.094.221.003.124-.134.183-.557.225-.366.28-.239.753-.415.246-.181.264-.145.172-.143.201-.129.255.024.216.198.167.892.151.084.271-.054.158-.072.135.07.05.184.171,1.023.115.204.23.159.914.1.354-.084.296-.156.287-.204,1.133-.408.113.046.023.144-.097.467-.007.193.113.125.149-.043.659-.646.241-.184.145-.146.043-.141-.04-.175.04-.172.187-.182,1.564-.586.18-.099.084-.121.023-.142.054-.121.253-.074,1.379-.161.293-.186.826.081.41-.019.345-.059.224.024.178.092.201.071.162-.04.524-.501.061-.102.171-.151.07-.084.077-.231.16.005.257.081.304.064.415-.004.228-.143.097-.214v-.7l-.036-.217-.05-.176-.106-.17-.068-.149-.002-.101.138-.062.444-.128.14-.195.084-.254.056-.559.07-.247.128-.268.178-.288.232-.243.246-.066,1.475-.017.318.123.291.242.794,1.013.83-.09.735-.493.287-.264.383-.133.117.198-.048.155-.108.173-.086.19.083.077.192.025.275.008.295.106.282.202.174.358.172,1.419.14.31.19.211.316.256.339.071.295-.012.388-.239.172-.044.672.269.49.043.106.172.065.188.075.614-.02.176-.088.18-.451.516-.027.162.095.211,1.367.75,1.065.823.388.218.192-.052.124-.174.088-.205.025-.197-.038-.189.023-.157.086-.154.133-.061.189-.139-.014-.66.16-.656.16-.206.568-.475.859-.87.377.003.375.159.352.195.304.005.401-.102h.219l.445-.235.172-.394.124-.114.18-.025.221.066.233.136.552.443,1.333.428.036-.101-.038-.378.016-.147.162-.225.266-.396.043-.293.133-.017.62.16.904.364.289.038.217-.083.135-.164.032-.4.066-.265.239-.685-.048-.598.189-.873-.027-.288-.083-.19-.054-.153.054-.081.113-.115.137-.174.296-.563.163-.222.124-.228.045-.24-.077-2.042.07-.294.118-.293.395-.572.402-.424.199-.155.542-.202.241.015.411.169.124-.02.079-.156.257-1.118.039-.362.155-.469.185-.185.221-.063.386-.019.081-.033.113-.075.122-.061.142.011.221.125.273.114.251.056.291-.143.113-.262.108-.507.092-.134.232-.143.016-.16.07-.272.192-.349.666-.589.25-.168.216.072.068.067.172.025.146.063.21.161.198.259.124.25.174.193,1.058.222.375.184.781-.118.408.065.18.09.178.125.149.18.086.257-.004.264-.077.159-.1.143-.066.217-.013.265.029.216.102.443.004.13-.023.279.02.124.083.132.102.045.099.018.083.054.665.699.147.106.095.208.162.415.323,1.335.059.445.018.449-.048.253-.216.31-.083.207-.07.971-.022.085-.043.121-.097.05-.129-.023-.181-.124-.122-.039-.137.042-.084.174.025.187.086.159.102.071.124.042.397.056.081.06.056.082.118.269.119.205.036.188.011.252.027.163.07.138.102.117.113.203-.002.161-.079.114-.176.111-.126.109-.057.182.065.093.135.053h.111s.208.115.208.115l-.09.314-.118.134-.187.165-.226.113-.26.06-.25.007-.207-.043-.192-.098-.153-.101-.178-.09-.187-.061-.251-.034-.178.044-.115.113.027.116.129.109.206.061.185.076.115.09.032.135-.065.544.025.141.151.216.049.13.007.141-.034.119-.075.166-.084.111-.155.154-.072.142-.016.167.054.18.023.2-.07.307-.729,1.606-.23.32-.499.403-.447.31-.23.063-.372.143-.135.169-.032.186.025.202v.185l.022.138.077.063.102-.018.113-.055h.079s.119.086.119.086l.185.351-.032.269-.185.127-.257.025-.534-.074-.198.069-.083.144-.043.409-.086.24-.171.359-.153.104-.201-.033-.383-.363-.215-.113-.185-.025-.155.036-.16.111-.029.157.099.497-.045.309.022.486-.043.172-.122.126-.169.116-.241.269-.201.059-.503-.137-.356.01-1.027.408-.102-.017-.07-.092-.047-.188-.016-.251-.049-.225-.097-.159-.124-.097-.129-.012-.814.193-.334.118-.146.127-.025.12.097.154.275.254.075.1v.138l.016.116.075.12.338.276.118.213.038.268-.043.241-.122.234-.146.108-.199-.003-.093.084-.048.152.011.407-.03.208-.092.267-.151.095-.129-.009-.21-.314-.133-.113-.151-.045-.185-.028-.365-.107-.187-.028-.167.034-.093.091-.036.105.038.147.117.137.298.282.09.158.032.111-.07.251-.598.134-.907-.228-.399-.195-.343-.256-.372-.387-.135-.043-.201-.004-.284-.034-.365-.174-.898-.618-.304-.118-.219-.02-.129.088-.09.118-.056.127-.031.138-.034.099-.038.075-.16.205-.332.232-.092.13-.118.231-.093.351.005.105.023.114.079.192.113.368-.079.505-.314.464-.621.203-2.049.337-1.094.368-.708.324-1.458.408-.835.416-.532.35-.329.301-.219.267-.102.26-.027.222.005.235-.018.218-.065.186-.07.109-.03.039-.016.013-.029.039-.079.071-.171.18-.196.122-.512.458-.525.191-.259.006-.237-.111-.181-.227-.331-.208-.472-.218-.149-.052-.259-.032-.135-.079-.07-.089-.012-.039-.004-.031.036-.251.19-.842-.093-.367-.535-.007-.729-.448-.3-.088-.251.008-.158.094-.144.154-.088.151-.032.115.018.135.226.639.025.172-.092.203-.101.082-.146.051-.938.163-.408.02-.278-.017-.93.179-.357.191-.059.071-.054.172.013.308.131.103.11.172.079.172.099.079.544-.041.113.041.171.177-.011.125-.09.137-.07.216-.029.438-.047.217-.102.179-.268.329-.268.419-.196.45-.05.42.162.379.557.563.122.412.036.221.092.201.05.061.203-.062.736-.263.304.023.393.077.336.187.318.235,2.125,2.336.366.323.251.1.259-.038.255-.115.181-.113h.738s.93.212.93.212l2.371.082.149.031.054.032.012.011.02.017.075.016.163.055.3.01.14.055.059.069-.011.081-.083.09-.102.044-.212.052-.275.032-.25.067-.198.092-.463.386-.075.144-.004.179.063.203.016.178-.059.207-.165.413-.022.185-.007.443-.081.5-.014.25.075.269.925.742.3.047.226.008.142-.031.138.017.445.257,1.087.913.135.901.115.253.176.277.237.159.253.079.796.014.295.092.42.268.235.25.162.251.137.344.031.145.007.123-.039.117-.108.059-.167.006-.339-.066-.095.006-.048.064-.016.025-.005.019-.004.031.004.101.023.184.079.253.086.139.117.11.541.278.223.166.28.312.104.317.032.622.097.318.232.224.251.2.3.292.072.15-.05.142-.273.114-.663.058-.269-.027-.138.052-.079.122.025.373-.038.199-.09.114-.196.002-.291-.116-.09.005-.083.081-.3.171-.232.162-.118.118-.693-.314-.772-.709-1.67-1.083-.155-.072-.183-.04-.259.033-.661.223-.253.043-.305.015-.314-.06-.304-.127-.347-.26-.232-.237-.174-.225-.313-.529-.264-.224-.374-.25-2.877-1.453-.656-.856-.128-.118-.129-.068-.176-.017-.167.07-.167.094-.266.44-.133.099-.059.023-.104.024-.255.031-.14.035-.347.14-.118.095-.009.011-.007.015-.009.077-.005.169.063.334.167.286.428.528.133.257.07.322.117,1.091-.004.352-.054.291-.322.478-.108.224-.011.342.117.305.269.501.025.264-.063.289-.14.415-.07.304.007.273.02.139v.128l-.048.129-.128.225-.83,1.184-.329.27-.345.215-.751.186-.862-.48-.07-.192-.052-.326.02-.258-.005-.192.011-.151.061-.146.243-.318.07-.175.02-.201-.059-.168-.106-.057-.205.074-.239.157-.187.178-.165.112-.21.094-.287.079-.208.082-.356.194-.108.022-.404-.165-.805-.139-1.024-.288-1.557-.943-.217-.082-.205-.032-.201-.005-.264.046-.242.077-.296.203-.763.271-.19.108-.805.771-.796.932-.113.09-.093.026-.092-.036-.119-.106-.365-.426-1.354-.911-.196-.093-.32-.104-.303-.041-.203.006-.135.022-.684.253-.21.04-.084-.049-.018-.114.126-.277.118-.166.167-.28.541-1.21.83-1.191.097-.188.097-.27.101-.488v-.498l-.076-.681-.219-.984-.386-1.058-.474.389-.873.564-.081.035-.537.055-.146.041-.113.078-.28.302-.09.031-.138.023-.517-.225-1.06-.263-.291-.039-.388.034-.167.052-.122.09-.077.1-.16.088-.253.064-3.538.08-.232.03-.149.083-.054.12-.011.15.009.187-.02.147-.05.15-.063.083-.109.105-.111.08-1.108.585-.219.042-1.69.088-.316-.078-1.076-.545-.233-.06-.375.014-.122-.015-.178-.071-.535-.419-.187-.265-.111-.21-.11-.273-.995-1.362-.539-.35-.497-.247-.647-.147.108-.269.108-.38.047-.109.059-.113.056-.07.075-.057.296-.136.108-.071.12-.101.298-.365.225-.199.093-.032.526.019.194-.023.138-.051.135-.078.349-.354.902-.635.111-.123.09-.158.28-.948.077-.17.09-.139.12-.124.128-.074.313-.108.108-.1.189-.233.133-.116.683-.492.216-.229.167-.224.099-.22.02-.205-.041-.224-.083-.221-.167-.344-.063-.22-.034-.376-.074-.148-.146-.135-.463-.222-.165-.054-.169-.021h-.156s-.187.018-.187.018l-.032.01-.124.061-.138.047-.164.002-.162-.025-.289-.093-.118-.057-.582-.374-.149-.023-.07.062-.005.101.041.292-.004.024-.018.043-.052.061-.11.041-.122.007-.128-.044-.093-.048-.075-.06-.054-.09-.07-.171-.101-.374-.077-.531-.054-.22-.095-.229-.187-.22-.582-.502-.277-.429-.155-.77.199-.809.124-1.491-.18-.922-.101-.259-.124-.197-.192-.111-.093-.017-.124.056-.429.45-.108.073h-.079s-.097-.074-.097-.074l-.066-.139-.052-.243v-.233l.02-.186.113-.504.013-.182-.002-.167-.02-.166-.002-.15.022-.144.07-.15.099-.135.537-.573.199-.267.101-.179.077-.185.022-.148-.016-.099-.302-.599-.05-.219-.022-.202-.038-.2-.084-.137-.174-.086h-.122s-.117.041-.117.041l-.221.144-.109.049-.178.051-.081.035-.086.059-.047.072-.032.076-.018.111v.222l.081.414-.016.113-.038.062-.059.056-.068.003-.102-.02-1.074-.454-.156-.031-.151-.007-.131.012-.402.082-.14.006-.128-.02-.156-.059-.18-.131-.156-.174-.16-.316-.208-.61-.183-.401-.027-.173.009-.14.039-.15.194-.536.036-.175-.025-.207-.07-.226-.313-.75-.264-.335-2.43-2.213-.286-.396-.137-.275-.097-.251-.054-.284-.021-.247.013-.757-.027-.252-.074-.177-.119-.145-.616-.349-.278-.252-.135-.089-.16-.047-.898-.056-.93-.293Z"/>
  </g>
  <text class="cls-2" transform="translate(59.55 84.641)"><tspan x="0" y="0">EASTERN</tspan></text>
</svg>