<?xml version="1.0" encoding="UTF-8"?>
<svg id="India" xmlns="http://www.w3.org/2000/svg" version="1.1" viewBox="0 0 188.446 280.559">
  <defs>
    <style>
      .cls-1 {
        fill: #01665e;
        stroke: #fff;
        stroke-miterlimit: 10;
        stroke-width: .25px;
      }

      .cls-2 {
        fill: #fff;
        font-family: Helvetica, Helvetica;
        font-size: 12px;
      }
    </style>
  </defs>
  <g>
    <polygon class="cls-1" points="174.611 90.743 174.451 91.483 174.111 92.153 173.391 93.033 171.681 94.403 170.951 95.243 170.631 95.343 170.281 95.223 169.931 95.053 169.571 94.973 169.151 95.053 168.641 95.213 168.141 95.433 167.791 95.703 167.621 96.163 167.421 97.383 167.141 97.783 166.981 97.803 166.521 97.683 166.321 97.653 166.091 97.723 165.651 97.923 165.421 97.973 164.851 98.283 164.291 98.113 163.771 97.673 163.321 97.173 161.861 95.923 161.571 95.263 161.261 94.193 161.221 93.893 161.321 93.523 161.471 93.173 161.501 92.823 161.261 92.473 160.851 92.313 160.521 92.473 160.011 93.103 159.711 93.373 159.401 93.533 158.701 93.703 156.231 93.773 155.551 93.943 155.141 94.163 155.071 94.563 154.691 94.813 153.901 95.713 153.721 95.743 153.561 95.683 153.361 95.533 153.211 95.323 153.151 95.053 153.211 94.753 153.351 94.473 153.431 94.213 153.541 93.593 153.661 93.313 153.741 93.163 153.901 92.983 154.241 92.713 154.681 92.433 154.851 92.263 154.961 92.083 155.021 91.903 155.071 91.663 155.131 91.043 155.111 90.733 155.071 90.433 154.941 89.923 154.891 89.773 154.821 89.693 154.721 89.643 154.591 89.623 154.251 89.633 154.101 89.663 153.971 89.703 153.931 89.783 153.971 90.133 153.911 90.303 153.751 90.423 153.311 90.593 153.121 90.703 152.861 91.073 152.691 91.173 152.411 91.233 152.071 91.193 151.781 91.193 151.551 91.263 151.141 91.563 150.741 91.613 150.441 91.693 150.261 91.813 150.171 91.983 150.071 92.083 149.911 92.163 149.791 92.253 149.671 92.463 149.481 92.713 149.201 92.853 148.611 92.873 148.361 92.663 148.251 92.393 148.161 92.103 148.001 91.843 147.571 91.383 147.381 91.123 147.281 90.803 147.221 89.743 147.111 89.483 146.901 89.163 146.601 88.913 145.981 87.473 145.391 86.703 144.371 85.623 143.971 85.123 143.801 84.823 143.601 84.593 143.451 84.553 143.301 84.583 143.141 84.683 142.811 84.843 142.781 84.863 142.541 85.133 142.401 85.253 142.251 85.343 141.931 85.443 141.771 85.503 141.631 85.633 141.171 86.113 140.921 86.303 140.691 86.433 140.441 86.533 139.721 86.723 139.371 86.893 138.791 87.033 137.921 87.123 137.831 87.173 137.761 87.243 137.641 87.483 137.531 87.593 137.131 87.593 134.891 86.873 133.431 86.363 132.611 85.883 131.071 84.703 130.311 84.333 130.031 84.143 129.811 83.913 129.391 83.333 128.441 82.483 128.111 82.263 127.051 80.993 126.811 80.833 126.551 80.783 124.571 80.943 124.331 80.853 123.401 80.073 123.121 80.043 122.591 80.373 120.591 80.773 119.831 81.133 118.811 81.803 118.581 82.033 118.471 82.233 118.461 82.443 118.401 82.713 118.241 83.073 117.811 83.543 117.451 83.803 117.081 83.963 116.351 84.183 115.451 84.583 115.111 84.833 115.011 84.993 114.591 85.483 113.221 86.683 112.911 86.883 112.711 86.953 112.581 86.853 112.301 86.493 112.161 86.383 112.011 86.323 111.851 86.283 111.431 86.093 111.241 86.043 111.021 86.043 110.681 86.133 110.471 86.263 110.341 86.423 110.281 86.673 110.301 86.943 110.421 87.243 110.641 87.523 111.241 88.163 111.431 88.413 111.551 88.613 111.621 88.793 111.721 88.983 112.011 89.353 112.121 89.533 112.171 89.763 112.191 89.883 112.021 90.283 111.981 90.973 112.041 91.213 112.391 92.013 112.411 92.243 112.401 92.453 112.351 92.733 112.311 92.783 112.181 92.873 111.881 93.153 111.361 93.893 111.391 94.163 111.171 94.593 111.041 94.793 110.901 95.003 110.721 95.183 110.531 95.243 110.181 95.523 109.231 95.863 109.121 96.043 109.051 96.423 108.991 96.583 108.881 96.693 108.581 96.923 108.451 97.063 108.181 97.193 106.951 97.283 106.281 97.703 105.661 98.313 105.051 99.223 104.671 99.083 104.561 98.983 104.391 98.873 104.161 98.743 104.041 98.613 104.001 98.493 104.041 98.143 104.001 98.013 103.911 98.003 103.661 98.133 103.511 98.293 103.101 98.503 102.001 98.413 101.501 98.573 100.321 97.593 99.721 97.243 98.501 96.943 97.921 96.583 97.271 96.053 96.731 95.833 96.151 95.883 95.421 96.183 94.701 96.263 93.501 95.653 92.831 95.693 92.211 95.903 91.541 95.943 90.921 95.723 90.451 95.173 89.931 93.743 89.881 93.333 90.011 92.953 90.201 92.603 90.341 92.253 90.361 91.843 90.241 91.003 90.231 90.553 90.351 90.103 90.791 89.233 90.911 88.793 90.851 88.333 90.611 88.143 90.291 88.203 89.991 88.523 89.821 88.923 89.751 89.273 89.611 89.583 89.251 89.843 88.911 89.953 87.991 90.103 87.641 90.083 87.361 89.933 86.851 89.413 86.561 89.263 86.221 89.293 85.651 89.633 85.331 89.723 84.951 89.653 84.661 89.463 84.431 89.153 84.261 88.773 84.431 88.523 84.451 88.503 84.551 88.343 84.741 87.963 84.791 87.533 84.581 86.473 84.531 85.433 84.351 84.973 83.871 84.673 82.251 84.403 81.611 84.023 80.651 82.693 80.081 82.113 79.451 81.673 78.981 81.183 78.741 80.543 78.791 79.633 78.971 79.273 79.251 79.083 79.901 78.823 80.191 78.613 80.421 78.363 80.601 78.063 80.771 77.723 81.311 76.213 81.681 74.633 81.401 73.483 80.471 72.743 79.361 72.143 78.531 71.433 78.391 71.143 78.291 70.843 78.261 70.523 78.291 69.913 78.351 69.643 78.431 69.383 78.531 69.133 79.131 68.063 79.541 67.683 81.411 67.353 82.021 67.083 82.631 66.643 83.101 66.173 83.501 65.573 83.671 64.903 83.451 64.223 82.911 63.843 82.271 63.863 81.621 64.023 80.991 64.053 80.071 63.723 79.721 63.703 78.531 64.013 77.991 63.903 77.481 63.523 77.091 62.973 76.931 62.353 77.081 61.713 77.491 61.283 78.531 60.733 78.861 60.423 78.911 60.003 78.771 59.543 78.531 59.143 78.141 58.103 77.851 57.753 77.331 57.693 76.831 57.753 76.391 57.683 75.971 57.513 75.531 57.263 75.161 56.863 75.021 56.353 75.111 55.823 75.401 55.353 75.581 55.213 76.011 54.983 76.161 54.813 76.251 54.563 76.271 54.033 76.281 53.773 76.281 53.763 76.561 53.283 77.391 52.703 77.651 52.283 77.641 51.683 77.501 51.143 77.531 50.653 78.041 50.223 78.281 50.113 81.041 49.633 81.491 49.403 82.791 48.433 83.901 47.993 85.001 47.893 86.101 48.083 90.491 49.693 96.621 50.923 98.241 50.843 99.381 50.593 100.021 50.603 100.221 50.733 100.431 50.873 100.681 51.273 100.961 51.583 101.651 52.093 102.361 52.443 106.941 53.683 107.711 53.713 108.721 53.463 109.091 53.463 109.821 53.563 110.151 53.483 110.501 53.193 111.501 52.143 112.641 51.293 113.111 51.143 113.231 51.073 113.461 50.793 113.821 50.173 114.101 49.923 114.711 49.793 115.811 50.263 116.391 50.253 118.251 49.763 120.641 48.373 121.311 48.123 121.981 48.223 122.731 48.783 123.011 48.893 123.311 48.903 124.811 48.573 125.041 48.453 126.621 46.933 126.791 46.533 126.721 45.393 126.861 44.913 127.281 44.573 127.891 44.373 128.511 44.313 128.981 44.443 129.441 44.743 129.701 44.793 129.921 44.623 130.261 44.243 131.301 43.403 131.571 43.043 131.691 42.393 131.541 41.803 131.471 41.293 131.811 40.853 131.921 40.783 138.451 36.713 144.061 33.203 144.821 32.723 144.981 32.623 145.241 33.093 145.571 33.543 145.971 33.873 146.421 33.993 146.931 33.783 147.721 32.903 148.211 32.653 149.221 32.703 149.421 33.523 149.111 34.693 148.621 35.763 148.471 37.433 149.081 39.013 150.711 41.943 150.871 42.723 151.031 44.323 151.271 45.043 151.971 45.953 152.131 46.323 153.201 50.303 153.601 51.023 154.281 51.663 155.051 51.993 159.011 52.673 160.001 53.093 161.501 54.253 162.381 55.433 163.041 55.813 163.851 56.043 164.481 56.323 164.981 56.813 165.081 57.003 165.421 57.643 165.581 58.123 165.631 58.613 165.581 59.093 165.421 59.573 164.151 60.803 162.461 61.543 161.141 62.453 160.981 64.223 161.841 66.773 162.131 68.103 162.251 69.443 162.031 73.413 162.371 74.633 162.781 75.323 164.371 76.843 164.401 76.873 165.371 78.463 165.641 78.613 166.281 78.813 166.581 78.953 166.881 79.133 167.101 79.413 167.171 79.803 167.201 80.283 167.351 80.403 167.951 80.123 168.501 80.173 169.821 80.883 170.431 81.093 171.821 81.153 172.411 81.463 172.471 82.223 172.321 82.543 171.941 83.103 171.811 83.493 171.741 84.583 171.631 84.973 171.641 85.743 171.991 86.283 173.001 87.193 173.341 87.833 173.461 88.463 173.631 89.063 174.111 89.593 174.451 89.983 174.521 90.063 174.611 90.743"/>
    <path class="cls-1" d="M101.502,98.57l.499-.154,1.099.091.413-.215.149-.163.244-.128.09.01.043.134-.041.348.047.121.117.129.232.129.163.115.113.096.377.141.618-.913.614-.603.672-.427,1.229-.089.271-.128.129-.139.303-.234.108-.111.056-.155.074-.384.108-.174.95-.343.354-.28.183-.064.183-.178.144-.209.16.044.169.199.075.105.713,1.401.038.122-.022.13-.119.118-.839.478-1.36,1.093-.636.762-.262.234-.275.181-.332.14-1.212.281-.07.051-.095.105-.086.225-.038.287.039.324.106.27.183.12.124-.003.097-.048.074-.045.097-.042.109-.008.101.054.022.134-.085.289-.12.269-.171.299-.995,1.115-.075.175.054.143.189.094.171.064,1.056.174.381.15.269-.062.117.128.806.356.85.545,1.033.471.322.208.203.376.627.938.639,1.205.066.157.004.119-.111.074-.113.005-.224-.037-.131.005-.128.06-.086.107-.018.212.029.163.345.702,2.215,4.218.963,2.71.262,1.235.104.307.199.321.365.406.375.232.383-.175.14-.038.203-.013.318.146.126.035.122-.025.115-.106.101-.178.054-.299.063-.168.115-.086.23.038.092-.078.056-.21-.102-.761.09-.225.399-.109.079-.034.059-.046.054-.085.066-.081.237.224.682,1.299.359.755.102.367.14.053.093-.023.12-.095.07-.086.097-.017.104.094.14.257.144.124.081.029.05-.065.03-.052.039-.041.063-.005.237.039.101.069.092.142.038.242.05.14.097.085.074-.02.072-.064.074-.113.11-.229.054-.067.052-.01.081.06.084.107.129.25.049.205-.097.378.016.074.135.017.42-.049.162.051.084.13-.115.239-.266.313-.065.144-.025.165-.027.862.047.154.334.217.023.187-.199.37-.065.156-.034.174-.004.209.032.206.057.219.077.223.18.273.34.35.957.754.374.418.806.677.167.208.135.244.198.467.086.118.117.075.239.068.111.058.07.079.043.129.011.134-.02.136-.088.276-.262.395-.706-.199-.278.009-.286.042-.656.304-.119.102-.045.097-.011.161.029.154.047.133.065.095.503.43.51.627.165.148.104.146.086.079.081.023.165-.15.097-.059.113-.012h.084s.271.052.271.052l.189.038.065-.018.079-.047.043-.005.041.014.027.051.027.074.109.605.092.088.101.047.131.02.128.075.077.13.09.337.056.115.036.121v.124l-.122.633-.023.348.083.173.133.168.074.129.011.126-.076.158-.104.162-.034.083-.036.149-.005.622.025.272.16.732.011.197-.036.234-.079.242-.162.216-.183.059-.196-.081-.16-.29-.156-.559-.101-.257-.113-.135-.162-.057-.539.085-.208-.002-.336-.154h-.248s-.438.211-.438.211l-.059.072-.048.118-.088.588.013.09.032.067.058.036.205.049.086.052.02.074-.058.117-.124.15-.268.25-1.119.807-.226.116-.35.231-.194.101-.713.251-.25.148-.192.188-.104.211.04.192.068.103.104.042.079-.011.108-.051.088-.078.284-.378.086-.072.068-.017.077.029.068.056.05.074.027.074.022.102.036.104.048.093.07.078.102.068.226.07.09.046.07.06.04.065.031.084-.011.148-.038.17-.149.303-.027.164.014.222-.079.095-.609.376-1.015.8-.596-.025-.183-.111-.426-.125-.129-.092-.102-.13-.194-.323-.138-.322-.178-.735-.07-.11-.104-.066-.128-.011-.129.038-.117.09-.029.167.04.119.063.124.032.1.002.102-.027.095-.162.38-.066.115-.102.059-.09.009-.081-.038-.102-.105-.205-.257-.122-.093-.097-.008-.092.056-.005.169.032.14.005.13-.054.099-.167.106-.158.013-.149-.02-.226-.072-.214-.024-.131-.039-.156-.098-.503-.401-.14-.023-.119.046-.14.13-.077.107.018.149.059.102.101.094.097.062.48.177.113.077.025.078-.111.074-.377.064-.086.049-.054.081-.005.13.013.1.031.082.045.096.03.082-.02.085-.05.078-.149.18-.124.236-.341.961-.097.377-.02.183.025.193.045.156.075.193.049.178.09.167.119.113.329.198.126.145-.013.182-.203.206-.517.266-.397.305-.242.136-.374.095-.72.326-.562.751-.142.125-.21.066-.483-.034-.216.076-.365.195-.237.086h-.296s-.553-.19-.553-.19l-.372-.022-.194-.225-.041-.07-.26-.646-.108-.17-.384-.32-.153-.074-.257-.077-.162-.031-.19-.016-.465.144-.551.267-.128.154-.047.165.025.165-.022.16-.118.135-.214.045-.614-.126-.37.045-.318.118-.334.049-.505-.097-.474-.299-.149-.059-.162.022-.331-.029-.578-.253-.291-.147-.151-.026-.117.06-.248.406-.395.486-.417.78-.14.186-.401.348-.146.169-.02.154.011.165-.034.161-.122.039-.102-.037-.145.004-.172.128-.259.442-.106.247-.013.199.065.126.102.149.07.169-.031.173-.113.112-.474.104-.338.195-.242-.039-.104-.455-.038-.12-.099-.21-.022-.076-.007-.097-.022-.094-.074-.133-.118-.14-.217-.204-.07-.116-.016-.077.061-.099.02-.053v-.07l-.025-.075-.314-.331-.038-.101-.004-.065.038-.038.097-.047.074-.025.27-.152.104-.079.027-.046.004-.065-.004-.145-.039-.316.005-.137.016-.073.032-.044.045-.011.065.006.07.016.059.007h.095l.092-.01.063-.02.038-.026.002-.062-.038-.102-.092-.175-.318-.43-.156-.257-.059-.134-.041-.147-.027-.264-.054-.1-.092-.041-.142.031-.251.115-.09.062-.054.072-.032.071-.066.413-.025.05-.038.021-.05-.021-.079-.084-.108-.154-.093-.097-.408-.213-.086-.11-.036-.141.052-.333-.009-.099-.029-.076-.097-.156-.014-.042.011-.056.038-.041.059-.049.052-.06.045-.113.031-.153.011-.182-.004-.167-.016-.153-.061-.114-.118-.079-.165.069-.07.088-.032.136-.002.11-.027.132-.032.098-.063.098-.086.056-.14.049-.214.04-.485.165-.26.057-.154-.005-.192-.115-.083-.08-.092-.107-.095-.088-.406-.261-.077-.081-.066-.113-.038-.122-.043-.227-.027-.075-.065-.094-.154-.14-.092-.058-.172-.071-.887-.157-.19-.058-.079-.06-.072-.087-.104-.167-.059-.074-.124-.026-.174.021-.677.21-.383.046-.334-.006-.117.025-.149.061-.568.399-.102.098-.086.115-.137.275-.086.135-.065.06-.312-.015-.954-.379-1.065-.267-2.276-.317-1.651.012-6.511-.348-.501-.087-.043-.305v-.009l.036-.142.205-.555,1.238-2.049.029-.088.081-.386.02-.338-.117-.366-.41-.155.036-.264-.248-.876-.395-.856-.352-.521-.857-.465.05-.08.113-.315.277-.296.347-.182.322.034-.032-.133-.038-.284-.038-.131.291.099.219-.038.171-.14.882-1.239.108-.264.146-.16.69-.195.234-.255.068-.487-.056-.379-.02-.344.18-.381.257-.308.237-.226.271-.183.368-.186.401-.082.138-.107.054-.286.057-.162.253-.194.113-.406.133-.16.284-.251.357-.537.146-.144.262-.197.131-.148-.016-.142-.158-.4.061-.083.343-.106.352-.272.194-.358-.128-.364.117-.21.147-.18.183-.125.221-.047.194.017.453.133.375.028.136-.159.074-.283.19-.348.3-.279.295-.146.325-.054.386-.008.345-.12.269-.278.242-.321.266-.246.004-.417.264-.357.374-.281,1.006-.549-.149-.189-.318-.29-.26-.157-.348-.01-.762.138-.284-.125-.23-.286-.151-.253-.092-.288-.056-.391.047-.409.278-.804.004-.906.12-.465.684-1.742.21-.351.284-.356.207-.326.092-.379-.045-.383-.523-.805-.503-1.923-.975-1.781-.174-.23.056-.068.185-.326.038-.029.137-.063.05-.046.036-.09.05-.243.032-.096.135-.19.075-.067.032-.094.007-.268.059-.447.167-.328.264-.276,1.311-1.019.28-.104.223-.173.494-.939,1.123.23.359-.079.327-.53.153-.711.302-.443.774.28.277-.351.343-.061.392.042.422-.049.212-.116.108-.144.077-.172.133-.2.164-.085.427.032.174-.012-.131-.577.316-.067,1.065.406.142.009.151-.07.189-.188.149-.067.399.113.223.023-.018-.467.393-.386.534-.274.408-.139.234-.041.544.041.059-.223.18-.697.142-.344.557-.639.181-.402-.106-.465-.453-.575-.495-.408Z"/>
    <path class="cls-1" d="M78.014,141.636l.41.155.117.366-.02.338-.081.386-.029.088-1.238,2.049-.205.555-.036.142v.009l.043.305.501.087,6.511.348,1.651-.012,2.276.317-.038.635.07.112.137.16.154.105.169.17.07.18.014.188-.047.173-.092.156-.126.13-.171.114-.528.239-.149.042-.066.063-.102.137-.165.353-.088.332-.036.382.041.225.109.148.173.09.183.056.171.016.138-.011.156-.046.135-.07.189-.157.118-.075.124-.028h.216s.084-.012.084-.012l.065-.032.115-.141.068-.067.086-.036.131.022.102.075.122.204.025.254-.061.317-.253.699-.083.336-.149,1.684.065.332.119.235.302.347.16.258.032.209-.065.644-.056.204-.083.141-.126.056-.14.026-.507-.023-.124.041-.138.102-.09.222-.005.153.038.112.084.092.199.293.108.262.081.158.264.338.138.224.162.397.11.167.133.111.167.032.156-.004.084-.05.059-.099.05-.253.041-.138.072-.096.118-.048.11-.017h.228s.499-.083.499-.083l.092-.002.587.125.268.01.151-.038.165-.118.163-.187.214-.198.18-.13.219-.095.171-.016.174.025.27.169.149.058.336.083.228.083.163.085.318.247.095.137.048.123.032.167.155.447.201.432.117.185.118.129.104.046.176.041.131.006.075-.011.348-.197.203-.01.221.097.124.148.106.195.167.431.115.13.14.075.162.017.165-.019.142-.035.257-.164.151-.059.35-.062.16-.118.257-.271.129-.02.146.06.131.12.289.207.246.013.372-.066.21-.083.104-.076.036-.089.018-.1.038-.09.068-.073.639-.333.153-.005.101.058.048.127-.009.137-.119.442-.013.135.027.146.081.132.154.105.092-.008.097-.084.113-.128.153-.127.291-.127.122.016.059.098.052.373.217.403.038.119.014.123-.005.115-.025.099-.045.057-.07.034-.255.048-.108.06-.054.082-.023.122.027.148.061.18.155.21.057.132.018.109-.038.141-.007.17.016.18.092.216.145.237.302.384.489.787.151.121.738.275.124.067.081.079.065.151.048.218-.011.224-.081.177-.147.124-.225.147-.095.086-.038.128-.021.121.118.389.149.576.101.337.314.521.048.281-.029.311.065.237.347.756.521,1.691.235.505.291.422.241.268.436.639.126.154.084.06.194.179.453.681.783.648.341.177.171.174.023.131-.059.149-.04.199.072.253.156.084.165-.017.144-.074h.118l.205.041.275.225.431.167.257.057.233.082.429.376.799.81,1.189,1.595.228.399.149.402.086.113.187.196.126.196.183.414-.013.215-.117.099-.178-.068-.162-.139-.262-.319-.118-.047-.115.053-.111.138-.189.333-.133.126-.11.072-.375.134-.194.091-.163.112-.111.112-.081.203.027.148.097.138.435.325.099.031.108-.038.081-.081.151-.214.059-.063.099-.063.124-.04.131.036.129.126.014.194-.074.181-.26.338-.327.296-.068.162-.048.296-.056.14-.108.117-.084.074-.076.128-.022.05-.002.03.167.124.108.106.093.202-.022.139-.167.151-.059.099-.088.064-.162.044-.401-.065-.065.044-.097.311.09.382.553.342.099.117.074.118.011.164.027.188.083.284.128.16.215.101,1.604-.225.488.047.397.408.623.457.523-.386.07-.141.032-.135-.065-.112-.057-.142-.045-.193-.025-.268-.045-.147-.054-.089-.216-.16-.101-.219-.007-.26.023-.403-.034-.277-.23-.664-.14-.551-.004-.27.036-.212.065-.267.056-.141.057-.097.093-.055.101-.025.1-.007.372.105.137.017.154-.016.122-.04.172-.125.092-.046.115-.007.224.053.661.562h.232l.259-.059.178-.23.057-.241-.047-.197-.124-.149-.151-.085-.264-.107-.106-.101-.039-.181.083-.1.113-.05.318-.068.081-.076.036-.139-.054-.133-.108-.096-.302-.167-.144-.138-.11-.187-.038-.313.092-.134.108-.034.199.095.21.069.11.069.084.096.065.12.049.131.057.109.072.089.092.069.092.027.806-.136.312-.095.215.008.151.096.44.666.065.132.009.093-.057.03-.135-.011-.147-.043-.201-.079-.11-.017-.07.026-.027.099.029.13.085.125.402.249.065.063.054.068-.009.053-.072.047-.332.105-.102.077-.022.11.075.106.641.308.172.021.232-.013.111.02.092.074.07.167.167.717.063.153.081.127.164.149h.111s.135-.102.135-.102l.278-.366.07-.074.056-.04.226-.099.194-.06.379-.039.226-.048.147-.067.025-.085-.025-.153-.18-.417-.063-.183-.029-.158.007-.118.025-.119.045-.11.09-.094.135-.118.264-.147.144-.123.18-.2.113-.077.187-.091.325-.254.122-.116.375-.234.433-.528.113-.312.117-.177.133-.146.368-.232.144-.049.162-.011.122.032.12.065.128.123.07.093.174.296.154.174.666.542.162.184.088.209.032.215-.016.242-.296,1.079-.054.32.009.353.072.341.14.345.052.189.022.16-.02.122-.032.127-.011.163.014.206.104.309.038.192.004.159-.054.29.065.691-.022.146-.031.111-.056.108-.316.464-.065.148-.253,1.39v.19l.065.125.075.105.086.088.086.124.009.082-.038.049-.332.109-.075.062-.063.13.022.115.075.102.07.06.187.1.523-.194.564.02.144-.192.216-.541.212-.258.246-.12.898-.096.106-.098-.03-.154-.135-.13-.528-.251-.102-.152-.004-.204.156-.302.203-.079.234.023.575.248.316.084.289-.021.158-.111.262-.334.115-.009.079.086.065.152.081.119.183.018.092-.088.102-.262.111-.026.104.095.111.19.093.134.113.064.065-.011.075-.063.257-.344.485.091.221.795.036.48-.022.433.045.122.063.077.07.027.086.026.095.053.083.093.135.227.095.371.032.347-.011.115-.048.095-.138.15-.066.099-.036.151.014.1.065.077.216.157.102.126.029.116-.018.131-.048.188-.025.307.059.194.095.167.733.878.269.463.208.269.216.813.111.222.147.194.14.117.16.1.133.047.303.045.171.042.126.065.947.708.102.052.145.054.397.021.149.049.07.114.018.112v.178l-.029.203.086.37.093.212.156.223.076.203.109.409.086.09.083.068.122.054.088.23-.296.495-.399.224-.23.098-.065.165-.027.172-.129.245-.289.137-1.065.281-.145.084-.076.105-.022.085.005.115.02.07.043.099.065.091.081.063.108.031.181-.004.076.018.066.072.063.275.056.14.128.099.156.064.598.11.431.023.081-.027.074-.081.043-.083.063-.084.077-.046.081-.003.085.044.081.101.271.527.102.111.079.023.083-.041.149-.212.07-.076.095-.063.104-.02.111.057.093.147-.002.25-.118.159-.214.117-.876.185-.366.117-2.913,1.337-.652.385-.253.227-.113.164-.047.168-.007.143.023.305-.022.425-.075.424.016.118.036.069.158.073.433-.118.25-.273.144-.234.205-.503.101-.061.108.014.242.094.146-.004.172-.042,2.274-.967.411-.263.472-.495.216-.144.275-.082.232.009.467.131,1.063.143.178.062.118.063.083.071.059.07.097.054.081-.039.217-.159.162-.038h.169l.497.141,1.027.065.217.06.146.12.057.086.054.195.045.114.059.091.111.066.05-.033.038-.126-.007-.348.007-.138.032-.106.106-.089.135-.024.366.023.138-.044.086-.092.065-.124.072-.101.165-.117.102-.104.219-.141.264-.044.517-.027.294.039.216.059.169.082.171.048.388.041.138.047.102.064.099.079.059.085.009.098-.09.123-.578.567-.183.118-.158.025-.151-.004-.077.03-.047.094.014.099.072.126.167.179.111.153.074.168.039.147-.311.121-.23-.094-.07.585-.233.169-.548-.222-.327-.009-.144.297.023.185.097.325.009.205-.032.036-.145.251-.049.133-.041.378.004.235-.101.126-.348.053h-.183s-.18-.032-.18-.032l-.164-.066-.131-.112-.151-.088-.16.034-.438.184-.494.28-.311.064-.322.01-.189.038-.147.084-.092.155-.054.338-.092.166-.187.12-.882.276.214.566-.392.319-.629.209-.499.238-.302.399-.201.183-.273.077-.323.041-.609.182-.255.041-.248.104-.895.687-.682.408-.203.191-.251.091-.701-.099-.309.067-.18.253.014.269-.018.242-.28.17-.131-.144-.217.118-.253.039-.537-.014-.241.072-.216.176-.314.398-.068.133-.12.312-.109.159-.122.112-.257.187-.21.189-.418.236-.356.395-.497.088-.499-.042-.479.033-.433.316-.048.126-.036.313-.088.158-.129.1-.117.015-.241-.043-.223.047-.525.243-.147.104-.117.192-.088.216-.117.176-.392.125-.165.125-.25.283-.14.076-.512.109-.155.153-.066.157-.045.169-.09.191-.246.228-1.006.637-.117.204-.022.219v.221l-.056.21-.144.19-.145.082-.149.045-.155.076-.178.156-.345.435-.228.133-.199.005-.196-.051-.913-.076-.185.043-.086.119-.151.407-.12.153-.174.07-.323.016-.16.099-.406.405-.079.054-.154.062-.397.694-.09.248-.022.267.014.536-.084.245-.117.08-.322.064-.109.095-.049.237.059.21.102.204.079.22.508,2.618.345,1.07.099.45.077.204.133.145.147.086.165.03.253.051.196.122.135.127.395.73.14.149.189.109.167.03.356.003.197.025.212.068.194.088.731.567.117.072.126.048.122.003.55-.205.128-.033.151-.003.727.128.156.074.605.474.162.056.102-.023.318-.21.948.019.488-.198.485-.304.401-.18.264-.042.206.021.327.16.257.076.41.043.282-.053.217-.112.14-.138.113-.176.081-.171.169-.555.102-.2.151-.174.32-.216.447-.175.361-.056h.171l.277.046.118.055.117.08.092.092.086.114.07.124.052.135.002.091-.065.111-.07.102-.081.147-.048.175-.011.219.032.187.077.177.214.315.068.148.011.148-.022.099-.063.147-.048.141-.013.13.005.185.038.194.05.147.124.202.366.435.095.155.039.161-.027.138-.097.131-.066.139-.025.155.047.398-.021.198-.097.166-.138.084-.142.036-.101.04-.086.092-.084.124-.163.177-.215.102-.332-.026-.257-.139-.264-.184-.239-.068-.203.006-.338.145-.298-.027-.302-.103-.226.035-1.726.646-.864.118-.363-.032-.181.003-.133.024-1.466.667-.548.116-.252.125-.14.121-.172.277-.065.131-.032.11.002.083.005.039.043.111.268.518.251.606.07.303.016.43-.025.123-.072.149-.156.186-.192.124-.178.077-.361.088-.366.027-.144.027-.092.063-.086.1-.111.178.038.198.217.19.918,1.087.517.3.758.08.167-.027.124-.039.131-.021.185.031.181.097.83.729.223.251.174.298.153.394.224.898.031.465-.034.308-.122.171-.054.099-.235.171-1.604.725-.076.023-.284.056-.178-.002-.14-.026-.063-.03-.027-.018-.016-.072.016-.315-.013-.113-.03-.143-.126-.305-.07-.119-.079-.107-.083-.065-.106-.037h-.248s-.109-.028-.109-.028l-.122-.047-.122-.071-.115-.032-.117.006-.19.093-.07.115-.009.183.129.658.014.156v.135l-.005.075-.135.492-.014.131.004.132.045.173.14.511-.032,1.251.102.433.194.401.806,1.044.235.382.045.214-.04.179-.113.145-.117.181-.075.241-.07.165-.131.125-.187.041-.214-.004-.178-.028h-.126s-.135.047-.135.047l-.343.2-.489.021-.411-.273-.311-.268-.972-.658-.232-.212-.032-.109.02-.146.065-.162.172-.324.072-.189.022-.208-.076-.211-.156-.071-.201.004-.481.157-.496.223-.196.131-.16.174-.113.212-.176.65-.066.121-.162.117-.214.077-.329.038-.165-.027-.126-.074-.07-.128-.124-.402-.106-.209-.185-.163-.187-.057-.833.104-.463-.009-.399-.096-.936-.343-.311-.034-.575.115-.408.019-.275-.112-.212-.166-.128-.176-.083-.167-.021-.126.007-.117.054-.286-.005-.133-.056-.124-.113-.017-.154.028-.323.156-.248.151-.138.112-.097.142-.056.188-.02.561-.09.393-.016.195.049.373-.061.676.002.24.052.443.002.185-.045.308-.58.679-1.464.89-.248.27-.079.206.102.15.246.264.023.065.004.05-.014.077-.054.189-.065.143-.129.217-.232.18-1.286.701-.9.258-.613.335-.345.095-.278-.024-.176-.183-.158-.202-.156-.167-.149-.087-.19.013-.095.076-.052.109.011.142.106.401.027.195-.032.164-.259.524-.038.159-.027.179-.047.184-.097.194-.12.077-.14-.013-.33-.28-.221-.108-.27-.065-.704-.077-.12-.344-.02-.366-.097-.235-.092-.148-.938-.553-.291-.22-.106-.096-.192-.344-.054-.751-.02-.176.296-.479.172-.412.183-.098.102-.026.163.023.171.112.313.277.129.074.264.07.128.07.217.189.219.081.205-.005.198-.076.485-.433.187-.042.163.057.343.305.172.084.072.019.056-.012.153-.175.068-.204.147-.277.246-.378.499-.475.21-.327.081-.2-.101-.206-.722-.414-.203-.235-.093-.35.023-.344.199-.408.618-.759.135-.39.025-.385-.054-.261-.074-.148-.124-.125-.155-.078-.19-.071-.183-.103-.128-.157-.093-.283-.092-.805-.065-.208-.052-.255.016-.304.167-.548.16-.281.196-.185.205-.054.26.039.577.399.212.06.206-.05.201-.154.146-.211.059-.107.02-.069.016-.25-.095-1.617-.512-.636-.345-.351-.111-.24v-.213l.068-.193.016-.234-.09-.383-.548-.788-.244-.238-.156-.11-.205-.052-.259.012-.255.092-1.191.691-.876.207-.844.032-1.771.431-.548.041-.503-.072-.794-.285-.578-.094-.514.01-.638.076-.375-.012-.296-.079-.199-.132-.178-.169-.12-.185-.054-.229.029-.231.122-.214.363-.289.113-.16.041-.22-.054-.264-.095-.213-.239-.4-.074-.208-.011-.156.063-.129.119-.055.153.054.178.153.384.441.217.184.259.129.298.081.314.031.372-.011.316-.046.313-.094.275-.143.235-.171.171-.18.126-.171.076-.152.021-.106-.032-.117-.126-.05h-.185s-.749.245-.749.245l-.393.065-.415.012-.514-.108-.259-.148-.14-.198-.016-.154.022-.142.041-.099.061-.083.119-.032.171.024.264.123.205.068.178.018.156-.066.106-.11.023-.178-.065-.203-.32-.393-.086-.144-.027-.062-.025-.183.316-.638.189-.27.056-.189-.002-.082-.075-.028-.101.002-.151.027-.586.186-.627.153-.503-.008-.841-.098-.262.034-.164.076-.043.088-.027.078-.063.254-.048.105-.065.098-.097.11-.221.197-.052.068-.034.064-.036.125.162.712.011.246-.072.426-.074.163-.083.094-.108.053h-.111s-.113-.036-.113-.036l-.287-.139-.106-.007-.102.05-.499.441-.194.122-.138.042-.239.021-.253-.061-.259-.126-.379-.273-.18-.077-.176-.04-.174-.073-.133-.108-.28-.315-.246-.146-.28-.102-.37-.002-.126.096-.031.209.327.858.059.23.014.212-.02.225-.104.574.023.11.092.064.198.033.525-.005.273.026.41.128.178.035.176-.023.171-.05.162-.027.146.015.135.085.086.158-.014.268-.124.279-.061.216-.011.229.018.247-.048.349-.147.21-.21.159-.217.106-.232.048-.657.032-.199-.013-.194-.121-.129-.186-.194-.432-.113-.126-.289-.178-.111-.119-.066-.172-.07-.487-.084-.25-.11-.134-.172-.003-.097.12-.077.225-.038.622.022.499.047.181.181.31.013.205-.614,1.463-.516.873-.07.167-.059.239.002.169.047.161.097.118,1.683.489.286.156.198.216.034.37-.147.294-.255.295-.995.868-.092.196-.027.241-.011.279-.086.32-.146.241-.212.268-.043.181.07.136.185.063.237.011.833-.121.289.034.289.1.269.167.242.21.167.272.093.318.057.94.084.395.124.324.158.297.171.253.174.211.381.304.172.167.129.208-.005.161-.104.167-.124.165-.144.25-.668,1.99-.092.784-.014.588.027.351.048.269.176.227.269.507.11.581.022.312-.013.336-.07.395-.144.275-.167.224-.156.17-.151.199-.102.204-.237.748-.14.339-.155.257-.167.213-.528.506-.14.068-.435.097-.189.073-.984.664-.397.139-.893.269-.291.192-1.076.988-.226.311-.612,1.159-.023.253.054.204.129.179.102.095.099.058.147.057.533.104.526.21.183.028.417-.021.216.025.196.099.124.115.185.282.138.14.356.253.065.184-.154.141-.756.276-.961.65-1.076.262-1.284.683-.345.039-.318-.059-.268-.1-.255-.067-.356-.005-.219.048-.199.093-.14.108-.246.239-.307.198-.128-.353-.14-.274-.113-.118-.151-.098-.196-.085-.129-.087-.309-.532-.066-.196-.133-.234-.201-.274-.476-.304-.223-.096-.146-.006-.226.207-.113.07-.138.052-.183.036-.208-.063-.223-.165-.225-.393-.05-.304v-.282l.023-.249-.029-.228-.144-.232-.241-.216-.932-.492-.596-.614-.629-.537-.228-.065h-.138s-.05.089-.05.089l-.068.172-.043.082-.065.074-.097.059-.144.045-.124.022-.153-.033-.178-.077-.519-.571-.65-1.03-.11-.195-.145-.079-.242-.019-1.37.467-.214-.024-.374-.38-.187-.1-.677.059-.145-.248.189-.425.036-.25-.038-.196-.135-.267-.092-.238-.02-.367.065-.323.025-.397-.09-.362-.365-.483-.253-.147-.233-.004-.173.121-.347.336-.21.151-.189.061-.163-.053-.059-.088-.016-.23.032-.278.005-.472.043-.193.072-.161.038-.122-.016-.13-.124-.194-.083-.088-.154-.078-.458-.079-.226-.096-.187-.182-.14-.254-.113-.326-.101-.204-.12-.157-.145-.089-.145-.037-.578.031-.061-.059-.021-.132.142-.854.009-.233-.038-.471.011-.231.072-.199.126-.176.277-.197.252-.138.217-.168.097-.102-.099-.523-.208-.323-.118-.267-.011-.047-.007-.099.007-.407-.048-.249-.129-.289-.598-.895-.128-.064-.151.096-.119.174-.201.498-.122.218-.156.2-.156.126-.675.452-.178-.012-.275-.264-.379-.464-.07-.166-.056-.3-.072-.15-.124-.136-.348-.155-.129-.093-.239-.303-.142-.11-.395-.196-.176-.201-.097-.186-.126-.381-.262-.469-.031-.19.048-.237.472-1.241.108-.133.151-.115.146-.154.057-.153.018-.171.036-.102.077-.015.176.038.243.027h.264l.205-.054.133-.066.133-.134.093-.179.058-.245-.011-.202-.07-.147-.14-.07-.126.012-.183.109-.115.096-.106.037-.135-.013-.878-.303-.176-.083-.135-.105-.099-.126-.031-.094.005-.093.149-.412.04-.397v-.412l-.023-.145-.041-.133-.013-.026-.027-.048-.068-.068-.198-.036-.307.033-.56.19-.259.049-.172.012-.092.017-.09.061-.178.189-.095.151-.076.152-.029.113-.011.091-.004.262-.016.135-.023.085-.047.078-.054.068-.034.093-.011.079.002.195-.012.095-.036.113-.065.097-.092.105-.436.304-.232.062-.241-.009-.634-.215-.438-.095-.686-.011-.855-.06-.232-.069-.28-.113-.237-.183-.135-.145-.097-.173-.199-.525-.097-.175-.102-.141-.162-.111-.165-.055-.329-.04-.248-.055-.28-.103-.761-.505-.194-.066-.338-.028-.178.038-.119.06-.043.051-.034.056-.047.09-.28.993-.038.066-.054.069-.054.051-.084.049-.115.032-.138-.016-.137-.081-.145-.215-.151-.347-.176-.32-.056-.143-.023-.194.005-.037.034-.167-.02-.143-.086-.108-.284-.043-.201.016-.219.044h-.151l-.145-.05-.118-.146-.068-.143-.05-.16-.068-.083-.135-.06-.275-.032-.205-.003-.246-.066-.239-.137-.345-.298-.115-.165-.027-.13.061-.078.088-.055.102-.032.816-.061.199-.045.145-.063.065-.077.022-.112-.016-.152-.086-.135-.156-.062-.278.033-.636.157-1.036.102-.582-.075-1.275-.429-.325-.229-.207-.413-.135-.215-.176-.128-.286.035-.83.213-.138.072-.093.074-.278.339-.165.136-.228.085-.248.023-.33-.093-.142-.113-.178-.268-.111-.071-.162-.019-.183.031-.268.123-.137.138-.068.149-.005.12.02.252-.031.105-.126.049-.237-.008-.401-.132-.156-.14-.075-.203-.045-.188-.106-.106-.206-.029-1.721.383-.259.007-.295-.085-.181-.111-.323-.266-.332-.083-.453-.034-1.335.031-.338.087-.185.108-.526.397-.264.121-.262.043-.35-.073-.388-.182-.243-.043-.451.077-.278.09-.226.117-.269.2-.286.016-.221-.016-1.609-.459-.747-.504-.523-.102-.342-.531-.587-1.665-1.045-1.635-.483-1.002-.381-1.054-.581-2.625-.197-.456-.298-.382-1.096-.951-.582-.655-.205-.381-.079-.449-.14-.479-.697-.759-.277-.402-.137-.665.108-2.193.081-1.682-.063-.783-.374-.516-.696-.143-.657.192-.656.286-.685.145-2.035.055-.981-.213-.68-.244-.267-.199-.257-.447-.356-1.062-.32-.396-.719-.623-.682-.813-.551-.926-.323-.969-.006-.292.15-.999.017-.686.076-.318.934-1.556.259-.712.082-.706-.132-.776-.027-.374.095-.377.16-.401.058-.334-.061-.765.103-1.59-.084-.711-.495-.626-.624-.346-.654-.168-4.18.17-.753-.286-1.252-1.12-.709-.478-2.698-1.112-.544-.608-.135-.798.363-2.307.375-2.391.467-1.466.715-1.221,1.573-1.586,1.121-.784,2.04-1.947,1.044-1.693,1.485-1.439.406-.576,1.283-3.767.196-.355,1.513-1.565.173-.179,1.195-.867.975-1.08.314-.216.305-.095.673-.104.672-.268.336-.087.365.05.514.162.489.255.433.343.575.665.492.398.208.245.146.398-.069.725.054.38.539,1.245.672.976.893.613,1.213.162,1.429-.319,1.977-.981,2.139-1.062,1.315-.449,1.479-.32,1.501-.13,1.379.116,1.453-.119,2.445-.748,2.771-.85.235-.186.097-.298.201-2.393.093-.362.198-.393,1.388-1.815,2.134-1.758.677-.71.481-.85.35-.94,1.02-3.95.413-.819,1.291-1.578.48-.332,2.493-1.301,2.31-1.206,1.981-1.034,2.242-1.172.289-.202.212-.293.566-1.368.447-.748,1.081-1.458,1.356-2.619.853-1.65.954-1.85.902-2.926.742-2.419.745-2.435.259-.299,3-1.402,3.161-.717.67-.377,2.886-2.419.043-.316Z"/>
    <path class="cls-1" d="M155.074,94.562l.49,1.055.688,1.021.059.205-.07.125-.117.117-.088.18-.032.254.025.119.05.096.415,1.873-.023.443-.088.369.029.255.184.061.008.003.13.043.636.344.381.536.293.632,1.694,2.326.505.402.762.452.203.202.187.417-.045.384-.379.865-.104.405-.131.86-.11.389-.456.707-.056.334.429.484-.007.178-.045.194.011.201.084.152.216.261.138.357.097.148.128.107.147.041.318-.012.647.667.409.536-.084.251-.296.328-1.694,1.397-.072.444.654.413.514.459-.043.67-.253.78-.122.781.041.349.074.195.14.124.544.277.201.003.451-.113.463.056.232-.012.268-.137.026-.026.328.494.129.151.541.552.474.753.517.803.065.326-.066.333-.551.181-.253.035-.239.033-1.106-.07-.404-.266-.221-.236-.241-.354-.332-.719-.137-.144-.248-.054-.435.01-.537-.094-.614-.041-.359.031-.26-.022-.316-.11-.199-.11-.291-.076-.408-.021-.726.092-.366.1-.311.04-.174-.053-.3-.197-.539-.608-.156-.123-.151-.044-.241.052-.165-.009-.183-.126-.088-.167-.128-.103-.174-.047-.352.003-.616-.094-.271.005-.228.079-.864.59-.841.265-1.198.686-.806.586-.541.263-.208.047-.327.016-.785-.143-.19-.003-.203.068-.212.155-.541.551-.555.711-1.04,1.056-.131.185-.043.202.19.369.022.183-.106.239-.154.164-.158.079h-.149l-.18-.076-.151-.031-.118.111.007.219.21.385.162.168.172.091.133.131.066.219.009.485-.108.443-.23-.005-.081-.058-.156-.142-.147.017-.176.268-.219.672-.406.905-.041.359.063.285.485.473.076.331.016.438.072.247.278.338.075.155.106.518-.031.191-.099.183-.314.213-.034.106.392.691.135.171.194.06.239.02.181.035.084.106.022.129.005.177-.041.208-.194.255-.176.022-.402.183-1.389.863-.411.185-.356.076-.368.021-.444.082-.381.166-.183.278.038.17.242.35.063.12-.022.015-.789-.434-.436-.424-.284.006-.158.074-.23.051-.232.021-.339-.016-.129-.062-.016-.085.282-.321.074-.145-.032-.122-.128.009-.566.375-.264.112-.286.016-.172-.13-.092-.145-.108-.138-.149-.066-.819-.143-.198-.082-.275-.192-.612-.308-.462.275-.109-.027-.07-.121-.025-.097-.023-.247-.93-.773-.237-.315-.07-.287.158-.297.106-.249.05-.279-.034-.558.07-.532-.032-.301-.129-.283-.26-.369-.189-.216-.49-.324-.758-.448-.532-.201-.194-.138-.056-.135.007-.124-.072-.239-.138-.126-.163-.092-.23-.061-.129-.097-.133-.175-.086-.23-.081-.375-.093-.219-.178-.24-.313-.343-.278-.049-.23.025-.25.075-.262-.039-.162-.093-.151-.174-.149-.352-.07-.069-.11-.029-.122.025-.119.055-.257.2-.158.153-.074.106-.806-.677-.374-.418-.957-.754-.34-.35-.18-.273-.077-.223-.057-.219-.032-.206.004-.209.034-.174.065-.156.199-.37-.023-.187-.334-.217-.047-.154.027-.862.025-.165.065-.144.266-.313.115-.239-.084-.13-.162-.051-.42.049-.135-.017-.016-.074.097-.378-.049-.205-.129-.25-.084-.107-.081-.06-.052.01-.054.067-.11.229-.074.113-.072.064-.074.02-.097-.085-.05-.14-.038-.242-.092-.142-.101-.069-.237-.039-.063.005-.039.041-.03.052-.05.065-.081-.029-.144-.124-.14-.257-.104-.094-.097.017-.07.086-.12.095-.093.023-.14-.053-.102-.367-.359-.755-.682-1.299-.237-.224-.066.081-.054.085-.059.046-.079.034-.399.109-.09.225.102.761-.056.21-.092.078-.23-.038-.115.086-.063.168-.054.299-.101.178-.115.106-.122.025-.126-.035-.318-.146-.203.013-.14.038-.383.175-.375-.232-.365-.406-.199-.321-.104-.307-.262-1.235-.963-2.71-2.215-4.218-.345-.702-.029-.163.018-.212.086-.107.128-.06.131-.005.224.037.113-.005.111-.074-.004-.119-.066-.157-.639-1.205-.627-.938-.203-.376-.322-.208-1.033-.471-.85-.545-.806-.356-.117-.128-.269.062-.381-.15-1.056-.174-.171-.064-.189-.094-.054-.143.075-.175.995-1.115.171-.299.12-.269.085-.289-.022-.134-.101-.054-.109.008-.097.042-.074.045-.097.048-.124.003-.183-.12-.106-.27-.039-.324.038-.287.086-.225.095-.105.07-.051,1.212-.281.332-.14.275-.181.262-.234.636-.762,1.36-1.093.839-.478.119-.118.022-.13-.038-.122-.713-1.401-.075-.105-.169-.199-.16-.044.133-.196.21-.435-.022-.269.516-.745.302-.281.131-.081.038-.059.054-.272.005-.218-.023-.221-.345-.808-.059-.237.034-.689.171-.397-.014-.128-.054-.222-.104-.183-.289-.373-.1-.188-.076-.18-.12-.202-.192-.25-.596-.636-.217-.285-.118-.295-.027-.276.061-.241.135-.167.205-.129.341-.086.217.002.192.044.42.189.162.039.149.062.142.116.28.351.133.105.192-.067.309-.199,1.372-1.204.418-.491.108-.155.332-.253.903-.397.728-.227.37-.161.366-.256.429-.474.158-.353.059-.27.009-.21.109-.2.23-.236,1.026-.665.754-.364,2.006-.403.526-.323.28.029.927.776.244.096,1.979-.168.255.059.246.16,1.056,1.266.329.222.95.847.426.576.219.239.277.19.762.368,1.539,1.176.823.484,1.462.51,2.238.716.393.004.111-.106.126-.244.07-.075.086-.046.869-.094.586-.139.35-.165.715-.187.253-.104.232-.133.246-.189.46-.481.144-.121.158-.066.322-.094.151-.091.138-.124.233-.266.031-.021.334-.158.154-.107.156-.026.153.039.199.228.167.302.401.503,1.018,1.076.593.769.618,1.442.296.251.212.32.108.262.059,1.06.108.319.189.26.426.459.162.253.09.294.109.275.248.206.596-.022.275-.143.189-.247.124-.207.122-.096.156-.079.1-.098.092-.166.183-.12.296-.077.397-.053.417-.302.226-.067.287-.003.345.041.275-.057.176-.102.259-.366.185-.119.447-.164.16-.123.057-.168-.038-.348.039-.085.129-.043.151-.023.338-.016.124.021.108.049.065.084.054.147.129.507.043.305.016.31-.065.62-.048.244-.054.176-.11.184-.171.167-.446.283-.339.264-.162.183-.081.154-.113.272-.111.622-.081.261-.137.277-.063.302.063.267.142.215.199.151.162.054.181-.022.79-.899.384-.255Z"/>
    <path class="cls-1" d="M134.564,168.016l.277.657-.181.427.239.331.124.424,1.387,1.242.108.263.068.222.011.171.021.124.259.721.054.207.011.152-.032.131-.075.118-.09.099-.264.236-.102.119-.07.136-.056.279.093.128.42.85-1.002.186-.21.085-.284.167-.262.258-.061.137.054.13.118.107.092.134.045.116-.011.1-.088.092-.167.103-.55.099-.715-.263-.268-.185-.408-.231-.226-.166-.124-.143-.07-.134-.178-.551-.059-.122-.084-.092-1.173-.597-.102-.014-.109.032-.102.165-.005.234-.129.061-.259.051-.963.077-.602.171-.041-.18-.013-.094-.036-.108-.072-.119-.097-.112-.26-.24-.135-.165-.023-.153.056-.163.363-.361.167-.341.086-.104.19-.08.316-.049.154-.041.097-.106.045-.401.065-.165.302-.275.133-.223-.048-.229-.111-.218-.029-.124.023-.3-.065-1.017.016-.25.027-.199.122-.23.189-.181.42-.23.435-.144.566.023.318-.263.092-.141.144-.164.156.002.797.223.225.101.23.072.108.006.792-.299Z"/>
    <path class="cls-1" d="M127.851,129.895l-.05.231.029.149.106.271.081.142.038.137.005.154-.079.265-.056.38.147.452-.271-.05h-.084s-.113.011-.113.011l-.097.059-.165.15-.081-.023-.086-.079-.104-.146-.165-.148-.51-.627-.503-.43-.065-.095-.047-.133-.029-.154.011-.161.045-.097.119-.102.656-.304.286-.042.278-.009.706.199Z"/>
    <path class="cls-1" d="M141.242,138.054l.023.045.027.206-.05.907-.26.941-.325.337-.729.581-1.132,1.173-.521.425-.149.217-.043.575-.577.328-.541.535-.273.106-.052.085-.02.113-.021.281-.047.019-.075-.019-.097.046-.074.022-.205-.035-.079.013-.081.104-.016.116v.108l-.032.081-.647.682-.176.136-.156.318-.196.636-.508,2.484-.323.658-.099.043-.133-.018-.138.005-.115.107-.029.17.049.165.074.152.036.132-.066.21-.164.17-.374.238.126.4-.453.472.101.351-.135.335.054.248.12.214.068.234-.113.157-.248.095-.25.136-.113.279.039.138.171.241.038.169-.027.333-.038.162-.054-.014.206.227.481-.063.262.231-.225.289-.602.579-.124.303.198.018.447-.06.485.011.305.228.029.229-.077.156-.115.136-.084.169-.018.158.018.587.07.18.133.192.077.209-.092.232-.187.245-.057.172.185,2.976-.02.122-.045.063-.045.039-.02.052.032.157.075.074.084.042.056.06.368,1.249.458.769-.102.185-.212.15-.038.347.465.407.129.145.126.227.066.183-.014.165-.118.173-.214.405-.792.299-.108-.006-.23-.072-.225-.101-.797-.223-.156-.002-.144.164-.092.141-.318.263-.566-.023-.435.144-.42.23-.189.181-.122.23-.027.199-.016.25.065,1.017-.023.3.029.124.111.218.048.229-.133.223-.302.275-.065.165-.045.401-.097.106-.154.041-.316.049-.19.08-.086.104-.167.341-.363.361-.056.163.023.153.135.165.26.24.097.112.072.119.036.108.013.094.041.18.602-.171.963-.077.259-.051.129-.061.005-.234.102-.165.109-.032.102.014,1.173.597.084.092.059.122.178.551.07.134.124.143.226.166.408.231.268.185.715.263.55-.099.167-.103.088-.092.011-.1-.045-.116-.092-.134-.118-.107-.054-.13.061-.137.262-.258.284-.167.21-.085,1.002-.186.135.233.146.189.162.127.181.047.237.105.029.231-.045.23.022.105.136-.045.3-.191.092-.033.137.079.029.102.005.114.124.237.011.123.052.098.183.04.312-.117.158.006.068.184-.027.555.131.106.37-.038-.433,1.038-.097.495.372.319.027.248-.011.271.034.176.223.134.44.064.169.204-.106.037-.074.065-.043.099-.014.139-.075.166-.165.074-.165.036-.081.053.079.24.471.074.174.234-.546.211-.214.361.014.507.14.649-.593-.389.016.262.101.546-.145.483.203.203.278.159.14.158.147.404.246.492.048.43-.366.181-.25.342-.086.113-.156.43-.172.195-.187.06-.215-.087-.194-.055-.194.029-.467.513-.128.075-.647.135-.198.157-.142.079-.124.038-.095.008-.131.065-.113.078-.454.443-.485-.091-.257.344-.075.063-.065.011-.113-.064-.093-.134-.111-.19-.104-.095-.111.026-.102.262-.092.088-.183-.018-.081-.119-.065-.152-.079-.086-.115.009-.262.334-.158.111-.289.021-.316-.084-.575-.248-.234-.023-.203.079-.156.302.004.204.102.152.528.251.135.13.03.154-.106.098-.898.096-.246.12-.212.258-.216.541-.144.192-.564-.02-.523.194-.187-.1-.07-.06-.075-.102-.022-.115.063-.13.075-.062.332-.109.038-.049-.009-.082-.086-.124-.086-.088-.075-.105-.065-.125v-.19l.253-1.39.065-.148.316-.464.056-.108.031-.111.022-.146-.065-.691.054-.29-.004-.159-.038-.192-.104-.309-.014-.206.011-.163.032-.127.02-.122-.022-.16-.052-.189-.14-.345-.072-.341-.009-.353.054-.32.296-1.079.016-.242-.032-.215-.088-.209-.162-.184-.666-.542-.154-.174-.174-.296-.07-.093-.128-.123-.12-.065-.122-.032-.162.011-.144.049-.368.232-.133.146-.117.177-.113.312-.433.528-.375.234-.122.116-.325.254-.187.091-.113.077-.18.2-.144.123-.264.147-.135.118-.09.094-.045.11-.025.119-.007.118.029.158.063.183.18.417.025.153-.025.085-.147.067-.226.048-.379.039-.194.06-.226.099-.056.04-.07.074-.278.366-.135.101h-.111s-.164-.148-.164-.148l-.081-.127-.063-.153-.167-.717-.07-.167-.092-.074-.111-.02-.232.013-.172-.021-.641-.308-.075-.106.022-.11.102-.077.332-.105.072-.047.009-.053-.054-.068-.065-.063-.402-.249-.085-.125-.029-.13.027-.099.07-.026.11.017.201.079.147.043.135.011.057-.03-.009-.093-.065-.132-.44-.666-.151-.096-.215-.008-.312.095-.806.136-.092-.027-.092-.069-.072-.089-.057-.109-.049-.131-.065-.12-.084-.096-.11-.069-.21-.069-.199-.095-.108.034-.092.134.038.313.11.187.144.138.302.167.108.096.054.133-.036.139-.081.076-.318.068-.113.05-.083.1.039.181.106.101.264.107.151.085.124.149.047.197-.057.241-.178.23-.259.059h-.232l-.661-.562-.224-.053-.115.007-.092.046-.172.125-.122.04-.154.016-.137-.017-.372-.105-.1.007-.101.025-.093.055-.057.097-.056.141-.065.267-.036.212.004.27.14.551.23.664.034.277-.023.403.007.26.101.219.216.16.054.089.045.147.025.268.045.193.057.142.065.112-.032.135-.07.141-.523.386-.623-.457-.397-.408-.488-.047-1.604.225-.215-.101-.128-.16-.083-.284-.027-.188-.011-.164-.074-.118-.099-.117-.553-.342-.09-.382.097-.311.065-.044.401.065.162-.044.088-.064.059-.099.167-.151.022-.139-.093-.202-.108-.106-.167-.124.002-.03.022-.05.076-.128.084-.074.108-.117.056-.14.048-.296.068-.162.327-.296.26-.338.074-.181-.014-.194-.129-.126-.131-.036-.124.04-.099.063-.059.063-.151.214-.081.081-.108.038-.099-.031-.435-.325-.097-.138-.027-.148.081-.203.111-.112.163-.112.194-.091.375-.134.11-.072.133-.126.189-.333.111-.138.115-.053.118.047.262.319.162.139.178.068.117-.099.013-.215-.183-.414-.126-.196-.187-.196-.086-.113-.149-.402-.228-.399-1.189-1.595-.799-.81-.429-.376-.233-.082-.257-.057-.431-.167-.275-.225-.205-.041h-.118l-.144.074-.165.017-.156-.084-.072-.253.04-.199.059-.149-.023-.131-.171-.174-.341-.177-.783-.648-.453-.681-.194-.179-.084-.06-.126-.154-.436-.639-.241-.268-.291-.422-.235-.505-.521-1.691-.347-.756-.065-.237.029-.311-.048-.281-.314-.521-.101-.337-.149-.576-.118-.389.021-.121.038-.128.095-.086.225-.147.147-.124.081-.177.011-.224-.048-.218-.065-.151-.081-.079-.124-.067-.738-.275-.151-.121-.489-.787-.302-.384-.145-.237-.092-.216-.016-.18.007-.17.038-.141-.018-.109-.057-.132-.155-.21-.061-.18-.027-.148.023-.122.054-.082.108-.06.255-.048.07-.034.045-.057.025-.099.005-.115-.014-.123-.038-.119-.217-.403-.052-.373-.059-.098-.122-.016-.291.127-.153.127-.113.128-.097.084-.092.008-.154-.105-.081-.132-.027-.146.013-.135.119-.442.009-.137-.048-.127-.101-.058-.153.005-.639.333-.068.073-.038.09-.018.1-.036.089-.104.076-.21.083-.372.066-.246-.013-.289-.207-.131-.12-.146-.06-.129.02-.257.271-.16.118-.35.062-.151.059-.257.164-.142.035-.165.019-.162-.017-.14-.075-.115-.13-.167-.431-.106-.195-.124-.148-.221-.097-.203.01-.348.197-.075.011-.131-.006-.176-.041-.104-.046-.118-.129-.117-.185-.201-.432-.155-.447-.032-.167-.048-.123-.095-.137-.318-.247-.163-.085-.228-.083-.336-.083-.149-.058-.27-.169-.174-.025-.171.016-.219.095-.18.13-.214.198-.163.187-.165.118-.151.038-.268-.01-.587-.125-.092.002-.499.085h-.228s-.11.015-.11.015l-.118.048-.072.096-.041.138-.05.253-.059.099-.084.05-.156.004-.167-.032-.133-.111-.11-.167-.162-.397-.138-.224-.264-.338-.081-.158-.108-.262-.199-.293-.084-.092-.038-.112.005-.153.09-.222.138-.102.124-.041.507.023.14-.026.126-.056.083-.141.056-.204.065-.644-.032-.209-.16-.258-.302-.347-.119-.235-.065-.332.149-1.684.083-.336.253-.699.061-.317-.025-.254-.122-.204-.102-.075-.131-.022-.086.036-.068.067-.115.141-.065.032-.084.014h-.216s-.124.026-.124.026l-.118.075-.189.157-.135.07-.156.046-.138.011-.171-.016-.183-.056-.173-.09-.109-.148-.041-.225.036-.382.088-.332.165-.353.102-.137.066-.063.149-.042.528-.239.171-.114.126-.13.092-.156.047-.173-.014-.188-.07-.18-.169-.17-.154-.105-.137-.16-.07-.112.038-.635,1.065.267.954.379.312.015.065-.06.086-.135.137-.275.086-.115.102-.098.568-.399.149-.061.117-.025.334.006.383-.046.677-.21.174-.021.124.026.059.074.104.167.072.087.079.06.19.058.887.157.172.071.092.058.154.14.065.094.027.075.043.227.038.122.066.113.077.081.406.261.095.088.092.107.083.08.192.115.154.005.26-.057.485-.165.214-.04.14-.049.086-.056.063-.098.032-.098.027-.132.002-.11.032-.136.07-.088.165-.069.118.079.061.114.016.153.004.167-.011.182-.031.153-.045.113-.052.06-.059.049-.038.041-.011.056.014.042.097.156.029.076.009.099-.052.333.036.141.086.11.408.213.093.097.108.154.079.084.05.021.038-.021.025-.05.066-.413.032-.071.054-.072.09-.062.251-.115.142-.031.092.041.054.1.027.264.041.147.059.134.156.257.318.43.092.175.038.102-.002.062-.038.026-.063.02-.092.01h-.095l-.059-.007-.07-.016-.065-.006-.045.011-.032.044-.016.073-.005.137.039.316.004.145-.004.065-.027.046-.104.079-.27.152-.074.025-.097.047-.038.038.004.065.038.101.314.331.025.075v.07l-.02.053-.061.099.016.077.07.116.217.204.118.14.074.133.022.094.007.097.022.076.099.21.038.12.104.455.242.039.338-.195.474-.104.113-.112.031-.173-.07-.169-.102-.149-.065-.126.013-.199.106-.247.259-.442.172-.128.145-.004.102.037.122-.039.034-.161-.011-.165.02-.154.146-.169.401-.348.14-.186.417-.78.395-.486.248-.406.117-.06.151.026.291.147.578.253.331.029.162-.022.149.059.474.299.505.097.334-.049.318-.118.37-.045.614.126.214-.045.118-.135.022-.16-.025-.165.047-.165.128-.154.551-.267.465-.144.19.016.162.031.257.077.153.074.384.32.108.17.26.646.041.07.194.225.372.022.553.191h.296s.237-.088.237-.088l.365-.195.216-.076.483.034.21-.066.142-.125.562-.751.72-.326.374-.095.242-.136.397-.305.517-.266.203-.206.013-.182-.126-.145-.329-.198-.119-.113-.09-.167-.049-.178-.075-.193-.045-.156-.025-.193.02-.183.097-.377.341-.961.124-.236.149-.18.05-.078.02-.085-.03-.082-.045-.096-.031-.082-.013-.1.005-.13.054-.081.086-.049.377-.064.111-.074-.025-.078-.113-.077-.48-.177-.097-.062-.101-.094-.059-.102-.018-.149.077-.107.14-.13.119-.046.14.023.503.401.156.098.131.039.214.024.226.072.149.02.158-.013.167-.106.054-.099-.005-.13-.032-.14.005-.169.092-.056.097.008.122.093.205.257.102.105.081.038.09-.009.102-.059.066-.115.162-.38.027-.095-.002-.102-.032-.1-.063-.124-.04-.119.029-.167.117-.09.129-.038.128.011.104.066.07.11.178.735.138.322.194.323.102.13.129.092.426.125.183.111.596.025,1.015-.8.609-.376.079-.095-.014-.222.027-.164.149-.303.038-.17.011-.148-.031-.084-.04-.065-.07-.06-.09-.046-.226-.07-.102-.068-.07-.078-.048-.093-.036-.104-.022-.102-.027-.074-.05-.074-.068-.056-.077-.029-.068.017-.086.072-.284.378-.088.078-.108.051-.079.011-.104-.042-.068-.103-.04-.192.104-.211.192-.188.25-.148.713-.251.194-.101.35-.231.226-.116,1.119-.807.268-.25.124-.15.058-.117-.02-.074-.086-.052-.205-.049-.058-.036-.032-.067-.013-.09.088-.588.048-.118.059-.072.438-.21h.248s.336.152.336.152l.208.002.539-.085.162.057.113.135.101.257.156.559.16.29.196.081.183-.059.162-.216.079-.242.036-.234-.011-.197-.16-.732-.025-.272.005-.622.036-.149.034-.083.104-.162.076-.158-.011-.126-.074-.129-.133-.168-.083-.173.023-.348.122-.633v-.124l-.036-.121-.056-.115-.09-.337-.077-.13-.128-.075-.131-.02-.101-.047-.092-.088-.109-.605-.027-.074-.027-.051-.041-.014-.043.005-.079.047-.065.018-.189-.038-.147-.452.056-.38.079-.265-.005-.154-.038-.137-.081-.142-.106-.271-.029-.149.05-.231.262-.395.088-.276.02-.136-.011-.134-.043-.129-.07-.079-.111-.058-.239-.068-.117-.075-.086-.118-.198-.467-.135-.244-.167-.208.074-.106.158-.153.257-.2.119-.055.122-.025.11.029.07.069.149.352.151.174.162.093.262.039.25-.075.23-.025.278.049.313.343.178.24.093.219.081.375.086.23.133.175.129.097.23.061.163.092.138.126.072.239-.007.124.056.135.194.138.532.201.758.448.49.324.189.216.26.369.129.283.032.301-.07.532.034.558-.05.279-.106.249-.158.297.07.287.237.315.93.773.023.247.025.097.07.121.109.027.462-.275.612.308.275.192.198.082.819.143.149.066.108.138.092.145.172.13.286-.016.264-.112.566-.375.128-.009.032.122-.074.145-.282.321.016.085.129.062.339.016.232-.021.23-.051.158-.074.284-.006.436.424.789.434.022-.015Z"/>
    <path class="cls-1" d="M144.061,33.203l-5.61,3.51-6.53,4.07-.11.07-.34.44.07.51.15.59-.12.65-.27.36-1.04.84-.34.38-.22.17-.26-.05-.46-.3-.47-.13-.62.06-.61.2-.42.34-.14.48.07,1.14-.17.4-1.58,1.52-.23.12-1.5.33-.3-.01-.28-.11-.75-.56-.67-.1-.67.25-2.39,1.39-1.86.49-.58.01-1.1-.47-.61.13-.28.25-.36.62-.23.28-.12.07-.47.15-1.14.85-1,1.05-.35.29-.33.08-.73-.1h-.37l-1.01.25-.77-.03-4.58-1.24-.71-.35-.69-.51-.28-.31-.25-.4-.21-.14-.2-.13-.64-.01-1.14.25-1.62.08-6.13-1.23-4.39-1.61-1.1-.19-1.1.1-1.11.44-1.3.97-.45.23-2.76.48-.24.11-.51.43-.03.49.14.54.01.6-.26.42-.83.58-.28.48v.01l-.01.26c-1.53-.82-1.61-1.95.53-1.98-.73-.44-2.63-1.02-1.72-2.27.71-.96,2.56-.02,3.3-.71.32-.31.24-1.24.48-1.65.32-.57.97-1.11,1.5-1.51.99-.76,1.83-.8,3.04-.98,1.9-.28,1.82-.79,2.81-2.39.39-.63,1.68-1.81,1.7-2.55.04-1.62-1.58-.81-2.95-1.02-1.17-.18-1.83-.65-2.67-1.56-1.63-1.77-3.21-3.42-4.34-5.37-1.37-2.34-2.37-3.74-4.9-4.81-1.92-.81-3.83-3.45-6.11-2.86-.98.25-1.99,1.46-3.33.83-1.72-.82-.37-1.95-.6-3.24-.26-1.56-2.05-1.47-2.55-2.77-.65-1.71.46-3.44,1.67-4.25,2.16-1.44,6.42-1.45,6.6-5.05,2.09-.1,3.46.15,5.03-1.26,1.08-.98,1.62-2.12,3.23-2.6.99-.3,3.25-.57,4.24-.18,1.24.5,1.73,1.93,3.23,2.13-.78-1.23-1.04-2.59-2-3.72-.4-.48-1.59-.17-1.03-1.37.23-.51,1.27-.57,1.75-.53,1.27.11,6.01,4.89,5.39.89.82-.03,1.67.03,2.49-.02.27-.02.82.12,1.07,0,.74-.34.3-.61.83-1.03,1.3-1.01.88-.47,2.13-.36,1.6.12.54.36,1.61-.65.4-.38.52-1.26,1.54-1.03,1.23.29.22,1.36,1.29,1.89.48.25,2.05-.04,2.56-.18.34-.1.73.1,1.07-.03.3-.11.28-.77.76-.94.46-.16,3.61-.27,4.38.11,1.07.54.38.77.67,1.89.37,1.46,1.53,2.19,2.89,2.9,1.33.7,1.68.67,2.39,1.84.53.87.67,1.89,1.47,2.7.8.82,3.04,3.34,4.05,3.76,1.96.82,2.32-.35,3.83,1.59,1.24,1.59,2.82,3.04,4.27,4.26.54.45,1.51,1.01,1.67,1.69.18.77-.6,1.75-.49,2.61.25,1.91,1.9,3.42,3.71,3.32,1.65-.08,3.94-1.5,5.07-1.04.58.24.88,1.37,1.26,1.79.76.84,1.93,1.37,2.66,2.18,1,1.11,1,2.57,2.31,2.7Z"/>
    <path class="cls-1" d="M185.431,39.843c-.49,1.14-.72,2.52-1.17,3.73-.44,1.17-1.5,2.32-1.53,3.55.73.29.94,1.39.44,1.91-.51.52-2.42.37-3.12.65-.76.31-2.21.73-2.57,1.62-.3.73.3,1.31-.11,1.97-.67,1.07-1.58.4-2.52,1.04-.87.58-1.31,2.05-1.62,2.95-.26.75-.4,4.36-1.74,3.42-.57.64-.78,1.61-1.01,2.42-1.09-.12-1.87-1.43-3.1-1.71-.9-.21-3.49-.39-4.26.34-1.59,1.49,2.16,3.53,2.02,5.63-.07,1.12-1,1.61-1.15,2.69-.15,1.01.57,1.99,1.07,2.78,1.83,2.89,4.25.17,6.59,1.72,1.82,1.21-.28,3.54.22,5.12.21.66.85,1.68,1.12,2.55.36,1.19.35,2.48.7,3.6.51,1.66,1.9,3.2.76,4.16l-.34-.39-.48-.53-.17-.6-.12-.63-.34-.64-1.01-.91-.35-.54-.01-.77.11-.39.07-1.09.13-.39.38-.56.15-.32-.06-.76-.59-.31-1.39-.06-.61-.21-1.32-.71-.55-.05-.6.28-.15-.12-.03-.48-.07-.39-.22-.28-.3-.18-.3-.14-.64-.2-.27-.15-.97-1.59-.03-.03-1.59-1.52-.41-.69-.34-1.22.22-3.97-.12-1.34-.29-1.33-.86-2.55.16-1.77,1.32-.91,1.69-.74,1.27-1.23.16-.48.05-.48-.05-.49-.16-.48-.34-.64-.1-.19-.5-.49-.63-.28-.81-.23-.66-.38-.88-1.18-1.5-1.16-.99-.42-3.96-.68-.77-.33-.68-.64-.4-.72-1.07-3.98-.16-.37-.7-.91-.24-.72-.16-1.6-.16-.78-1.63-2.93-.61-1.58.15-1.67.49-1.07.31-1.17-.2-.82-1.01-.05-.49.25-.79.88-.51.21-.45-.12-.4-.33-.33-.45-.26-.47-.16.1c.07-.16.15-.31.26-.35.86-.31,2.1.02,2.99-.03,1.57-.1,1.29-.27,2.33-1.01,1.59-1.12,2.9-2.08,4.05-3.38.69-.79,1.35-1.62,2.39-1.92,1.43-.4,2.6.24,3.89-.58.83-.52,1.13-1.51,2.2-1.63.95-.11,1.83.7,2.82.69,1.32,0,6.14-1.39,6.75-2.25.84.41,1,1.41,1.35,2.22,1.18.06,2.66-.29,3.56.49.45.39.09,1.13.67,1.64.88.77,3.03-.17,4.08.39.84.46,1.55,1.74,2.31,2.4.89.79,2.64,1.8,3.28,2.85,1.83,3.02-1.24,5.07-2.32,7.59Z"/>
  </g>
  <text class="cls-2" transform="translate(41.022 213.886)"><tspan x="0" y="0">NORTHERN</tspan></text>
</svg>