<?xml version="1.0" encoding="UTF-8"?>
<svg id="India" xmlns="http://www.w3.org/2000/svg" version="1.1" viewBox="0 0 162.92 142.578">
  <defs>
    <style>
      .cls-1 {
        fill: #fff;
        font-family: Helvetica, Helvetica;
        font-size: 12px;
      }

      .cls-2 {
        fill: #65c2a5;
        stroke: #fff;
        stroke-miterlimit: 10;
        stroke-width: .25px;
      }
    </style>
  </defs>
  <g>
    <path class="cls-2" d="M162.117,22.849l.09.539-.517,1.192-.104.67.237.498.844.913.124.551-.095.28-.291.563-.076.317.011.439.032.228-.081.145-.323.187-.383.138-.074-.133-.011-.262-.203-.246-.273-.033-.338.082-.318.159-.208.2-.224.318-.277.313-.875.79-.149.092-.187.058-.111.072-.137.284-.104.108-.345.123-.122.102-.057.208-.029.252-.063.072h-.108l-.25.075-.559.169-.228.149-.589.753-.304.274-.692.479-.282.257-.232.336-.14.386-.002.408.072.194.194.3.052.18.013.184.063.362.066.169.031.286-.23.573.076.369.413.696,2.829,3.722.48.502.101.155.007.35.047.18.128.139.158.095.147.117.095.205-.031.15-.176.503-.065.124-.228.091-.14-.064-.14-.122-.221-.083-.178.024-.142.062-.191.083-.171.015-.196-.086-.137-.14-.122-.162-.154-.145-2.392-1.109-.393-.328-.016-.308.165-.326.146-.38-.102-.156-.557-.473-.205-.247-.361-.626-.223-.246-.304-.216-.604-.283-.329-.087-.312-.019-.198.079-.289.316-.178.101-.219.013-.124-.061-.106-.097-.156-.092-.474-.101-.189.159-.149.333-.35.425-.269.154-.363.118-.363.034-.268-.09-1.162-.054-4.609.791-1.189.538-1.06.759-.666.931-.634,1.223-.381.554-.48.472-.476.249-.982.184-.469.186-.747.928-.447.773-.172.218-.23.095-.801.094-.273.11-.19.248-.172.459-.21.397-.287.147-.354-.009-.401-.071-.722.185-.471.65-.395.809-.51.653-.312.191-1.333.439-.643.312-.32.103-.237-.025v-.003s-.011-.593-.011-.593l-.327-.854-.031-.139-.016-.215.041-.344.14-.594-.038-.144-.128-.16-.339-.276-.104-.185-.049-.225.023-.336.059-.147.102-.111.117-.08.099-.107.084-.145.065-.167.045-.19.047-.73-.049-.283-.106-.27-.282-.272-.183-.102-.156-.049-.171-.149-.059-.572.149-.171.097-.051.158-.042.28.006.392.072.216-.05.181-.068.76-.587.903-.698.216-.135.291-.129.334-.099.322-.146.424-.346.26-.345.176-.349.092-.296.081-.397.084-.215.093-.165.135-.113.172-.119.402-.19.203-.042.237.05.275.132.388.325.429.29.372.051,2.707-1.08.214-.009.586.069.11-.015.158-.043.169-.025.144.019.431.195.093-.025.09-.097.059-.117.07-.203.092-.109.081-.064.329-.086.075-.029.076-.052.047-.064.039-.096.079-.252.059-.114.068-.069.099-.073.318-.166.065-.045.059-.07.043-.09.025-.129.013-.551-.043-.171-.092-.184-.331-.434-.119-.088-.163-.024-.137-.003-.14.016-.119.026-.101.039-.083.051-.059.057-.542.702-.135.109-.095-.041-.05-.155.075-.356.021-.207-.065-.179-.101-.076-.023-.124v-.088l.282-.681-.065-.334-.092-.825-.119-.244-.146-.134-.418-.213-.169-.131-.171-.213-.076-.055-.205-.112-.131-.113-.101-.163-.059-.18-.124-1.146-.101-.179-.11-.244.199-.477.453-.639,1.518-1.778.65-1.052.232-.562.259-.431.11-.23.007-.141-.156-.088-4.298.061-.772.24-1.458.925-.338.28-.442.28-.878.321-1.471.29-.447.008-.282-.05-.237-.073-.207-.088-.481-.285-.146-.002-.187.069-.817.513-5.194,1.889-.903.463-1.206.618-.492.252-.165.035-1.157.245-1.036.356-.968.433-.768.549-.109.078-.534.205-.174-.013-.278-.021-.44.23-.442-.436-1.672.45-.512-.267-.199-.07-.399-.093-.131-.099-.174-.261-.095-.111-.189-.147-.075-.034-.135.012-.419.417-.117.275.086.306.198.269.214.164.154.187.104.278.02.052-.129.262-.111.169-2.267,2.015-.805.715-.657.453-.605.513-.195.165-.399.424-1.963,2.081-.21.302-.129.317-.022.496.158.537-.018.152-.128.195-.523.299-.411.312-.229.173-.433.446-.289.248-.408.27-1.088.438-.521.12-.968.083-.372.093-.785.366-.332.038-.516-.392-.207-.191-.327-.16-.44-.063-6.164.694-.553-.103-.415-.144-.341-.251-.101-.17-.038-.169.002-.081-.016-.023-.584-.328-1.525-.629-1.291-.23-.726-.064-.347.094-.406.349-.248.284-.26.202-.356.167-1.015.194-1.248.44-1.909.52-.639.276-.226.045-.647.021-.365.151-.823.237-1.706-.153-.552-.026.062-.305-.295-1.116v-.002l-.3-.619-.866-.868-.212-.631.004-.354.05-.359.088-.335.124-.283.049-.068.047-.065.226-.24.097-.156.05-.168.056-.369.063-.176.241-.29.543-.461.12-.335-.068-.231-1.521-2.812-.386-.463-.205.068-.514.386-.223.077-.636-.039-.469.079-1.351.472-.514.052-.092-.148-.02-.3-.288-.405h0s-.384-.172-.384-.172l-.429-.079-.397-.123-.273-.308-.153-.325-.494-.399-.164-.278-.379-1.43.115-.747.814-1.141.108-.84,2.448-.085.713.181.602.377.269.103.762-.037.756.138.397-.034.645-.288.999-1.03.641-.329.343-.036,1.455.126.198-.022.133-.064.102-.206-.032-.179-.068-.177.004-.192.178-.314.167.051.158.283.295.714.235.363.262.135.234-.342.206-.572.095.032.09.307.178.255.311-.025.133-.338.095-.417.205-.265.201.043.225.486.178.152.199-.041.627-.456.841-.262.253-.179.458-.509.21-.113.42-.076.483-.213.589-.457.442-.562.057-.529h-.004s.181-.594.181-.594v-.246l-.21-.206-.609-.074-.266-.106-.029-.284.305-.663.413-.534.508-.438,1.081-.721.158-.073.065.097.043.15.084.086.262.017.253-.024.259-.084.269-.165.262-.26.42-.601.248-.272.316-.175.666-.227.253-.237.449-.518,1.606-1.138.41-.471.341-.666.232-.727.099-.657.561-.458.563-.463.767-.406.921-.811.665-.406,1.578-.942,1.834-.139.963.133.32-.003.311-.155.284-.262.26-.186.251.076.284.143.295-.094,1.198-1.072.273-.16,1.02-.319.137-.132.063-.206.18-.053.212-.003.153-.059.061-.155-.038-.112-.056-.113.007-.153.198-.157.347-.068.37-.004.266.036.294-.19.338-.165.268-.22.915-.373.972-.291.665-.639,1.33-.058.716-.872.972-.931-.665-.698-.665-.757.291-.99.63.038.208-.071.183-.187.282-.52.18-.217.41-.214.451-.067.914-.006.404-.087.287-.116.241-.202.939-1.421.3-.272.53-.056.661.255.622.434.907,1.074.196.33-.108.775.262.159.386.005.289-.048.672-.023.647.188,1.297.6.388.117-.111-.174-.298-.337-.174-.376.302.178.296.121,1.018.261.893.535.311.112,1.297.223.142.051.142.092.086.153.022.174.04.16.149.112.984.132-.124-1.186.563-.466,1.125-.058.665.175.256-.932.358-.175.051.758.317.5.149-.278.632.099.176-.12.021-.462-.187-.72.059-.235.605-.06.032-.152-.023-.201.054-.174.185-.13.147-.033.153-.004.185-.044.945.423,1.225.199.525-1.097-.045-1.324.55-.101.339-.146,1.168.573,1.575-.699,1.05-.1,1.05-.1,1.172.016.156.286.262,1.009.178.331.507.585.519.312.566-.01.63-.386.332-.273.241-.093.223.109.284.337.011.258-.426.665-.259.598-.192.17-1.848.517-.286.175-.176.26-.155.296.36,1.619,1.487-.995,1.225-.398.264,1.206,1.582.829-.111.261.016.217.138.139.253.025.305.278.142.371.181.863.224.417.92,1.103.277.999.094.946-1.662,1.289-1.168.655.555.931-.7.891.612.594.576,1.317.298-.144.089-1.173.175-.891.525-.991.962-.496,1.487.396,1.225,1.387,1.225.792.787.99.225,1.441.627.355.553.121.55-.13.618-.392.79-.356.645.168,1.168,1.013.183.07.165-.003.135.068.178.485.155.172.966.764.665.357Z"/>
    <path class="cls-2" d="M70.998,48.122l.552.026,1.706.153.823-.237.365-.151.647-.021.226-.045.639-.276,1.909-.52,1.248-.44,1.015-.194.356-.167.26-.202.248-.284.406-.349.347-.094.726.064,1.291.23,1.525.629.584.328.016.023-.002.081.038.169.101.17.341.251.415.144.553.103,6.164-.694.44.063.327.16.207.191.516.392.332-.038.785-.366.372-.093.968-.083.521-.12,1.088-.438.408-.27.289-.248.433-.446.229-.173.411-.312.523-.299.128-.195.018-.152-.158-.537.022-.496.129-.317.21-.302,1.963-2.081.399-.424.195-.165.605-.513.657-.453.805-.715,2.267-2.015.111-.169.129-.262-.02-.052-.104-.278-.154-.187-.214-.164-.198-.269-.086-.306.117-.275.419-.417.135-.012.075.034.189.147.095.111.174.261.131.099.399.093.199.07.512.267,1.672-.45.442.436.44-.23.278.021.174.013.534-.205.109-.078.768-.549.968-.433,1.036-.356,1.157-.245.165-.035.492-.252,1.206-.618.903-.463,5.194-1.889.817-.513.187-.069.146.002.481.285.207.088.237.073.282.05.447-.008,1.471-.29.878-.321.442-.28.338-.28,1.458-.925.772-.24,4.298-.061.156.088-.007.141-.11.23-.259.431-.232.562-.65,1.052-1.518,1.778-.453.639-.199.477.11.244.101.179.124,1.146.059.18.101.163.131.113.205.112.076.055.171.213.169.131.418.213.146.134.119.244.092.825.065.334-.282.681v.088l.023.124.101.076.065.179-.021.207-.075.356.05.155.095.041.135-.109.542-.702.059-.057.083-.051.101-.039.119-.026.14-.016.137.003.163.024.119.088.331.434.092.184.043.171-.013.551-.025.129-.043.09-.059.07-.065.045-.318.166-.099.073-.068.069-.059.114-.079.252-.039.096-.047.064-.076.052-.075.029-.329.086-.081.064-.092.109-.07.203-.059.117-.09.097-.093.025-.431-.195-.144-.019-.169.025-.158.043-.11.015-.586-.069-.214.009-2.707,1.08-.372-.051-.429-.29-.388-.325-.275-.132-.237-.05-.203.042-.402.19-.172.119-.135.113-.093.165-.084.215-.081.397-.092.296-.176.349-.26.345-.424.346-.322.146-.334.099-.291.129-.216.135-.903.698-.76.587-.181.068-.216.05-.392-.072-.28-.006-.158.042-.097.051-.149.171-.183.179-.128.267-.109.125-.043.064-.014.007h-.005l-2.04,1.292-.232.103-.338.094-.307-.018-.253-.056-.203-.104-.409-.309-.108-.048-.133-.005-.118.087-.149.166-.496.447-.212.255-.494.865-.586.831-.582.51-1.302.91-.374.172-1.421.623-.506-.019-.154-.02-.151.096-.158.169-.189.161-.176.054-.257-.008-.158.017-.129.101-.167.197-.172.262-.537.597-.117.25-.013.204.005.164-.016.338-.418.639-.165.179-.282.257-.219.26-.221.168-.305.151-.19.008-.151-.076-.097-.13-.068-.142-.002-.013-.005-.021-.106-.551-.021-.254-.372-.229-.386.607-.699.765-.205.352-.108.347-.092,1.001-.113.447-.122.225-.172.184-.449.337-.551.582-1.654,2.297-.088.226-.016.149.126.429.022.219-.131,1.049-.066.167-.108.148-.162.14-.172.244-.065.257-.011.527.011.121.034.163.049.141.108.203.149.399-.047.137-.081.157-.136.149-.456.711-.226.232-.532.331-.334.095-.853.129-.523.212-.304.057-.16.002-.074-.063-.022-.129.02-.101.07-.158.284-.323.135-.186.083-.204.043-.232-.002-.278-.036-.255-.066-.217-.135-.171-.167-.092-.311-.082h-.178s-.113.031-.113.031l-.084.07-.388.232-.48.191-.214.123-.124.146-.005.153.057.166.104.151.273.26.076.117.034.1-.054.11-.158.171-1.687,1.439-.329.335-.981,1.416-.817.694-1.011.691-.697.693-.577.457-.131.163-.041.2.081.167.262.277.099.138.068.133.013.034.032.044.065.066.117.094.11.141.095.201.108.172.167.138.187.097.194.127.174.203.102.195.111.336.075.174.07.274.004.327-.065.488.013.296-.113.391-.458.488-.21.285-.286.509-.497,1.096-.345,1.018-.109.233-.198.259-.128.214-.077.24-.075.171-.138.083-.277.046-.119.049-.111.091-.108.117-.101.183-.045.126-.005.392.282.548.009.127-.043.12-.16.167-.129.066-.108.042-.088.021-.081.045-.041.085.016.097.138.154.059.08.029.244-.458.658-.345.621-.031.295-.032.155-.072.142-.178.109-.14.026-.128-.022-.099-.059-.203-.173-.047-.026-.043-.004-.054.009-.145.048-.077.042-.113.089-.084.089-.109.24-.101.318-.151.709-.097.312-.079.196-.045.05-.059.131.018.318.054.144.108.057.155.147-.126.334-.33.569.271.585.086.316-.174.137-.293.049-.16.158-.205.689-.122,1.484-.156.568-.433.034.115.259-.462.35h-.269l-.56-.087-.242-.121-1.16.494h-.217s-.237-.038-.237-.038l-.149-.184-.779-1.599-.11-.162-.214-.213-.129-.032-.117.067-.083.158-.551,1.476-.072.315-.054.135-.106.145-.377.375-.846.892-.144.273-.005.293.047.191.022.163-.031.153-.115.065-.128.036-.189.086-.194.14-.542.567-.564.488-.237.305-.162.164-.216.158-.162.062-.144.027-.146-.015-.178-.071-.158-.113-.128-.132-.097-.146-.138-.306-.147-.503.002-.122.038-.102.133-.23.043-.094.027-.092-.004-.059-.029-.054-.068-.048-.119-.027-.823-.04-1.223.073-1.173-.195-.097-.132-.09-.177.593-1.379.07-.283.041-.285-.009-.35-.043-.2-.318-.625-.056-.17-.027-.196-.005-.593-.041-.171-.072-.132-.108-.096-1.092-.719-.154-.074.055-.045.181-.278.092-.287.079-.648.165-.739.884-2.479.047-.295.007-.296-.032-.308-.002-.004-.228-.608v-.003s-.072-.334-.072-.334l.093-.32.506-.221.662.222h.003s1.177.716,1.177.716l.003.002.017.138v.005s.073.096.073.096l.002.002.128.059.171.023,1.065-.356.62-.162.241-.378.052-.212-.056-.332v-.003s-.131-.301-.131-.301l-.163-.161h-.002s-.426-.186-.426-.186l.004-.004.14-.127-.004-.005-.066-.087-.005-.002-.161-.079h-.001s-.556-.414-.556-.414v-.005s-.004-.058-.004-.058h-.002s-.005-.003-.005-.003l-.298-.109-.135-.036v-.002s-.001-.005-.001-.005l-.034-.178.419-.401.778-.845.611-.455.368-.363.232-.16.18-.071h.203s.208-.055.208-.055l.038-.119-.02-.149.038-.158.074-.041.374.06.269.006.648-.139.172.015.542-.62,2.175-.76.106-.122-.014-.117-.221-.211-.07-.129-.027-.133-.029-.11-.057-.113-.022-.112v-.187l.108-.234.07-.206.031-.232-.041-.207-.11-.205-.133-.134-.305-.217-.158-.162-.226-.31-.704-.642-.192-.119-.142-.067-.21-.073-.586-.16-.079-.084-.108-.137-.099-.211-.124-.101-.444-.19-.049-.121.004-.085.056-.055.379-.252.309-.276.149-.161.113-.169.167-.312.088-.128.126-.129.129-.113.113-.144.083-.185-.027-.187-.072-.086-.135-.046-.118.003-.131.026-.232.122-.32.233-.111.065-.237.1-.068.009-.045-.019-.036-.021-.034-.013-1.252-1.436-.774-.734-.76-.566-.34-.431-.269-.176-.273-.064-.264.09-.23.129-.216.157-.178.157-.259.178-.864.077-.679.183-.399.192-.273.2-.185.166-.133.005-.059-.098.004-.201.109-1.058-.005-.331-.05-.291-.059-.221-.031-.194.027-.153.295-.573.242-.73.291-.663-.021-.247-.097-.135-.359-.066-.14-.095-.077-.218-.011-.214.029-.184.07-.153.074-.101,1.347-1.2.154-.342-.034-.1-.072-.082-.158-.048-1.582-.062-.251.075-.55.238-1.112.294-.198-.006-.205-.042-.178.008-1.153.31-.553.087-.332-.036-.217-.068-.232-.17-.499-.51-.408-.197-.316.022-.248.105-.711.665-.117.166-.072.186-.106.564-.081.213-.212.418-.189.27-.235.235-.37.198-.302.018-.241-.049-.167-.131-.034-.17.05-.242.101-.224.102-.366.027-.161.002-.029-.018-.272-.122-.2-.205-.147-.345-.076-.248.064-.167.145-.243.516h0s-.181.293-.181.293l-.302.345-.311.293-.35.632-.115.127-.37.305-.041.118.052.103.23.047.14-.011.11-.043.426-.316h.095s-.036.121-.036.121l-.059.139-.936.504-.995.059-.968.298-.302.181-.244.243-.257.432-.787.904-.314.269-.304.11-.199.023-.242-.106-.153-.47-.029-.671-.065-.349.005-.299.077-.531-.048-.23-.296-.013-1.426.571-.264.045-.149-.042-.045-.145-.102-.081-.063-.003-.253.17-.262.138-.11-.065-.022-.153.108-.525.016-.24-.032-.239-.084-.174-.169-.141-.165-.029-.196-.012-.108-.091-.102-.271-.122-.134-.192-.019-.675.056-.449-.119-.528-.071-.765.104-.171.051-.456.31-.178.046-.093-.056-.052-.152-.013-.341-.041-.117-.083-.045h-.154s-1.063.24-1.063.24l-.417.153-.408.195-.128-.03-.059-.117-.013-.161-.032-.176-.074-.143-.158-.109-.14.007-.095.064-.129.248-.059.086-.248.221-.706.498-.065.007-.07-.025.011-.064.029-.111.113-.271.165-.316.048-.179-.032-.25-.079-.123-.523-.374-.354-.188-.18-.039h-.162s-.228.02-.228.02l-.28-.004-.85-.116-.237.005-.169.049-.282.158-.363.301-.101.067-.12.043-.483.088-.28.095-1.097.02-1.412.278-.277.137-.092.138-.431.474-.573.405-.271.258-.154.207-.092.275-.117.169-.528.52-.167.217-.104.239-.027.404-.031.19-.059.164-.079.153-.221.349-.097.194-.054.202-.011.215.025.242.118.493.081.196.102.178.12.147.471.423.118.139.043.097.018.121-.034.213-.063.118-.11.121-.198.131-.248.115-.269.042-.542-.023-.286.134-.106.233-.029.257.011.561-.047.251-.083.234-.095.141-.136.105-.72.232-.443.168.255-.95.032-1.443.162-1.347-.177-.754-.394-.97-.32-1.723.066-.474.749-1.322.076-.457-.138-.11-.273-.025-.325-.199.339-.117.244-.202.053-.263-.233-.302-.02-.02-.025-.004-.029.006-.03.016-.003.002h-.005l-.118.124-.113.052-.106-.039-.095-.137-.131-.252-.357-.465-.098-.176-.026-.336.042-.241-.022-.238-.228-.321-.138-.262-.077-.317-.102-.286-.208-.166-.154-.012-.347.032-.128-.019-.212-.098-.041-.04.025-.079.01-.42.508-.112.37-.155.329-.1.14-.106.061-.131-.016-.229-.092-.138-.039-.126.039-.127.183-.056.271-.185.269-.659.076-.158.05-.06.435-.226.27-.081.118-.063.016-.123-.076-.119-.18-.145-.005-.161.007-.091.052-.062.146-.111.221-.136.04-.044.032-.055.176-1.344.086-.372.198-.56.016-.075.018-.06.027-.064.262-.435-.165-2.012-.075-.338-.359-1.064.082-.244.021.003.354.109.176.027.377-.036,1.097-.293,1.979-.191.661-.187.435-.394.438-1.168.582-.376.317-.027.64.025.321-.106.286-.217.232-.234.25-.199.352-.116.587.094,1.609,1.15,1.956,1.014,2.247.252,3.952-.229,1.093-.063.094-.043.857-.392.519-.004.611.075,1.236-.028.596.139.512.312.244.096.358-.01.289-.079.293-.132.269-.178.223-.222.203-.358.14-.351.18-.303.311-.214.241-.039.702.042.251.074.163.248.399.866.23.202.325-.024.63-.219.314-.012.769.228.275.02.841-.107.512-.246,1.107-.723.519-.096.327.176.097.283.05.314.185.266.271.034.144-.221-.018-.318-.207-.26.374-.178v-.286l-.041-.253.262-.074.304.126.551.473.307.148,1.056-.159.641-.638.132-.655Z"/>
    <path class="cls-2" d="M15.593,40.471l-.134.568-.148.114-.255.197-1.047.271-.44.303-.374.549-.277.638-.146.56.052.038h-.003s-.235.054-.235.054l-.453-.173-.375-.313-.126-.042-.885.101-1.237-.193-.422.036-1.223,1.199-.411.284-.354.176-.555.121-.248-.01-.154-.055-.093-.069-.115-.145-1.798-.741-.69-.125-.78.11-.528-.013-.305-.095-.205-.161-.075-.151-.043-.197-.014-.385-.066-.183-.135-.198-.58-.394-.226-.255-.322-.131.423-.951.106-.477-.045-.22-.216-.379-.075-.211-.018-.27.043-.217.149-.445.066-.13.091-.099.078-.111.04-.167-.032-.084-.156-.163-.047-.086-.083-.381-.022-.187.022-.208.442-.983,1.079-1.837.417-1.633.251-.5.18-.495-.088-.802.208-.361-.034-.23-.143-.116-.233-.087-.431-.101-.232-.368-.128-.475.042-.476.275-.371.19-.062.426.063.205.006.207-.056.4-.167,3.144-.476.365-.237h.002v-.003s.972-.717.972-.717l.341-.093.463.144.262-.209.237-.381.383-.373.716-.56.286.015.368.441.354.273,1.009.145.444.132.773.527.396.34.253.316h.004v.003l.034.34-.172.643.016.326.143.248.415.446.153.298.061.352-.021.303-.838,3.684-.392.645-.273.699-.334.508-.124.281.011.274.277.394-.006.321-.049.599.094.568.24.517.379.44.223.147.202.092.191.123.368.486.219.194.481.328Z"/>
    <path class="cls-2" d="M126.029,53.402l-.137-.014-.275-.401-.32.054-.162.132-.242.369-.146.152-.171.079-.383.092-.153.081-.171.178-.065.143-.056.552.005.122-.021.131-.093.218-.18.294-.51.577-.269.22-.239.372.034.307.332.638.076.37-.032.286-.239.647-.119.605-.032.773.079.764.216.583.133.128.142.052.144.033.138.076.065.147-.083.143-.128.15-.07.163.171,1.294.235.206.621.201.219.231.02.405-.203.385-.544.67-.736.794-.286.194-.65.236-.198.181-.115.415-.014.374.352,1.983.032.433-.113.345-.154.107-.37.048-.167.066-.131.147-1.561,2.3-.063.063-.183.103-.07.063-.009.101.14.179-.013.081-.165.084-.343.006-.151.064-.25.316-.445.728-.313.247-.323.097-.602.073-.332.124-.566.399-.158.169-.009-.002-.589-.108-.286-.16-.812-.566-.205-.234-.09-.214.027-.215.305-1.011.131-.335.142-.505-.005-.636.061-.266.016-.148-.016-.179-.061-.04-.099.066-1.293,1.16-.242.165-.713.396-.223.204-.366.572-.255.238-.363.258-.704.305-1.279.228-.737.089-.248-.021-.14-.039-.038-.021-.023-.019-.111-.128-.092-.136-.144-.081-.223-.053-.429.101-.28.02-.237-.011-.214-.073-.217-.114-.347-.312-.196-.12-.235-.112-.533.062-.348.044-.801-.117-2.202.208-.381.117-.203.103-.021.138-.043.161-.099.246-.016.063.002.003v.003l.009.006.027.013.544.164.151.085.106.124.067.155.032.156.004.117-.084.212-1.475,1.57-.435.324-.341.36.011.083-.005.184-.525,1.002-.589.826-.067.14-.104.107-.162-.015-.171-.115-.226-.385-.115-.162-.154-.12-.199-.08-.388-.079-.156-.073-.108-.097-.136-.167-.043-.03-.075-.027-.108-.016-.126-.034-.135-.059-.113-.073-.167-.158-.133-.152.113-.391-.013-.296.065-.488-.004-.327-.07-.274-.075-.174-.111-.336-.102-.195-.174-.203-.194-.127-.187-.097-.167-.138-.108-.172-.095-.201-.11-.141-.117-.094-.065-.066-.032-.044-.013-.034-.068-.133-.099-.138-.262-.277-.081-.167.041-.2.131-.163.577-.457.697-.693,1.011-.691.817-.694.981-1.416.329-.335,1.687-1.439.158-.171.054-.11-.034-.1-.076-.117-.273-.26-.104-.151-.057-.166.005-.153.124-.146.214-.123.48-.191.388-.232.084-.07.113-.03h.178s.311.081.311.081l.167.092.135.171.066.217.036.255.002.278-.043.232-.083.204-.135.186-.284.323-.07.158-.02.101.022.129.074.063.16-.002.304-.057.523-.212.853-.129.334-.095.532-.331.226-.232.456-.711.136-.149.081-.157.047-.137-.149-.399-.108-.203-.049-.141-.034-.163-.011-.121.011-.527.065-.257.172-.244.162-.14.108-.148.066-.167.131-1.049-.022-.219-.126-.429.016-.149.088-.226,1.654-2.297.551-.582.449-.337.172-.184.122-.225.113-.447.092-1.001.108-.347.205-.352.699-.765.386-.607.372.229.021.254.106.551.005.021.002.013.068.142.097.13.151.076.19-.008.305-.151.221-.168.219-.26.282-.257.165-.179.418-.639.016-.338-.005-.164.013-.204.117-.25.537-.597.172-.262.167-.197.129-.101.158-.017.257.008.176-.054.189-.161.158-.169.151-.096.154.02.506.019,1.421-.623.374-.172,1.302-.91.582-.51.586-.831.494-.865.212-.255.496-.447.149-.166.118-.087.133.005.108.048.409.309.203.104.253.056.307.018.338-.094.232-.103,2.04-1.292h.005l.014-.007.043-.064.109-.125.128-.267.183-.179.059.572.171.149.156.049.183.102.282.272.106.27.049.283-.047.73-.045.19-.065.167-.084.145-.099.107-.117.08-.102.111-.059.147-.023.336.049.225.104.185.339.276.128.16.038.144-.14.594-.041.344.016.215.031.139.327.854.011.593v.003Z"/>
    <path class="cls-2" d="M115.661,76.533l-.345.369-.392.627-1.006,2.856.056.786.409.583.627.234.701.138.623.298.307.545.122.795-.092.808-.327.587-.282.387-.325,1.633-.273.502-.697.939-.101.565v.34l-.065.356-.138.326-.21.261-.239.144-.214.029-.216-.003-.255.048-.146.303-.363,1.304-.21.439-.778.503-.205.201-.133.273-.239.966-.264.166-.199.163-.117.226-.043.767-.156.218-.212.15-.196.219-.007.114.059.33-.018.156-.122.155-.363.259-.129.16-.093.3-.054.639-.072.316-.848,2.01-.205.714-.065.681-.076.331-.181.216-.079.183-.092.727-.063.272-.789,1.067-.171.376-.025.375.025.413-.056.384-.052.058-.208.232-.298-.018-.25-.281-.248-.352-.278-.224-.993-.548-.397-.075-.6-.15-.49-.191-.506-.119-1.381.175-.363-.178-.692-.942-.555-.193-.88-.109-.835.041-.424.262-.041.15-.067.146-.084.125-.102.094-.169.044-.106-.1-.092-.133-.113-.054-.289.104-.541.307-.363.031-.316-.046-.133-.17-.059-.24-.111-.258-.568-.579-.174-.221-.49-.775-.343-.197-.458.167-.217.304-.117.432-.007.102h-.007s-.149.003-.149.003l-.639.34h-.14s-.04-.091-.04-.091l.038-.119.056-.125.031-.119-.02-.144-.066-.145-.176-.177-.097-.047-.097.031-.066.09-.072.146-.108.106-.158.096-.289.072-.162.006-.097-.016-.04-.052v-.053l.005-.089-.043-.072-.16-.105-.189-.03-.124-.002-.095.048-.201.2-.165.092-.151-.016-.129-.096-.086-.124-.154-.142-.234-.147-1.311-.443-.198-.106-.083-.074-.025-.086.049-.075.09-.087.088-.073.079-.09.036-.093.013-.12-.005-.426.074-.466.086-.234.023-.117.014-.222.108-.341.038-.131-.076-.418.016-.237.075-.269.129-.215.289-.288.056-.215-.074-.271-.327-.254-.074-.251.059-.43-.063-.17-.115-.259.433-.034.156-.568.122-1.484.205-.689.16-.158.293-.049.174-.137-.086-.316-.271-.585.33-.569.126-.334-.155-.147-.108-.057-.054-.144-.018-.318.059-.131.045-.05.079-.196.097-.312.151-.709.101-.318.109-.24.084-.089.113-.089.077-.042.145-.048.054-.009.043.004.047.026.203.173.099.059.128.022.14-.026.178-.109.072-.142.032-.155.031-.295.345-.621.458-.658-.029-.244-.059-.08-.138-.154-.016-.097.041-.085.081-.045.088-.021.108-.042.129-.066.16-.167.043-.12-.009-.127-.282-.548.005-.392.045-.126.101-.183.108-.117.111-.091.119-.049.277-.046.138-.083.075-.171.077-.24.128-.214.198-.259.109-.233.345-1.018.497-1.096.286-.509.21-.285.458-.488.133.152.167.158.113.073.135.059.126.034.108.016.075.027.043.03.136.167.108.097.156.073.388.079.199.08.154.12.115.162.226.385.171.115.162.015.104-.107.067-.14.589-.826.525-1.002.005-.184-.011-.083.341-.36.435-.324,1.475-1.57.084-.212-.004-.117-.032-.156-.067-.155-.106-.124-.151-.085-.544-.164-.027-.013-.009-.006v-.003l-.002-.003.016-.063.099-.246.043-.161.021-.138.203-.103.381-.117,2.202-.208.801.117.348-.044.533-.062.235.112.196.12.347.312.217.114.214.073.237.011.28-.02.429-.101.223.053.144.081.092.136.111.128.023.019.038.021.14.039.248.021.737-.089,1.279-.228.704-.305.363-.258.255-.238.366-.572.223-.204.713-.396.242-.165,1.293-1.16.099-.066.061.04.016.179-.016.148-.061.266.005.636-.142.505-.131.335-.305,1.011-.027.215.09.214.205.234.812.566.286.16.589.108.009.002Z"/>
    <path class="cls-2" d="M92.238,103.382l-.025.363.032.403.09.336.138.31.374.618.146.184.102.09.072.131.056.303-.016.674.287,2.196.548.376.104.197.237.338.076.198.036.623-.559,3.644-.007.526.106,1.1.032.213-.009.172-.061.16-.339.482-.11.307-.025.326.075.794-.14,1.268.005.293.038.227-.005.234-.722,1.455-.262.35-.338.295-.453.226-.456.027-.365-.298-.234-.366-.271-.262-.338-.086-.429.16-.214.339-.032.5.086.521.138.4.347.672.11.379-.032.347-.251.389-.621.739-.164.434-.061-.029-.571.51-.151,1.496.054.393.138.357.392.691.106.367-.025.405-.189.738.016.436.181.616.144.302.62.661.215.765.146,2.189-.011.186-.081.233-.135.082-.171.029-.377.175-.086-.012-.022.03-.007.23.323.581-.386.118-.264-.116-.239-.186-.314-.099-.463-.082-.163.012-.207.081-.038.106.027.138-.023,1.266.05.15-.313.13-.214.05-.169.136-.318.621-.032.245.054.249.113.24.052.127.029.133.005.132-.016.129-.032.043-.038.04-.119.068-.111.007-.106-.051-.092-.107-.224-.329-.286-.164-.257.084-.131.408-.163.534-.205.181-.181-.177-.086-.538-.142-.535-.309-.417-1.121-1.075-1.105-.816-.422-.119-.171.135-.05.246.063.528-.013.193-.077.048-.086-.022-.043-.017-.102.363-.002.275.039.261v.256l-.129.254-.192.108-.214.019-.214.066-.198.249-.102.114-.117.094-.129.073-.138.051-.013-.167-.036-.165-.228-1.229-.393-1.255.208-.184.259.003.198-.092.025-.473-1.009-6.103-.027-.322-.223-.584-.065-.313.036-1.087-.122-1.442-.075-.289-.189-.283-.469-.409-.203-.28-.122-.569-.151-1.458-.251-.316-.577-.235-.327-.491-.133-.633.014-1.306-.442-2.659.016-.747.072-.283.312-.653.119-.338-.011-.191-.081-.183-.09-.312-.005-.186.048-.37-.016-.172-.065-.094-.23-.18-.086-.125-.023-.13.027-.261-.027-.141-.097-.163-.226-.22-.092-.149-.081-.278-.101-.918-.665-2.149-.048-.628.203-.802-.034-.331.145-.319-.126-1.059.108-.394.066-.161.002-.098-.048-.111.005-.111.038-.134.074-.164.065-.082.147-.133.041-.045.045-.037.058-.021.066.006.054.029.041.044.034.05.047.035.059.013.072-.043.03-.058.023-.129.02-.177-.009-.179.009-.143-.004-.101-.018-.079-.084-.175-.016-.062-.011-.118.005-.461.016-.15.025-.111.219-.562.056-.281-.016-.097-.039-.11-.106-.229-.032-.054-.031-.117-.016-.17.011-.406.16-.713.014-.152-.059-1.615-.025-.148-.047-.129-.067-.101-.079-.09-.049-.044-.102-.127-.099-.296,1.223-.073.823.04.119.027.068.048.029.054.004.059-.027.092-.043.094-.133.23-.038.102-.002.122.147.503.138.306.097.146.128.132.158.113.178.071.146.015.144-.027.162-.062.216-.158.162-.164.237-.305.564-.488.542-.567.194-.14.189-.086.128-.036.115-.065.031-.153-.022-.163-.047-.191.005-.293.144-.273.846-.892.377-.375.106-.145.054-.135.072-.315.551-1.476.083-.158.117-.067.129.032.214.213.11.162.779,1.599.149.184.237.039h.217s1.16-.495,1.16-.495l.242.121.56.087h.269l.462-.35.063.17-.059.43.074.251.327.254.074.271-.056.215-.289.288-.129.215-.075.269-.016.237.076.418-.038.131-.108.341-.014.222-.023.117-.086.234-.074.466.005.426-.013.12-.036.093-.079.09-.088.073-.09.087-.049.075.025.086.083.074.198.106,1.311.443.234.147.154.142.086.124.129.096.151.016.165-.092.201-.2.095-.048.124.002.189.03.16.105.043.072-.005.089v.053l.04.052.097.016.162-.006.289-.072.158-.096.108-.106.072-.146.066-.09.097-.031.097.047.176.177.066.145.02.144-.031.119-.056.125-.038.119.04.089h.14s.639-.339.639-.339l.149-.002h.007Z"/>
    <path class="cls-2" d="M74.115,109.677l-.008-.073-.357-.195-.289.171-.221.871-.262.254-.235-.325-.176-.722-.345-.529-.736.253-.282.319-.566.79-.3.263-.406.104-.269-.139-.727-.825-.217-.352-.217-.26-.242.011-.108.247-.036.407.027.72.458,2.182-.027.74-.393.664-.226.251-.278.201-.961.415-.28.244-.453.613-.505.881-.329.926.095.751.257.598.262,1.294.224.575.063.219-.074.171-.262.284-.043.007-.165-.014-.057.003-.086.074-.007.088.013.088-.022.074-.291.443-.122.138-.293.267-.129.145-.214.136-.471.103-.235.086-.124.028-.122-.027-.124-.043-.122-.023-.158.065-.081.154-.065.178-.102.138-.284.16-.054-.064.002-.186-.11-.206-.237-.116-.232-.042-.23-.087-.224-.251-.074-.195-.021-.553-.045-.07-.165-.045-.049-.061-.09-.48-.401-1.374-.081-.192-.119-.579-.041-.006-.257-.253-.018-.097.023-.108-.005-.127-.113-.15-.005.017-.059.13.005.016-.146-.276-.253-.36-.334-.264-.386.015-.194.27-.092.44.004.837.325,1.577-.065.619-.582-.156-.415-.563-.226-.775-.404-3.026-.076-.193-.093-.152-.031-.147.124-.172.174-.172.075-.149-.057-.111-.226-.059-.223-.17-.178-.379-.234-.8-.083-.469-.041-.143-.113-.172-.304-.189-.144-.137-.16-.309-.146-.616-.133-.334-.505-.945-.079-.328.059-.454.219-.029.246.019.153-.306-.11-.284-.287-.106-.275-.149-.074-.411.163-.363.275-.096.33-.029.32-.163.178-.31.348-1.031.05-.356-.072-.236-.196-.439-.014-.259.075-.263.593-1.052.183-.25.23-.207.304-.125.232.018.061.026.135.057.189.03.208-.139.178-.772.027-.723.212-.485.722-.062,1.318.286.645.053.715-.085.402-.122.255-.168.165-.263.135-.402.187-1.2.079-.225.181.069.307.764.156.293.312.198.339.048.304-.115.199-.29-.011-.329-.108-.386-.049-.358.172-.252,1.106.24.181.009.047.125.029.426.041.169.53.527.352.09.219-.141.126-.332.375-1.612.016-.374-.181-.754.059-.34.383-.122.158.143.384.265.332.131-.014-.258-.392-.642.02-.225,1.45.124.51-.041.444-.202.336-.462.063-.537-.092-1.157.086-.362.214-.211.268-.158.198-.161.154.074,1.092.719.108.096.072.132.041.171.005.593.027.196.056.17.318.625.043.2.009.35-.041.285-.07.283-.593,1.379.09.177.097.132,1.173.195.099.296.102.127.049.044.079.09.067.101.047.129.025.148.059,1.615-.014.152-.16.713-.011.406.016.17.031.117.032.054.106.229.039.11.016.097-.056.281-.219.562-.025.111-.016.15-.005.461.011.118.016.062.084.175.018.079.004.101-.009.143.009.179-.02.177-.023.129-.03.058-.072.043-.059-.013-.047-.035-.034-.05-.041-.044-.054-.029-.066-.006-.058.021-.045.037-.041.045-.147.133-.065.082-.074.164-.038.134-.005.111.048.111-.002.098-.066.161-.108.394.126,1.059-.145.319Z"/>
    <path class="cls-2" d="M76.291,84.975l-.067-.356-.431-.259-.488-.21-.278-.393-.149-.108-.904-.124-.311-.079-.235-.104-.21-.148-.243-.211-.259-.334-.113-.101-.138-.031-.239.073-.095-.038-.12-.09-.251-.011-.138-.047-.101-.104-.172-.271-.131-.108-.467-.188-.557-.136-.56-.025-.464.145-.327.107-.968-.149-1.857.234-.841-.077-.264.036-.111.106-.104.231-.122.099-.154-.047-.225-.111-.199.007-.09.308-.178.178-.406.06-.444-.021-.294-.072-.278-.229-.117-.217-.128-.147-.302-.022-.149.066-.291.238-.205.051-.187.026-.35.112-.169.026-.681-.077-2.57-.783-.839-.438-.187.006-.379.196-.214.036-.964-.034-2.784.447-.551.198-.149.02-1.961.269-.487-.059-.253-.125-.217-.164-.224-.134-.278-.035-.092.048-.185.196-.099.058-.151.011-.645-.111-.375-.173-.198-.062-.246-.007-.697.18-1.424-.129-1.766.378-.611-.019-1.351-.574-2.726-.602-3.857-1.63-.659.026-.619.251-.27-.048-.203-.373-.154-.68-.061-.652.073-.55.025-.191.137-.51.443-.168.72-.232.136-.105.095-.141.083-.234.047-.251-.011-.561.029-.257.106-.233.286-.134.542.023.269-.042.248-.115.198-.131.11-.121.063-.118.034-.213-.018-.121-.043-.097-.118-.139-.471-.423-.12-.147-.102-.178-.081-.196-.118-.493-.025-.242.011-.215.054-.202.097-.194.221-.349.079-.153.059-.164.031-.19.027-.404.104-.239.167-.217.528-.52.117-.169.092-.275.154-.207.271-.258.573-.405.431-.474.092-.138.277-.137,1.412-.278,1.097-.02.28-.095.483-.088.12-.043.101-.067.363-.301.282-.158.169-.049.237-.005.85.116.28.004.228-.021h.162s.18.039.18.039l.354.188.523.374.079.123.032.25-.048.179-.165.316-.113.271-.029.111-.011.064.07.025.065-.007.706-.498.248-.221.059-.086.129-.248.095-.064.14-.007.158.109.074.143.032.176.013.161.059.117.128.03.408-.195.417-.153,1.063-.241h.154s.083.046.083.046l.041.117.013.341.052.152.093.056.178-.046.456-.31.171-.051.765-.104.528.071.449.119.675-.056.192.019.122.134.102.271.108.091.196.012.165.029.169.141.084.174.032.239-.016.24-.108.525.022.153.11.065.262-.138.253-.17.063.003.102.081.045.145.149.042.264-.045,1.426-.571.296.013.048.23-.077.531-.005.299.065.349.029.671.153.47.242.106.199-.023.304-.11.314-.269.787-.904.257-.432.244-.243.302-.181.968-.298.995-.059.936-.504.059-.139.036-.12h-.095s-.426.315-.426.315l-.11.043-.14.011-.23-.047-.052-.103.041-.118.37-.305.115-.127.35-.632.311-.293.302-.345.181-.292h0s.243-.518.243-.518l.167-.145.248-.064.345.076.205.147.122.2.018.272-.002.029-.027.161-.102.366-.101.224-.05.242.034.17.167.131.241.049.302-.018.37-.198.235-.235.189-.27.212-.418.081-.213.106-.564.072-.186.117-.166.711-.665.248-.105.316-.022.408.197.499.51.232.17.217.068.332.036.553-.087,1.153-.31.178-.008.205.042.198.006,1.112-.294.55-.238.251-.075,1.582.062.158.048.072.082.034.1-.154.342-1.347,1.2-.074.101-.07.153-.029.184.011.214.077.218.14.095.359.066.097.135.021.247-.291.663-.242.73-.295.573-.027.153.031.194.059.221.05.291.005.331-.109,1.058-.004.201.059.098.133-.005.185-.166.273-.2.399-.192.679-.183.864-.077.259-.178.178-.157.216-.157.23-.129.264-.09.273.064.269.176.34.431.76.566.774.734,1.252,1.436.034.013.036.021.045.019.068-.009.237-.1.111-.065.32-.233.232-.122.131-.026.118-.003.135.046.072.086.027.187-.083.185-.113.144-.129.113-.126.129-.088.128-.167.312-.113.169-.149.161-.309.276-.379.252-.056.055-.004.085.049.121.444.19.124.101.099.211.108.137.079.084.586.16.21.073.142.067.192.119.704.642.226.31.158.162.305.217.133.134.11.205.041.207-.031.232-.07.206-.108.234v.187l.022.112.057.113.029.11.027.133.07.129.221.211.014.117-.106.122-2.175.76-.542.62-.172-.015-.648.139-.269-.006-.374-.06-.074.041-.038.158.02.149-.038.119-.208.054h-.203s-.18.072-.18.072l-.232.16-.368.363-.611.455-.778.845-.419.401Z"/>
  </g>
  <text class="cls-1" transform="translate(66.876 60.718)"><tspan x="0" y="0">NORTH</tspan><tspan x="-7.008" y="14.4">EASTERN</tspan></text>
</svg>