<?xml version="1.0" encoding="UTF-8"?>
<svg id="India" xmlns="http://www.w3.org/2000/svg" version="1.1" viewBox="0 0 186.095 210.995">
  <defs>
    <style>
      .cls-1 {
        fill: #80cec1;
        stroke: #fff;
        stroke-miterlimit: 10;
        stroke-width: .25px;
      }

      .cls-2 {
        fill: #fff;
        font-family: Helvetica, Helvetica;
        font-size: 12px;
      }
    </style>
  </defs>
  <g>
    <path class="cls-1" d="M119.709,74.519l.259.26.093.18-.064.161-.229.203-.505.169h-.001s-.427-.253-.427-.253l-.86-1.02.185-.505.16-.12.85.5.539.425ZM107.708,115.27l-.561-1.407-.837-.922-.238-.632-.54-.707-.185-.178v1.419s-.109.534-.109.534l-.249-.145-.062-.206.062-.443-.059-.191-.139-.111-.157-.098-.119-.151-.007.417-.04.217-.274.191-.392.521.061.425.226.369.553.663.187.454.127.193.216.08.369.035.397.087.761.027.139.039.129.133.144.105.174.062.117.004-.017.044-.584.273-.406.038-.86-.194-.28-.005-.427.04-.165-.034-.086-.078.007-.096.025-.105.029-.076.095-.15.038-.108.022-.087.005-.185-.029-.051-.418-.016-.259-.112-.377-.268-.115-.025-.126.031-.07.079-.031.099.02.084.086.121.113.095.14.089.07.089.032.092-.013.146-.075.136-.12.078-.399.116-.35.156-.268.227-.264.294-.126.188-.032.158.013.095.047.123.029.138-.007.161-.14.225-1.449.862-.99.395-.307.053-.25-.037-.149-.076-.203.003-.102.085-.059.143-.007.146.029.122.07.1.11.07.126.062.118.078.108.088.063.102.007.118-.099.199-.155.057h-.194l-.156-.058h-.334l-.275.028-.419-.236-.097-.132-.027-.11.029-.135.014-.172-.063-.287-.145-.11-.212-.038-1.173.245-.32-.008-.18-.11-.133-.177-.124-.244-.221-.278-.189-.135-.194-.09-.296-.057-.251-.007-.413.047-.302.108-.083.067-.07.103-.041.132-.022.313-.027.15-.176.353-.023.134.013.124.043.178-.013.206-.111.212-.582.289-.14.098-.167.217-.322.283-.366.469-.253.205-.194.048-.156-.053-.133-.139-.162-.14-.259-.047-.21.051-.199.173-.607.887-.44.537-.119.103-.185.123-.205.045-.623.052-.375.098-.257-.029-.194-.096-.158-.104-.192-.06-.451-.043-.137-.051-.074-.115-.054-.251-.045-.079-.065-.054-.102-.055-.124-.045-.428-.068-.296-.003-.137.031-.095.083-.065.263-.013.158-.068.153-.129.16-.237.137-.167.02-.14-.079-.09-.191-.054-.22-.099-.191-.192-.095-.779.084-.243.051-.399.124-.708.088-.196.056-.129.095-.138.307-.102.164-.146.104-.214.029-.217.005-.154.077-.124.13-.169.254-.047.14-.049.209-.027.499-.041.186-.124.309-.307,1.174-.485,1.27-.086.137-.108.104-.657.506-.158.031-.135-.053-.104-.104-.117-.053-.065.023-.045.085-.027.161.018.218-.027.248-.088.288-.751.793-.201.103-.176.069-.115.021-.357.013-.178-.01-.163-.025-.454-.135-.932-.593-.429-.397-.78-1.106.14-.171.14-.215.052-.176-.011-.18-.122-.469-.002-.26.027-.124.027-.068.056-.036.088-.032h.14s.124.037.124.037l.115.067.146.126.059.021.054-.023.07-.056.135-.146.057-.022h.151s.108-.016.108-.016l.122-.045.163-.102.063-.062.023-.11-.005-.427.032-.131.074-.098.115-.052.111-.018.097.005.102.041.128.062,1.078.774.21.074.176-.008.097-.07.007-.173-.086-.222-.255-.36-.221-.158-.192-.095-.155-.041-.059-.065-.011-.11.068-.204.447-.561.189-.298.036-.067.045-.136.101-.402.065-.19.077-.117.109-.079.325-.165.113-.09.156-.182.086-.211.041-.259.022-.426.061-.195.111-.154.28-.298.113-.186.068-.183.092-.384.034-.092.02-.107.007-.11-.002-.128.007-.15.047-.295.011-.167-.011-.161-.049-.197-.054-.133-.063-.092-.092-.056-.226.247-.097.08-.092.045-.122.032-.113.004-.104-.02-.079-.041-.695-.549-.113-.044h-.119s-.101.017-.101.017h-.086l-.093-.027-.097-.045-.162-.116-.088-.038-.11.016-.264.153-.129.005-.111-.089-.061-.259-.074-.175-.135-.173-.102-.097-.101-.115-.061-.128-.005-.199.029-.112.063-.107.054-.07.038-.079.016-.094-.048-.779.022-.208.039-.173.056-.156.032-.189-.004-.039-.075-.5.009-.218.038-.198.124-.345.04-.147-.029-.117-.081-.085-.171-.029-.135.015-.23.065-.086.013-.086-.006-.086-.03-.212-.134-.11-.045h-.108s-.102.045-.102.045l-.226.15-.12.043-.149.014-.172-.007-.381-.068-.334-.118-.167-.042-.241-.031-.086-.022-.129-.092-.14-.135-.604-.698-.124-.088-.149-.058-.146-.012-.153.034-.296.126-.165-.006-.113-.096-.135-.232-.054-.186-.016-.164.092-.108.119-.012.28.068.151.004.111-.038.092-.077.013-.132-.056-.156-.189-.274-.108-.194-.052-.18.07-.196.171-.335.029-.22-.016-.23-.093-.375-.203-.477-.817-.495-.532.313-.07.016-.104-.013-.165-.058-.19-.019-.198.044-.224.166-.269.364-.11.116-.084.036-.065-.073-.045-.121-.036-.16-.054-.388.002-.149.038-.119.072-.089.334-.286.065-.081.032-.074.016-.059.022-.47-.02-.143-.034-.103-.041-.045-.088-.007-.102.037-.208.134-.097.094-.084.128-.05.132-.074.152-.14.112-.169.048-.259-.064-.131-.081-.115-.103-.084-.06-.115-.018-.375-.004-.296-.106-.14-.008-.156.091-.092.097-.07.12-.025.118.016.133.059.126.095.119.104.106.057.107.011.127-.041.127-.088.118-.144.118-.357.229-.156.134-.198.221-.102.062-.167.068-.286.079-.162.087-.126.142-.07.183-.061.215-.07.181-.097.11-.108.013-.119-.099-.057-.101-.086-.114-.131-.068h-.25l-.21.04-.163.056-.113.068-.084.096-.032.106.005.128.063.205-.057.053-.142.023-.352-.03-.215.052-.458.213-.44.363-.092.037-.113.005-.372-.038-.095.016-.124.071-.086-.003-.108-.045-.034-.283.002-.464-.039-.176-.138-.396-.039-.195-.059-.185-.113-.157-.219-.126-.122-.147-.05-.12-.02-.147-.093-.116-.09-.062-.523.078-.327-.088-.314-.052-.124.011-.138.028-.172-.007-.181-.072-.228-.16-.178-.096-.146-.032-.332.046-.172-.035-.259-.324-.162-.098-.129.002-.12.054-.356.255-.099-.003-.047-.065-.013-.176.005-.144-.014-.13-.048-.077-.102-.05-.088.034-.065.053-.059.096-.038.092-.023.081-.011.067.005.089-.005.081-.016.076-.039.051-.068.044-.293.1-.057.062-.007.079.054.081.12.09.119.052.106.079.059.113.022.235-.009.165.022.142.093.277-.009.154-.086.147-.138.081-.178.033-.19-.01-.176-.03-.307-.087-.122-.02-.097.029-.056.084-.047.152-.07.129-.124.064-.153-.04-.162-.158-.223-.255-.077-.073-.084-.062-.054-.028-.07-.023-.032.02-.022.04-.05.174-.054.121-.081.128-.097.041-.092-.057-.111-.24-.074-.256-.066-.458-.004-.231.063-.232.097-.127.248-.266.086-.117.052-.117.038-.13.066-.136.063-.091.065-.057.05-.042.076-.073.068-.119-.004-.161-.086-.178-.083-.117-.327-.346-.099-.137-.242-.432-.176-.241-.079-.073-.097-.064-.102-.135-.061-.192.022-.344.056-.166.068-.108.032-.084-.031-.11-.14-.228-1.04-1.02-.084-.147-.002-.146.129-.159.131-.062.235-.043.061-.035.109-.165.081-.098.099-.055.092-.007.097.036.084.058.189.17.11.075.09.011.066-.018.072-.025.083.011.065.115.043.151.119.873.102.402.068.177.088.146.079.081.086.061.259.123.28.097.523.105.153.048.126.065.101.098.172.232.104.108.151.075.171.012.316-.034.485.011.216-.021,1.101-.274h.129l.124.039.118.059.131.045.203.02.081.042.077.074.077.106.228.487.262.418.081.19v.163l-.027.145-.009.14.059.102.16.059.284.073.331.153.171.032.142-.033.086-.081.016-.114-.034-.137-.235-.405-.022-.1.011-.118.058-.303-.032-.113-.086-.106-.183-.086-.135-.087-.122-.146-.04-.077-.018-.038-.061-.385-.048-.085-.216-.244-.076-.113-.027-.108.016-.082.056-.115.381-.501.076-.131.047-.137-.047-.095-.117-.075-.233-.026-.122-.03-.056-.063.021-.058.059-.07.296-.239.329-.359.118-.074.135-.053.242-.037.745-.027.196-.043.162-.079.086-.094.04-.111-.009-.11-.036-.133-.156-.431-.034-.161v-.16l.04-.169.122-.348.007-.135-.05-.092-.16-.065-.49-.057-.108-.052-.04-.072v-.104l-.022-.075-.059-.094-.077-.072-.093-.077-.192-.113-.126-.026-.138.017-.189.106-.081.122-.023.151.032.159.056.162.07.143.307.448.063.164-.022.148-.135.109-.203.002-.233-.138-.181-.196-.284-.429-.153-.083-.232-.074-.465-.101-.178-.105-.093-.136.007-.136-.002-.132-.031-.098-.076-.077-.163-.012-.251.027-.456.111-.375.008-.264-.037-.172-.065-.331-.203-.14-.008-.149.054-.226.203-.21.327-.214.271-.07.13-.045.185.038.479-.027.142-.047.107-.095.087-.167.032-.307-.016-.361-.12-.442-.104-.543-.03-1.04-.212-.041-.185.079-.163.086-.137.092-.124.034-.111-.013-.115-.108-.115-.568-.235-.131-.102-.128-.142-.099-.164-.063-.174-.034-.199.023-.257.047-.161.065-.128.066-.08.092-.066.085-.031.086.004.092.023.115.017.124-.017.095-.058.047-.083.061-.232.063-.112.174-.176.054-.093.011-.146-.034-.159-.117-.213-.099-.097-.108-.052h-.341s-.388-.05-.388-.05l-.135.01-.102.031-.248.13-.111.029-.083-.006-.076-.047-.074-.085-.135-.251-.18-.423-.095-.17-.113-.148-.118-.089-.129-.064-.268-.095-.092-.061-.061-.119-.214-.845-.043-.291.009-.255.092-.435.167-.425.151-.275.054-.214.007-.227-.066-.569.048-.166.075-.052.377-.137.07-.042.043-.058.043-.102.268-1.129.061-.441.009-.31.054-.375-.004-.149-.045-.15-.162-.192-.128-.079-.119-.044-.113-.027-.122-.045-.323-.216-.109-.048-.519-.113-.097-.035-.045-.062v-.069l.129-.181.147-.16.079-.07.059-.101.027-.13-.018-.257.029-.426.327-.541.207.069,1.514.881.28.056.463.04.221.064.322.154.185.031.167-.038.239-.123.185-.039.199-.012.117.026.119.046.099.082.079.101.081.125.092.096.122.032.142-.022.138-.063.115-.078.408-.4.119-.165.108-.232.124-.458.117-.238.108-.171.11-.134.079-.147.066-.163.045-.168.032-.227-.005-.367-.063-.348-.264-.86-.149-1.18-.196-.251-.146-.103-.192-.1-.602-.145-.142-.069-.095-.106-.059-.239-.14-.939-.119-.291-.111-.175-.088-.059-.092-.117-.076-.158-.09-.313-.167-.328-.056-.069-.02-.081-.018-.144.104-.146.14.054.285.239.07.035.068-.018.056-.125.036-.225-.016-.805-.165-.797.004-.102.016-.083.049-.139.12-.23.153-.167.164-.108.171-.045.163.006.156.041.178.07.169.038.109-.071.031-.171-.14-.411-.235-.405-.203-.436-.086-.07-.083-.04-.09-.031-.099-.07-.059-.218-.041-.365.09-.78v-.439l.086-.19-.023-.251.686-.849,1.22-.713.336-.115,1.101-.167.156.032.304.16.187.065.74.091,2.13.021.072.021.235.031.183-.247.294-.301.104-.187.065-.147-.048-.787.009-.408.065-.439v-.319l-.106-.965.021-.349.065-.281.074-.198.034-.221-.029-.498.039-.2.09-.16.093-.089.508-.308.164-.125.111-.144.093-.183.014-.26-.086-.195-.163-.129-.088-.195-.693-.308-.35-.052-1.087.031-.289-.031-1.742-.458-.156-.156-.474-.615.05-.096.23-.188.661-.366.58-.447.451-.253.135-.143.077-.19.014-.242.097-.176.129-.104.366-.145.16-.108.083-.142.063-.204.066-.31.085-.197.034-.139-.016-.089-.113-.088-.119-.019-.124.018-.196.067-.043-.017.007-.09.095-.192.129-.136.293-.237.074-.109-.025-.105-.147-.172-.35-.213-.079-.059-.023-.105v-.207l.092-.753.072-.181.101-.103.118-.076.049-.238-.016-2.202.04-.364.111-.357.158-.322.225-.342.063-.258-.045-.303-.42-.701-.129-.28-.086-.708-.059-.115-.167-.124-.167-.066-.323-.089-.16-.074-.135-.132-.07-.205-.018-.246.158-.515,2.119-2.75.198-.394.147-.419.163-.198.183-.09.21-.013.221-.043.167-.118.135-.19.047-.296.151-.176.167-.096.846-.193.063-.03.027-.015.501-.995.066-.221-.048-.125-.153-.055-.334.089-.221.109-.384.241-.201.083-.165.025-.113-.062-.066-.072-.108-.446-.575.085-.237.006-.354-.048-.21.004-.183-.027-.138-.063-.26-.199-.23-.126-.586-.244-.199-.331.216-.397.494-.665.196-.437.12-.125.18-.113.613-.256.162-.102.102-.14.041-.166-.049-.262-.084-.16-.111-.136-.226-.203-.075-.083-.034-.046-.004-.063.03-.11.104-.233.138-.197.133-.119.118-.058.164-.06.172-.084.167-.12,1.052-1.013.075-.12.045-.18-.016-.277-.077-.533-.176-.552-.135-.3-.151-.198-.553-.476-.066-.137-.025-.142.057-.175.083-.093.117-.056.226-.046.108-.033.084-.047.059-.072.018-.187-.178-.915-.365-.877-.022-.183.041-.288.083-.224.111-.223.027-.188-.005-.128-.559-.297.113-.401.011-.128-.097-.162-.086-.113-.785-.538.02-.141.083-.101.192-.153.173-.115.146-.139.106-.184.072-.282.03-.403.048-.133.083-.117.038-.165-.016-.098-.066-.131.077-.133.278-.268.097-.124.092-.19.108-.156.172-.154.146-.069.151-.04.715-.049.167-.028.173-.056.149-.087.14-.173.111-.241.119-.46.007-.269-.034-.226-.052-.162-.032-.189.041-.181.115-.189.226-.196.194-.07.174-.017.411.042h.092s.097-.02.097-.02l.138-.206.532-1.185.189-.334.153-.205.192-.092.241-.145.167-.074.212.003.341-.11.111-.053v-.212l-.021-.112-.124-.159-.115-.113-.735-.529-.216-.223-.032-.128-.018-.176.032-.227-.041-.159-.088-.068-.124-.007-.135.008-.102-.024-.102-.07-.041-.076-.011-.085.016-.169-.022-.089-.063-.097-.088-.058-.095-.012-.228.048-.117-.016-.059-.059-.038-.076-.018-.105-.005-.178-.027-.165-.048-.184-.117-.325.009-.14.072-.103.199-.107.172-.145.187-.191.226-.294.149-.154.126-.098.176-.077.102-.071.054-.096-.005-.15-.032-.137-.047-.126.009-.177.056-.216.171-.46.167-.594.097-.175.14-.191.37-.421.023-.148-.072-.064-.302-.133-.081-.053.005-.079.07-.108.237-.222.169-.129.178-.097.146-.046.149-.026.133.003.151.033.307.109.158.02.374-.05.077.007.057.041.388.623.178.185.21.144.242.097.224.024.205-.027.316-.077.115-.006.092.014.226.075.181.041.489.013.183-.034.12-.101.092-.172.031-.357-.004-.212-.164-.86.002-.148.036-.174.108-.175.104-.125.092-.142.224-.539.124-.218.178-.196.151-.099.162-.072.713-.12.169-.072.117-.097.088-.125.047-.153.018-.194-.054-.909.043-.432.084-.263.307-.596.09-.395.137-.239.178-.193.557-.325.153-.137.086-.143.065-.173.041-.185-.011-.162-.059-.147-.154-.152-.126-.064-.214-.055-.135-.176-.586-1.434-.135-.454.129-.515.702.296.237.166.061.071.106.17.185.377.057.077.066.063.074.048,1.092.425.106.003.142-.062.07-.073.049-.076.022-.055.038-.048.075-.044.106-.035.137-.021.106-.04.124-.018.133.012.183.1.147.061.165.031.255-.022.311-.057.246.048,1.078.413.575.337.106.013.393-.066.688.01.444.237.133.151.235.202.066.035.162.103.065.088.036.063.032.078.435,1.365.059.104.083.074.14.068.453.155.108.066.052.08.025.194.043.109.12.102.172.069.339.088.146.089.081.069.02.07.032.062.122.025.205-.009.449-.08.219-.091.129-.086.21-.43.059-.071.101-.087.699-.319,1.114-.197h.199s.199.036.199.036l.338.13.14.094.113.129.228.412.084.101.086.071.224.053,1.485.203.255.111.124.134.233.319.093.098.122.065.131.048.284.027,1.397-.016.07.026.12.018.472.018.144.058.097.08.043.094.061.071.065.06.16.081.081.029h.11s.128-.044.128-.044l.187-.154.072-.12.038-.118.004-.201.029-.187.07-.09.111-.088.291-.13,1.259-.396.108-.066.07-.077.289-.076,1.049.17.153.218.128.146.404.353.117.151.228.469.111.156.061.066.075.047.081.031.341.092.255.117.178.048.084.034.072.048.063.068.214.332.124.136.061.091.059.124.111.352.027.202.002.239-.075.678-.061.246-.031.332.011.365-.061.285-.054.165-.068.091-.217.176-.05.073-.029.115-.007.062.047.206-.036.335.025.348.085.373.145.408-.426.198-.445.384-.365.496-.189.534.05.597.302.118.895-.204.144.274.221,1.274.18.604-.011.91-.068.336-.176.216-.578.524.029.03.859.519.589.198.652.611.37.276.104.109.302.54.113.071,1.376.136,1.252-.136.169-.055.329-.24.214-.055.208.061.147.152.104.198.079.2.043.181.023.386.041.18.126.204.162.179.14.191.059.24.072.096.16-.13.147-.194.041-.1.199.058.122.149.065.204.257.076.327-.153.634-.172.386.009.278.113.309.301.167.118.379.184.163.117.386.348.797.929.257.367.366.369.241.341.298.345.167.281.106.269.149.554.431.992.431.693.072.191.013.176-.047.112-.149.09-.329.147-.135.101-.086.125-.045.169.005.195.092.245.131.123.189.051.449-.011.207-.027.144-.045.092-.068.043-.08.034-.111.075-.375.048-.105.07-.066.138-.043.144.02.185.112.09.212.032.241.011.247.038.255.126.22.162.107.198.013.208-.069.426-.195.228-.07.295.041.133.087.039.153-.075.176-.137.235-.128.266-.075.295.011.366.059.327.111.355.126.288.327.592.086.295.115,2.242.25.608.269.394.243.15.269.016.226-.113.435-.319.447-.215.467-.33.212-.12.165-.024.176.031.178.085.442.27.323.14.409.094.512-.003.778-.092,1.297.041.972.217.178.077.217.059.124-.005.124-.095.086-.143.111-.315.077-.113.147-.038.226.051.584.365.357.117.481-.262.289-.307.305-.254.269-.156.604-.076.241-.108.212-.224.146-.206.251-.234.339-.205,1.151-.527,1.71-1.131.602-.049.647-.128.816-.605.866-.12.69.201.3.181.239.192.298.325.018.009.21.023.262-.016.126.006.106.025.14.06.181.03.18-.082.124-.183.07-.232.108-.228.16-.139.284-.056.453.04.183-.05.109-.158.032-.246-.043-.277-.077-.322-.014-.232.076-.149.206-.095.164-.104.075-.149-.027-.14-.102-.149-.521-.382-.178-.193-.054-.141.031-.195.102-.216.571-.883.113-.218.074-.25-.02-.182-.137-.294-.014-.096.027-.133.253-.659.048-.279v-.253l-.029-.33.029-.091.074-.122.612-.744.135-.261.21-.539.156-.16.189-.052.307.087.197.093.158.031.181-.03.088.027.07.156.004.117-.011.152.005.145.023.096.054.11.025.108.007.147-.049.366.02.213.106.212.196.248.866.766.111.118.093.129.079.151.045.142v.148l-.034.135-.225.505-.04.207-.005.186.043.167.076.121.118.079.142.037.21.009.149.03.232.128.117-.011.167-.196.066-.186.079-.425.049-.155.113-.127.18-.132.303-.164.562-.379.526-.199.199-.129.171-.244.077-.219.016-.23-.109-.435-.014-.189.095-.135.178-.095.359-.05.221.06.172.115.183.149.208.076.298.019.124.094.038.143-.048.315v.151l.059.144.111.09.163.04.681-.025.151-.026.636-.317.178-.065.138-.015.224.018.18-.054.16-.153.081-.486-.02-.238-.065-.167-.092-.098-.07-.103.057-.21.061-.138.817-1.017-.027-.247-.043-.054-.059-.042h-.097s-.291.034-.291.034l-.108-.019-.058-.081-.129-.335-.264-.393-.032-.139.025-.147.048-.16.027-.171-.004-.142.009-.123.04-.086.436-.415.205-.233.181-.262.383-.671.199-.263.305-.295.189-.115.226-.035.192.045.196.099.16.175.154.11.189.023.957-.433.275-.206.433-.411.551-.421.266-.156.374-.108.244-.117.208-.186.056-.174-.018-.12-.07-.058-.092-.041-.075-.07-.041-.091-.059-.208-.048-.058-.088-.024-.097-.013-.086-.002-.072-.022-.086-.058-.356-.456-.054-.1-.097-.318-.07-.146-.077-.095-.101-.09-.075-.105-.018-.116.023-.159.241-.149.151-.048.158-.031.172-.01.199.064.047.036.208.116.415.128.189.114.372.278.205.045.246-.12.088-.154.014-.182-.032-.101-.081-.149.002-.007.005-.01.016-.026.219-.164.048-.125.011-.153-.178-.621.032-.152.108-.074.199.083.149.146.102.172.066.213.09.435.07.133.099.037.165-.06.113-.111.113-.211.144-.439.108-.127.14-.104.325-.104.149-.191.102-.212.043-.235.07-.226.084-.182.11-.076.14.028.189.27.255.501.14.211.708.785.25.388.086.191.336,1.049.106.186.108.082.104-.015.079-.096.057-.234-.014-.169-.034-.139-.041-.123-.036-.161.005-.147.03-.116.038-.099.011-.013.117-.094.129-.056.142-.007.146.008.375.17.28.694.138.758.054.099.18.24.187.559.072.206.047.089.054.077.122.137.102.157.092.184.05.08.068.059.072.044.138.117.092.049.819-.052.839.028.988-.209.291.01.216.08.162.135.183.063.462.015.156.07.242.188.156.044.348-.049,1.243-.316,1.114-.071.318-.132.273-.206.296-.395.138-.322.158-.504.095-.115.118-.051.19.033.155.008.16-.053.614-.765.081-.134.027-.111-.032-.084-.047-.072-.029-.09.013-.118.049-.131.142-.249.002-.013-.007-.109-.088-.212-.029-.13.043-.089.102-.051.237.017.203.041.221.009.201-.058.537-.481.189-.129,1.295-.625.181.04.086.086.081.062.142.002.198-.189.104-.209.041-.248-.025-.167-.032-.11-.054-.118-.029-.113.072-.078.156-.055.241-.02.614.004.19.033.145.06.135.174.059.126.062.435-.045.016-.187-.149-.239-.273-.207-.17-.089.155-.042.189-.178.266-.017.231.049.103.218.234.089.174.284-.438.072-.073.119-.003.129.024.083.062-.03.111-.472.678-.175.471-.723.926-.346.58-.252.285-.594.263-1.443,2.184-.105.37-1.626,1.735-.192.326-.079.311-.156.168-.925.641-.365.574-.289.294-.358.128-.103.055-.308.254-.119.076-.157.023h-.395s-.054-.023-.054-.023l-.161.267.204.169.376.027.464-.294.495-.385.413-.283-.325.26-.752.599-.832.82-.167.264-.733.513-.241.331-.376.296-.156.16-.086.194-.042.193-.064.185-.153.175-.189.646-.621.486-5.253,2.4-2.802,1.716-.55.473-.106.17-.232.484-.078.101-.03.074-.308.312-.078.054-.144.196-.687.465-.238.262h-.127l-.047-.109-.191-.262-.051.291.059.375.01.322-.379.258-.102.284-.132.588-.267.394-1.061,1.216-.386.258-.102.037-.154.162-.1.038-.102-.018-.055-.038-.037-.038-.048-.018-.042-.053-.034-.121-.068-.129-.141-.08-.371.022-.085.176.126.202.395.131.356.193.106.085.008.154-.171.121-.365.164-.228.19-.143.071-.591-.013.365.493.088.268-.279.117-.238.051-.228.125-.43.308-1.445.527-.608.439-.58.282-.407.316-.358.358-.109.065-.291.075-.127.052-.846.611-.141-.015-.093-.216-.246.146-.259.202-.288.182-.717.176-.665.432-.689.191-4.234,2.581-.399.425-.293.518-.212.25-.611.235-.301.305-.492.667-.527.48-.215.294-.133.576-.678,1.251-.034.385.076.407.222.322.529.163.091.077.079.084.106.053.093-.011.132-.04.108-.048.023-.035.303.156.181-.247-.023-.582-.065-.605-.148-.571.214.37.093.494.016.872-.033.879-.235.907-.106.995-.136.5-.416.906-.033.15.026.124-.017.087-.154.031-.081-.066-.096-.28-.12-.046-.103.132.079.258.184.279.197.202-.84.257-.966.952-.264.155-.264.056-.871.424-.56.407-.383.189-.543-.061-.255.215-.259.291-.263.201-.191.01-.239-.019-.204.032-.142.281-.127.057-.71.046-.337.075-.328.113-1.363.663-.352.288-.788.187h-.105l-.27-.049-.332-.224-.359-.179-.345.083-.269-.122-.625-.047-.293-.077.101-.215-.082-.166-.212-.098-.291-.012.154.384-.228.042-.697-.191-.356.037-1.02.333.078-.195.086-.139.037-.125-.072-.144-.221-.159-.216-.002-.208.105-.195.167-.28-.123-.25.013-.238.069-.246.041-1.004.626-.192.226.023.164.107.165.062.237-.095.312-.414.499-.205.794-.491,1.09-.178.937-.314.533-.103.333-.01.953-.099.285-.255.056-.815.814-.781.487-.286.238-.487.612-.009.216.079.169.102.134.065.105.116.351-.003.148-.113.114-.136-.012-.154-.104-.132-.123-.161-.219-.513-.439-.153-.092-.331-.101-.202-.253-.099-.334-.028-.351.13-1.348-.021-.316-.051-.294-.165-.561-.073.182.073.186-.13.123-.057-.089-.051-.05-.13-.107.277.703.078.759-.098.732-.598,1.303-.443,1.347-.177.372-.225.188.021-1.571-.098-.691-.462-.751-.279-.156-.413-.083-.798-.055-.139-.046-.107-.07-.106-.009-.123.126-.047.121.042.083-.772.03-.318.098-.274.174-.229.069-.181-.218h-.119l-.212.229-.274.2-.591.317-.16.051-.123.009-.113.023-.133.09-.277.274-.16.11-.747.202-.585.38-1.39,1.349-.286.469-.759,1.921-.035.346-.28.535-.065.273.236.115-.187.26-.288.535-.191.251-.566.572-.235.327-.096.324-.533,1.167.034.149-.177,1.656-.511,1.995.027,1.403.122.706.206.583-.007.384.559,2.8.052.884.044.171.109.118.195.173.412.28.139.181.113.616.126.208.085.192-.044.229-.109.127-.153.107-.331.153.127.111.177-.013.416-.096.12-.002.117.111-.016.107-.064.104-.038.1-.034.391-.214,1.016.048,1.415-.065.799-.27.352-.389.978-.154.238-.526.04-.187.071-.267.322-.03.054-.262.136-.146.267.069.187.397-.102.304-.265.271-.308.252-.142.252.228-.212.636.042.802.414,2.15.247.708,1.273,2.639.211.701-.066.794-.314.624-.112.419.117.354.18.299.365,1.217.505,1.148-.051.069-.115.157-.014.032ZM141.642,57.894l-.224-.066-.065-.171.14-.322-.14.036-.131.075-.122.103-.111.12-.136.098-.12.062-.005.078.21.147.201.069.406.053.417.207.208.033.212-.036.214-.1-.323-.094.092-.096-.007-.002.219.02.192-.04.11-.145-.005-.282-.05-.088-.056-.063-.065-.007-.072.079-.128.185-.124.099-.162.041-.573.006Z"/>
    <path class="cls-1" d="M13.455,128.52l.008-.385-.042-.182-.144-.189-.157-.138-.127-.156-.047-.24.46.225.134.016.136-.096.246-.319.151-.068.197-.027.284-.084.267-.147.14-.216-.802.132-.768.248-.574-.081-.822-3.379.228-.571-.161-.155-.085-.109-.109-.341-.018-.431-.037-.214-.119-.092-.072-.185-.191-.896-.076-.734-.318-1.212-.137-.308-.192-.312-.116-.277.089-.205-.123-.305-.072-.577-.043-.452.171.517.051.423.253.04-.11-.13.009-.395-.017-.333-.423-1.161.016-.398-.115-.974.037-.269-.062-.052-.034-.056-.014-.061-.009-.074.108.069.074-.025.045-.109.021-.186h.109l.167.116.229-.002.241-.089.205-.146-.262.027-.133-.069-.199-.312-.228-.217.011-.087.216-.069-.238-.303-.204.191-.27.729-.235-.569-.416-1.459-.147-1.091-.324-.64-.208-.576-.577-.741-.25-.434-.55-.718-.163-.362-.01-.18.025-.37-.016-.178-.069-.162-.212-.267-.075-.179-.03-.997-.099-.351-.499-.69-.168-.362.075-.409.238.168.417.094.416.022.243-.051-.156-.136-1.106-.387-.15-.074-.215-.308-.048-.779-.157-.324-.115-.174-.045-.217-.003-.461-.041-.147-.089-.093-.089-.125-.127-.643-.355-.674-.034-.449.263.319.181.495.198.39.32.013-.167-.24.061-.077.462.062-.735-.854-.226-.109.04-.063.042-.129.037-.064-.189-.091-.074.01-.093.081-.057-.223.006-.095.051-.158-.274.135-.034.223.034.256-.068.229-.246.121-.262-.039-.161-.142.052-.183-.133-.488-.013-.398.212-.26.55-.073v-.122l-.263-.104-.202.056-.194.11-.243.06-.195-.076-.136-.174-.021-.203.163-.157-.122-.336-.105-.762-.178-.31-.328-.27-.236-.072-.204.112-.25.286-.238-.471-.119-.139-.076-.017-.204.034-.076-.017-.119-.213-.011-.031-.6-.299-.259-.233-.089-.323.31.157.085-.103.004-.224.076-.195.175-.1.204-.023.192.065.139.169.177-.336.161-.211.204-.122.301-.063.175.022.153.047.107-.033.037-.214-.078-.064-.171-.035-.168-.095-.055-.241-.182.178-.545.256-.116.121-.095.137-.229.169-.276.122-.229-.006-.153-.192-.207-.548.594-.307.388-.333.12-.072.106-.031.392.043.25-.035.214-.086.291-.174.253-.229.043-.093.027-.08.041-.214.129-.404.102-.229.059-.164.04-.18.016-.162-.007-.152-.118-.594-.011-.129v-.133l.049-.27.039-.143.411-.837.059-.2.016-.171-.031-.119-.05-.101-.079-.082-.086-.069-.512-.294-.086-.105-.052-.116-.005-.17.043-.093.065-.063.075-.026.535-.104.129-.059.151-.112.065-.132.038-.159-.07-.714-.031-.136-.045-.1-.076-.118-.487-.513-.077-.153-.032-.147v-.152l.029-.226.004-.086-.016-.145-.057-.143-.066-.118-.205-.207-.047-.327.154-.272.158-.227.057-.327-.065-.255-.14-.974-.14-.517-.068-.121-.126-.127-.505-.278-.327-.121-.115-.024-.09.018-.232.164-.102.056-.124.046-.23.043-.21-.017-.259-.075-.02-.27-.092-.171-.023-.08.034-.063.214-.081.092-.088.081-.143.138-.421.228-.284.833-.65.145-.069.14-.026.122.04.074.077.034.119.014.122-.021.217-.02.079-.005.054.011.043.052.03.104.025h.564s.445-.068.445-.068l.215-.082.178-.094.302-.235.165-.165.32-.492.348-.654.061-.174-.039-.167-.084-.117-.233-.209-.016-.079.05-.093.483-.638.323-.661.221-.319.146-.253.118-.306.074-.446.002-.236-.032-.162-.054-.075-.072-.049-.086-.033-.392-.1-.124-.053-.083-.074-.02-.132.059-.131.192-.208.145-.087.167-.057.722-.019.119-.075.092-.147.041-.325-.027-.6.102-.748-.005-.261-.036-.19-.054-.141-.081-.119-.126-.125-.122-.082-1.489-.701-.109-.026-.09.011-.086.045-.151.116-.065.04-.086.037h-.077s-.074-.043-.074-.043l-.048-.116-.025-.145.027-.339v-.087l-.027-.073-.124-.193-.07-.154-.045-.149-.025-.301.032-.138.079-.086.196-.057.305-.029.124-.026.092-.05.079-.079.023-.098-.032-.066-.061-.046-.243-.104-.108-.06-.102-.071-.066-.083-.043-.101-.022-.13-.005-.131-.021-.126-.049-.081-.065-.047-.07-.003-.194.026h-.093s-.102-.025-.102-.025l-.086-.044-.052-.076-.018-.06-.014-.076-.005-.084-.043-.211-.04-.077-.045-.04-.056-.005-.079.021-.135.061-.194.133-.045.022-.047.016-.049-.004-.059-.022-.048-.042-.016-.046.011-.069.221-.492.09-.356.083-.099.167.021.122.091.117.121.115.079.124.024.122-.035.097-.098.043-.077.12-.377.063-.074.065-.027.12.024.09.066.076.083.079.104.083.088.108.046.113-.031.124-.121.295-.345.086-.076.095-.063.223-.119.101-.069.088-.092.07-.112.057-.12.151-.608.045-.092.084-.044.111.006.232.076.264.16.153.05.575.052.14.032.084.038.034.157.036.294.039.087.172.227.063.11.027.085v.077l-.005.063.002.081.014.051.038.038.063.027.088.003.108-.026.167-.075.138-.087.571-.514.133-.092.129-.057.12-.029.334-.037.181-.067.059-.143.048-.203-.478-.478.264-.206.137-.083.081-.086.054-.087.167-.557.059-.076.104-.046h.183l.146-.02.126-.056.14-.131.129-.208.054-.038.104-.043.225-.048.392-.215.131-.097.14-.066.192-.022.293.051.262.101.192.035.129-.014.102-.094.038-.064.018-.086v-.086l-.137-.771-.063-.209-.066-.161-.119-.228-.009-.049.009-.067.022-.05.142-.079.788-.235.239-.102.16-.091.115-.156.075-.083.257-.218.057-.11.151-.548.066-.056.113-.018.508.183.762-.139.095-.007.083.046.074.137.057.203.099.156.151.127.307.137.085.071.059.09.119.154.172.161.275.101.181.098.18.047.203.012.532-.164.79-.453.022-.289-.048-.346.007-.19.074-.109.18-.096.887-.013.316-.067.237-.103.377-.229.178-.045.961-.007.151.048.12.088.093.126.11.113.138.042.18-.024.65-.246.151-.097.149-.13.115-.139.187-.273.086-.059.088.007.163.101.458.413.232.149.241.063.185-.042.117-.113.07-.132.045-.155.014-.2-.022-.158-.048-.18-.253-.366-.011-.078.04-.139.079-.093.232-.157.066-.105.009-.19-.057-.221-.158-.285-.16-.18-.162-.145-.111-.156-.076-.22-.002-.381.056-.245.084-.187.092-.156.065-.167.005-.175-.023-.214-.081-.293-.09-.202-.151-.146-.264-.13-.086-.094-.065-.154-.065-.353-.09-.29-.295-.572-.023-.423.151-.174.232-.172.129-.123.128-.183.237-.536.099-.174.095-.129.151-.086.198-.072.178.067.282.172.129.379.19.378.465.172.438-.045.185.046.214.184.099.18.076.189.12.143.244.044.268-.202.287-.359.277-.203.237.269.428-.254.131.076.163.313.066.279.032.277.088.212.228.085.155.106.126.192.165.093.273-.194.192-.108.582-.121.228-.08.194.133.119.011.221-.065.361-.15.58-.364.312-.076.25.012.334.185.178.004.172-.058.307-.186.246-.062.21-.02.167.037.147.079.295.279.167.121.181.05.447-.008.219.029.471.115.224-.03.171-.093.372-.27.093-.123-.039-.199-.144-.155-.39-.273-.111-.188-.079-.399-.061-.156-.199-.176-.09-.176.031-.245.174-.244.144-.147.065-.119-.021-.133-.113-.203-.004-.073.07-.244.02-.151-.016-.151-.081-.145-.248-.298-.102-.151.027-.157.158-.144,1.189-.346.341-.31.056-.197.052-.119.092-.122.167-.103.393-.156.135-.098.079-.126.011-.141-.016-.117-.004-.133.065-.106.133-.086.217-.063.128-.074.077-.081.124-.32.077-.114.169-.076.208.021.325.171.303-.012.216-.052.163-.011.155.093.26.371.158.157.223.139.386.344.266.053.203-.873.149-.393.162-.28.162-.135.336-.157.171-.098.133-.118.07-.104.022-.173-.036-.25-.216-.507-.027-.387.232-.045.135.004.162.028.939.265.239.005.217-.118.201-.236.251-.541.093-.387.036-.355-.057-.514v-.287l.031-.196.221-.913.022-.244v-.228l-.079-.704.128-.231.246-.194.611-.224.357-.038.476.077.144-.009.169-.069.212-.117.207-.06.181-.005.339.056.187-.041.129-.104.077-.212.032-.189.065-.206.118-.192.232-.234,1.026-.786.469-.2.167-.037.133-.068.108-.15.065-.213.013-.404-.097-.536.048-.255.065-.204.557-.772.293-.12.162-.021.19.01.199.073.19.129.214.239.086.176.038.176-.016.826.018.183.048.177.165.108.275.125.602.2.232.114.129.097.036.37.043.141.099.111.162.043.253-.044.268-.195.284-.298.167-.072.109-.03.731.122.559.297.005.128-.027.188-.111.223-.083.224-.041.288.022.183.365.877.178.915-.018.187-.059.072-.084.047-.108.033-.226.046-.117.056-.083.093-.057.175.025.142.066.137.553.476.151.198.135.3.176.552.077.533.016.277-.045.18-.075.12-1.052,1.013-.167.12-.172.084-.164.06-.118.058-.133.119-.138.197-.104.233-.03.11.004.063.034.046.075.083.226.203.111.136.084.16.049.262-.041.166-.102.14-.162.102-.613.256-.18.113-.12.125-.196.437-.494.665-.216.397.199.331.586.244.23.126.26.199.138.063.183.027.21-.004.354.048.237-.006.575-.085.108.446.066.072.113.062.165-.025.201-.083.384-.241.221-.109.334-.089.153.055.048.125-.066.221-.501.995-.027.015-.063.03-.846.193-.167.096-.151.176-.047.296-.135.19-.167.118-.221.043-.21.013-.183.09-.163.198-.147.419-.198.394-2.119,2.75-.158.515.018.246.07.205.135.132.16.074.323.089.167.066.167.124.059.115.086.708.129.28.42.701.045.303-.063.258-.225.342-.158.322-.111.357-.04.364.016,2.202-.049.238-.118.076-.101.103-.072.181-.092.753v.207l.023.105.079.059.35.213.147.172.025.105-.074.109-.293.237-.129.136-.095.192-.007.09.043.017.196-.067.124-.018.119.019.113.088.016.089-.034.139-.085.197-.066.31-.063.204-.083.142-.16.108-.366.145-.129.104-.097.176-.014.242-.077.19-.135.143-.451.253-.58.447-.661.366-.23.188-.05.096.474.615.156.156,1.742.458.289.031,1.087-.031.35.052.693.308.088.195.163.129.086.195-.014.26-.093.183-.111.144-.164.125-.508.308-.093.089-.09.16-.039.2.029.498-.034.221-.074.198-.065.281-.021.349.106.965v.319l-.065.439-.009.408.048.787-.065.147-.104.187-.294.301-.183.247-.235-.031-.072-.021-2.13-.021-.74-.091-.187-.065-.304-.16-.156-.032-1.101.167-.336.115-1.22.713-.686.849.023.251-.086.19v.439l-.09.78.041.365.059.218.099.07.09.031.083.04.086.07.203.436.235.405.14.411-.031.171-.109.071-.169-.038-.178-.07-.156-.041-.163-.006-.171.045-.164.108-.153.167-.12.23-.049.139-.016.083-.004.102.165.797.016.805-.036.225-.056.125-.068.018-.07-.035-.285-.239-.14-.054-.104.146.018.144.02.081.056.069.167.328.09.313.076.158.092.117.088.059.111.175.119.291.14.939.059.239.095.106.142.069.602.145.192.1.146.103.196.251.149,1.18.264.86.063.348.005.367-.032.227-.045.168-.066.163-.079.147-.11.134-.108.171-.117.238-.124.458-.108.232-.119.165-.408.4-.115.078-.138.063-.142.022-.122-.032-.092-.096-.081-.125-.079-.101-.099-.082-.119-.046-.117-.026-.199.012-.185.039-.239.123-.167.038-.185-.031-.322-.154-.221-.064-.463-.04-.28-.056-1.514-.881-.207-.069-.327.541-.029.426.018.257-.027.13-.059.101-.079.07-.147.16-.129.181v.069l.045.062.097.035.519.113.109.048.323.216.122.045.113.027.119.044.128.079.162.192.045.15.004.149-.054.375-.009.31-.061.441-.268,1.129-.043.102-.043.058-.07.042-.377.137-.075.052-.048.166.066.569-.007.227-.054.214-.151.275-.167.425-.092.435-.009.255.043.291.214.845.061.119.092.061.268.095.129.064.118.089.113.148.095.17.18.423.135.251.074.085.076.047.083.006.111-.029.248-.13.102-.031.135-.01.388.051h.341s.108.051.108.051l.099.097.117.213.034.159-.011.146-.054.093-.174.176-.063.112-.061.232-.047.083-.095.058-.124.017-.115-.017-.092-.023-.086-.004-.085.031-.092.066-.066.08-.065.128-.047.161-.023.257.034.199.063.174.099.164.128.142.131.102.568.235.108.115.013.115-.034.111-.092.124-.086.137-.079.163.041.185,1.04.212.543.03.442.104.361.12.307.016.167-.032.095-.087.047-.107.027-.142-.038-.479.045-.185.07-.13.214-.271.21-.327.226-.203.149-.054.14.008.331.203.172.065.264.037.375-.008.456-.111.251-.027.163.012.076.077.031.098.002.132-.007.136.093.136.178.105.465.101.232.074.153.083.284.429.181.196.233.138.203-.002.135-.109.022-.148-.063-.164-.307-.448-.07-.143-.056-.162-.032-.159.023-.151.081-.122.189-.106.138-.017.126.026.192.113.093.077.077.072.059.094.022.075v.104l.04.072.108.052.49.057.16.065.05.092-.007.135-.122.348-.04.169v.16l.034.161.156.431.036.133.009.11-.04.111-.086.094-.162.079-.196.043-.745.027-.242.037-.135.053-.118.074-.329.359-.296.239-.059.07-.021.058.056.063.122.03.233.026.117.075.047.095-.047.137-.076.131-.381.501-.056.115-.016.082.027.108.076.113.216.244.048.085.061.385.018.038.04.077.122.146.135.087.183.086.086.106.032.113-.058.303-.011.118.022.1.235.405.034.137-.016.114-.086.081-.142.033-.171-.032-.331-.153-.284-.073-.16-.059-.059-.102.009-.14.027-.145v-.163l-.081-.19-.262-.418-.228-.487-.077-.106-.077-.074-.081-.042-.203-.02-.131-.045-.118-.059-.124-.039h-.129l-1.101.274-.216.021-.485-.011-.316.034-.171-.012-.151-.075-.104-.108-.172-.232-.101-.098-.126-.065-.153-.048-.523-.105-.28-.097-.259-.123-.086-.061-.079-.081-.088-.146-.068-.177-.102-.402-.119-.873-.043-.151-.065-.115-.083-.011-.072.025-.066.018-.09-.011-.11-.075-.189-.17-.084-.058-.097-.036-.092.007-.099.055-.081.098-.109.165-.061.035-.235.043-.131.062-.129.159.002.146.084.147,1.04,1.02.14.228.031.11-.032.084-.068.108-.056.166-.022.344.061.192.102.135.097.064.079.073.176.241.242.432.099.137.327.346.083.117.086.178.004.161-.068.119-.076.073-.05.042-.065.057-.063.091-.066.136-.038.13-.052.117-.086.117-.248.266-.097.127-.063.232.004.231.066.458.074.256.111.24.092.057.097-.041.081-.128.054-.121.05-.174.022-.04.032-.02.07.023.054.028.084.062.077.073.223.255.162.158.153.04.124-.064.07-.129.047-.152.056-.084.097-.029.122.02.307.087.176.03.19.01.178-.033.138-.081.086-.147.009-.154-.093-.277-.022-.142.009-.165-.022-.235-.059-.113-.106-.079-.119-.052-.12-.09-.054-.081.007-.079.057-.062.293-.1.068-.044.039-.051.016-.076.005-.081-.005-.089.011-.067.023-.081.038-.092.059-.096.065-.053.088-.034.102.05.048.077.014.13-.005.144.013.176.047.065.099.003.356-.255.12-.054.129-.002.162.098.259.324.172.035.332-.046.146.032.178.096.228.16.181.072.172.007.138-.028.124-.011.314.052.327.088.523-.078.09.062.093.116.02.147.05.12.122.147.219.126.113.157.059.185.039.195.138.396.039.176-.002.464.034.283.108.045.086.003.124-.071.095-.016.372.038.113-.005.092-.037.44-.363.458-.213.215-.052.352.03.142-.023.057-.053-.063-.205-.005-.128.032-.106.084-.096.113-.068.163-.056.21-.04h.25l.131.068.086.114.057.101.119.099.108-.013.097-.11.07-.181.061-.215.07-.183.126-.142.162-.087.286-.079.167-.068.102-.062.198-.221.156-.134.357-.229.144-.118.088-.118.041-.127-.011-.127-.057-.107-.104-.106-.095-.119-.059-.126-.016-.133.025-.118.07-.12.092-.097.156-.091.14.008.296.106.375.004.115.018.084.06.115.103.131.081.259.064.169-.048.14-.112.074-.152.05-.132.084-.128.097-.094.208-.134.102-.037.088.007.041.045.034.103.02.143-.022.47-.016.059-.032.074-.065.081-.334.286-.072.089-.038.119-.002.149.054.388.036.16.045.121.065.073.084-.036.11-.116.269-.364.224-.166.198-.044.19.019.165.058.104.013.07-.016.532-.313.817.495.203.477.093.375.016.23-.029.22-.171.335-.07.196.052.18.108.194.189.274.056.156-.013.132-.092.077-.111.038-.151-.004-.28-.068-.119.012-.092.108.016.164.054.186.135.232.113.096.165.006.296-.126.153-.034.146.012.149.058.124.088.604.698.14.135.129.092.086.022.241.031.167.042.334.118.381.068.172.007.149-.014.12-.043.226-.15.102-.044h.108s.11.044.11.044l.212.134.086.03.086.006.086-.013.23-.065.135-.015.171.029.081.085.029.117-.04.147-.124.345-.038.198-.009.218.075.5.004.039-.032.189-.056.156-.039.173-.022.208.048.779-.016.094-.038.079-.054.07-.063.107-.029.112.005.199.061.128.101.115.102.097.135.173.074.175.061.259.111.089.129-.005.264-.153.11-.016.088.038.162.116.097.045.093.027h.086l.101-.015h.119s.113.043.113.043l.695.549.079.041.104.02.113-.004.122-.032.092-.045.097-.08.226-.247.092.056.063.092.054.133.049.197.011.161-.011.167-.047.295-.007.15.002.128-.007.11-.02.107-.034.092-.092.384-.068.183-.113.186-.28.298-.111.154-.061.195-.022.426-.041.259-.086.211-.156.182-.113.09-.325.165-.109.079-.077.117-.065.19-.101.402-.045.136-.036.067-.189.298-.447.561-.068.204.011.11.059.065.155.041.192.095.221.158.255.36.086.222-.007.173-.097.07-.176.008-.21-.074-1.078-.774-.128-.062-.102-.041-.097-.005-.111.018-.115.052-.074.098-.032.131.005.427-.023.11-.063.062-.163.102-.122.045-.108.015h-.151s-.057.023-.057.023l-.135.146-.07.056-.054.023-.059-.021-.146-.126-.115-.067-.124-.037h-.14s-.088.033-.088.033l-.056.036-.027.068-.027.124.002.26.122.469.011.18-.052.176-.14.215-.14.171-1.142-.273-.532-.27-.769-.629-.569-.352-.271-.078-.192.029-.278.374-.061.103-.016.076-.036.111-.086.073-.255.049-.203-.079-.189-.135-.295-.341-.113-.17-.118-.145-.142-.132-.203-.132-.172-.055-.171-.023-.855.022-.774.266-.199.811-.201.402-.312.448-.07.174-.014.145.036.095.072.107.054.097.011.161-.092.087-.113.062-.16.06-.751.439-.198.074-.194.032-.165-.016-.318-.079-.185-.008-.128.015-.408.149-.41.862-.242.749-.054.393.043.253.088.108.085.211v.143l-.111.338v.011l.036.078.059.045.102.016.135-.021.149-.043.135-.003.092.061.075.2-.016.248-.248,1.076-.111.281-.131.206-.322.358-.198.323-.551.556-.677.341-.176.113-.14.147-.097.168-.027.057v.216l.205.134.068.18-.036.299.086.124.153.037,3.053.028.535.104.449.233.074.09.14.099.49.795.065.16v.09l-.011.086-.04.165-.031.078-.038.073-.043.068-.065.067-.056.047-.122.123-.162.163-.178.135-.153.336-.6.746-.205.449-.194.148-.149.089-.153.067-.338.078-1.828.165-.205.091-.28.16-.085.186-.277.368-.122.217-.334.95-.154.301-.259.279-.189.073-.507.014-.436.126-.266.004-.239-.075-.316-.26-.146-.071-.3-.093-.156-.081-.223-.011-.199.079-.225.115-.241.063-.835-.034-.483.067-.248.066-.154.073-.056.108-.068.364-.129.23-.194.041-.237-.112-.974-1.01-.241-.14-.266-.07-.172.049-.338.151-.259.032-.377.013-.23.083-.183.126-.684.963-.419.721-.205,1.108-.095.159-.108.128-.936-.262-.28-.033-2.527.197-.382-.004-.286-.041-.176-.088-.115-.117-.047-.154-.005-.165.036-.369-.09-.223-.206-.211-.498-.178-.345-.007-.32.081-.244.147-.207.159-.149.144-.099.119-.065.093-.095.186-.26-.344-.063-.333-.016-.362-.038-.174-.086-.149-.124-.091-.192-.022-.126.029-.237.096-.128.016-.133-.015-.323-.064-.129-.051-.14-.1-.226-.232-.388-.547-.122-.115-.14-.072-.174-.005-.111.024-.172.084h-.095s-.115-.052-.115-.052l-.129-.149-.081-.121-.171-.328-.093-.13-.145-.15-.165-.098-.21-.07-.278-.011-.158.042-.129.059-.12.07h-.147l-.144-.052-.215-.189-.077-.139-.031-.19.07-.652-.011-.412-.056-.158-.138-.075-.289-.009-.609.213-.655.367-.39.04-.966-.246-.388-.006-.332-.059-.303-.085-.268-.117-.268-.167-.309-.285-.257-.298-.113-.169-.128-.31-.066-.56-.068-.171-.088-.057-.199-.059-.144-.013h-.097s-.151.03-.151.03l-.097.004-.119-.012-.138-.047-.135-.08-.39-.291-.149-.068-.154-.013-.248.067h-.092s-.092-.05-.092-.05l-.086-.103-.099-.197-.099-.153-.119-.13-.221-.139-.19-.077-.516-.135-.28-.248-1.651-1.927-.268-.243-.118-.025h-.102s-.172.021-.172.021l-.093-.003-.081-.014-.074-.031-.063-.122-.072-.216-.111-.522-.113-.313-.189-.297-.216-.22-.066-.116-.032-.136-.009-.281.025-.144.05-.114.253-.192.075-.083.063-.107.032-.102.011-.081-.005-.058-.025-.061-.043-.046-.156-.032-.119.002-.494.137-.104.017-.036-.002-.043-.025-.043-.04-.05-.065-.192-.309-.12-.092-.038-.01-.025-.009-.05-.025-.068-.075-.084-.122-.11-.198-.23-.222-.065-.107-.011-.144.063-.199.242-.289.11-.39-.792-.21-.219.015-.104.121-.074.064-.108.051-.113.027-.12-.007-.111-.044-.12-.12-.251-.399-.106-.079-.158-.012-.144.047-.124.065-.12.014-.122-.051-.14-.166-.065-.13-.031-.12.004-.122.023-.123.048-.132.014-.072-.032-.058-.095-.073-.393-.225-.19-.065-.228.003-.135.077-.201.165-.068.04-.07.012-.102-.03-.12-.057-.086-.101-.027-.079.002-.064.041-.126v-.053l-.014-.039-.072-.037-.09-.022-.329-.031-.097-.024-.081-.046-.108-.112-.057-.105-.039-.12-.041-.297-.018-.082-.036-.084-.038-.051-.079-.04-.124-.035-.233-.033-.386.021-.758.238Z"/>
    <path class="cls-1" d="M19.849,141.661l-.099.017-.102.072-.062.088.026.065-.257-.246-.129-.341-.1-.631-.638-1.484-.225-.822.153-.599v-.121l-.225.049-.123.121-.099.156-.147.157.011-.22-.024-.219-.106-.406-.274-.651-1.12-1.924-.129-.372-.018-.142-.058-.1-.126-.096-.127-.121-.057-.171-.059-.353-.15-.277-.373-.535-1.314-3.331-.165-.308-.25-.293-.025-.104.758-.238.386-.021.233.033.124.035.079.04.038.051.036.084.018.082.041.297.039.12.057.105.108.112.081.046.097.024.329.031.09.022.072.037.014.039v.053l-.041.126-.002.064.027.079.086.101.12.057.102.03.07-.012.068-.04.201-.165.135-.077.228-.003.19.065.393.225.095.073.032.058-.014.072-.048.132-.023.123-.004.122.031.12.065.13.14.166.122.051.12-.014.124-.065.144-.047.158.012.106.079.251.399.12.12.111.044.12.007.113-.027.108-.051.074-.064.104-.121.219-.015.792.21-.11.39-.242.289-.063.199.011.144.065.107.23.222.11.198.084.122.068.075.05.025.025.009.038.01.12.092.192.309.05.065.043.04.043.025.036.002.104-.017.494-.137.119-.002.156.032.043.046.025.061.005.058-.011.081-.032.102-.063.107-.075.083-.253.192-.05.114-.025.144.009.281.032.136.066.116.216.22.189.297.113.313.111.522.072.216.063.122.074.031.081.014.093.003.172-.019h.102s.118.024.118.024l.268.243,1.651,1.927.28.248.516.135.19.077.221.139.119.13.099.153.099.197.086.103.092.051h.092s.248-.068.248-.068l.154.013.149.068.39.291.135.08.138.047.119.012.097-.004.151-.029h.097s.144.012.144.012l.199.059.088.057.068.171.066.56.128.31.113.169.257.298.309.285.268.167.268.117.303.085.332.059.388.006.966.246.39-.04.655-.367.609-.213.289.009.138.075.056.158.011.412-.07.652.031.19.077.139.215.189.144.052h.147l.12-.07.129-.059.158-.042.278.011.21.07.165.098.145.15.093.13.171.328.081.121.129.149.115.051h.095s.172-.083.172-.083l.111-.024.174.005.14.072.122.115.388.547.226.232.14.1.129.051.323.064.133.015.128-.016.237-.096.126-.029.192.022.124.091.086.149.038.174.016.362.063.333.26.344.059.128-.005.049-.022.082-.043.06-.081.046-.142.052-.282.061-.21.143-.146.168-.093.178-.156.204-.212.157-.411.081-.28-.011-.386-.137-.194-.097-.44-.055-.115.17-.041.153.009.154.088.293-.013.135-.095.282-.011.133.043.122.07.123.038.086.027.103.014.075v.026l.016.062.077.143.162.153.774.143,1.882.59.171.091.356.335.153.111.23.089.198.056.215.098.178.137.37.575.453.249-.156.437-1.043.747-.155.149-.359.496-.066.189.013.164.128.127.144.038.167-.009.42-.153.093-.021.09.004.102.026.42.187.167.041.167.002.402-.085,1.178-.061.251-.056.12-.065.494-.366.128-.065.075.035.018.128-.043.32-.086.213-.113.199-.038.136.016.134.122.202.113.113.142.104.154.198.124.299.189.613.146.286.149.182.126.061.09.08.018.108-.086.168-.12.089-.16.045-.153-.023-.343-.156-.16-.044-.147.005-.128.053-.092.085-.088.135-.072.15-.07.253-.034.239.016.253.072.329.225.403.232.202.275.138.859.259.884.411.154.112.099.146.079.185.086.278.07.166.111.185.142.123.14.075.129.045.097.065.057.098.049.206-.004.184-.038.187-.104.282-.043.219-.005.656-.052.256-.205.262-.212.108-.214.056-.172.023-.113.125-.03.222.097,1.434-.065.917-.016.063-.011.084-.169.387-.054.558.027.208.048.176.081.179.248.357.11.208.041.217-.048.47.007.222.059.184.128.132.354.223.201.156.21.198.349.403.154.144.108.061.151.037.092.033.26.143.223-.022.287-.116.591-.417.769-.724.178-.122.221-.109.769-.275.629-.343.409-.116.284.225.066.084.404.702.117.163.095.339.027.359.102.245.104.149.216.14.07.072.038.126-.002.195-.074.32-.817,1.712-.059.182-.002.136.266.57.359,1.106v.172l-.061.278-.476.931-.043.203-.016.227.095.705.11.386-.002.312-.038.248-.83,2.661-.02.157.005.123.048.096.054.056.085.041.115.042.144.037.118.043.102.052.076.064.156.162.095.081.183.019.151-.003.79-.374.129-.027.309-.009.117.015.115.073.092.124.137.331.126.232.539.64.102.238-.013.443-.485.417-.106.144-.109.225-.427,1.263-.465.755-1,3.127-.427,1.013-.345.506-.636.442-.119.104-.03.052.054.293.406,1.102.194.472.26.225.318.177.142.112.092.099.05.081.022.065-.013.189-.3.975-.753,1.146-.198.259-.032.148.03.221.054.152.027.142.011.292.03.169.061.167.084.153.135.158.819.641.316.346.099.153.065.179.005.176-.108.276-.169.256-.327.339-.198.123-.14.032-.092-.065-.12-.12-.041-.031-.038-.011-.032.03-.018.073-.005.164.021.16.142.5.031.153-.065.192-.151.248-.374.44-.194.354-.083.194-.004.095.025.187-.004.113-.027.12-.056.1-.133.101-.151.049-.327-.035-.102.009-.048.019-.142.145-1.989-1.447-.578-.638-1.433-2.025-.932-.857-.222-.549-1.252-1.454-.181-.409-.619-.557-.614-1.047-.274-.336-1.493-1.253-.255-.381.072-.205.191-.018.246.363.311-.065.325-.171.187-.131-.232-.006-.235.082-.212.02-.161-.205.03-.191.144-.241.191-.207.174-.088.943.12.057-.061-.151-.129-.204-.125-.106-.043.133-.078.253-.065.208-.083v-.132l-.184-.058-.24.049-.208.097-.093.085-.106.181-.246-.04-.411-.195-.103.112-.189.539-.127.196-.13-.25.122-.117.059-.104.068-.268-.274.173-.188.207-.076.258.064.327-.174-.137-.115-.251-.062-.282-.018-.23-.052-.201-.238-.352-.19-.582-.501-1.038.034-.409.037.102.037.062.028.077.014.14h.13l-.006-.256.113-.709-.164.132-.041.072-.033.154h-.116l-.331-1.063-.263-.581-.238-.029.026.186.535,1.342.034.253h-.107l-1.383-3.149-.89-2.937-.361-2.455.106-.442-.344-2.642-.42-1.305-.112-.175-.113-.8-.068-.233.263-.183.314.212.263.394.11.349-.093.074-.407-.126-.093.052.014.224.051.195.109.152.182.093.021-.108.098-.25.085.246-.014.279-.066.228-.064.094.157-.017.177-.07.082-.148-.132-.254.199-.155.091.321.436,2.837h.127l.02-.481-.17-1.093.15-.47-.386-.527-.068-.271.219-.16.082.255.272.462.107.24.033.215-.042.386.01.237.153.924.158.351.294.29-.028.282-.102.227-.129.212-.109.235-.341,1.558.072.256.335.109.853.161.161-.041.416.181.314-.112.455-.547-.328-.154-.31-.221-.314-.123-.352.14-.191-.106-.178-.134.221-.44v-.356s-.081-.38-.081-.38l-.009-.814-.079-.308-.129-.181-.148.076-.034-.188.047-.319-.013-.211-.057-.171-.151-.311-.03-.182.064-.307.126-.168.091-.183-.042-.354-.147-.327-.379-.661-.079-.284-.667-.664-.161-.239-.3.274-.28-.466-.154-.672.081-.343-.328-.208-.172-.956-.153-.022-.15-.107-.083-.141-.132-.362-.136.37.105.321.173.293.096.284.034.703.071.364.133.309-.252-.219-.236-.43-.56-1.424-.021-.272.065-.257-.006-.16-.119-.183-.004-.268.81-.461.212-.234.017-.118.076-.122.017-.124-.042-.139-.102.018-.115.064-.086-.003-.164-.33-.123-.169-.2-.101.226.598.028.326-.136.286-.305.181-.235-.077-.175-.219-.127-.244-.26-.717-.306-1.448-.252-.721-.627-.845-.086-.299-.031-.357-.19-.77-.136-.269-.45-.424-.185-.24-.146-.675-1.052-2.118-.076-.321-.045-.117-.091-.119-.085-.138-.017-.178.052-.088.216-.176.088-.096-.529-.229-.289-.712-.25-1.458-.823-2.905-1.561-3.737-.089-.165-.072-.1-.049-.115-.027-.21.178-.125.051-.141-.12-.226-.232.071-.191-.252-.279-.673-.314-.53-.214-.221-.255-.09-.348-.017-.236-.086-.133-.199-.045-.359-.095-.318-.33-.465.059-.24-.948-2.297-.429-.592-2.196-2.43-.124.004-.291.125-.056-.069-.055-.184-.431-.479-.294-.584.328-.065,1.281.276v-.11l-.238-.153-.065-.183.055-.226.129-.292-.229.109-.328.308-.212.065-.303-.034-.272-.108-.241-.184-.206-.266-.201-.391.04-.131.584.04.262-.075-.083-.177-.337-.338-.024-.024.026-.256-.07-.214.137-.423.25-.233.115.067.129.084.18-.104.167-.152.241-.135.183-.152.253.005v-.25l-.268-.082-.201.111-.273.108-.271-.095-.28-.05-.219.201-.126.158-.248.133-.113.113-.099.143-.314-.064-.305-.081-.305.16-.02,1.086.007.293Z"/>
    <path class="cls-1" d="M100.228,163.018l.044.957.007,2.865.163.714.072,3.033-.123,1.5-.093.194-.296.061-.342.111-.34.056-.287-.108.026-.373-.399-.219-2.154-.343-.207.078-.124.256.283-.017.28.015.266.045.252.076.144.07.175.124.156.046h.472l.489.12.256.15-.021.21-.221.061-3.123-.66-.288-.021-.119-.027-.068-.071-.017-.186.089-.049.144.006.151-.021.523-.213.054-.121-.351-.135-.334.137-.68-.043.064.146v.12l-.361.116-.9.146-.39-.022-.44-.201-.24-.064-.219.079-.378.32-1.023.593-.327.268-.242.323-.034.195.007.242-.025.206-.126.087-.238.064-.144.166-.064.231.02.257.119,1.175.171.538.433.323-.666.443-.702.706-1.017,1.387-.356.717-.31.352-.047.071-.117.416-.283.353-.677.612-1.008,1.402-.017.15.007.167-.051.196-.078.116-.187.15-.092.091-.161.256-.16.336-.119.385-.108.841-.209.689.035.372.315.64.457.551,1.393,1.23.605.259.71.151,2.366.048.383-.143.406-.279.399-.187.365.13.081.163-.055.132-.102.15-.052.214.035.186.085.117.081.088.037.098.107.164.25.233,1.222.897.267.303-.232.134-.283-.135-1.095-.951-1.187-.645-1.048-.132-.269-.167-.277.016-.294-.092-.325-.043-.625.313-.535-.016-.199.06-.458-.189-.609-.16-.639-.079-.559.06-.136.076-.348.292-.182.038-.124-.009-.119-.025-.156-.004-.6.085-.3.088-.496.272-.662.158-.27.169-.167.159-.195.136-.225.094-.895.058-.26.122-.108.273-.107.177-.246.12-.277.071-2.311.275-.625.144-.656.293-.603.391-2.393,1.956-.385.465-.605,1.081-.085.28-.059,1.165-.071.394-.14.321.233-.182.225-.027.204-.074.17-.325.086.399-.184.212-.314.146-.301.198-.076.124-.171.483-.252.319-.065.188.102.209h-.487l.364.561.119.571-.245,1.834-.086.183-.151.199-.477.447-.127.149-.297,1.026-.119.165-.297.049-.679.279-3.365,2.028-.221.233-.437.589-.276.135-1.888.316-.844.292-.594.426.074.559-.945.113-1.064-.2-2.331-.703-.122-.055-.242-.281-.137-.113-.414-.26-.417-.117-.238-.162-1.677-1.525-.32-.233.142-.145.048-.019.102-.009.327.035.151-.049.133-.101.056-.1.027-.12.004-.113-.025-.187.004-.095.083-.194.194-.354.374-.44.151-.248.065-.192-.031-.153-.142-.5-.021-.16.005-.164.018-.073.032-.03.038.011.041.031.12.12.092.065.14-.032.198-.123.327-.339.169-.256.108-.276-.005-.176-.065-.179-.099-.153-.316-.346-.819-.641-.135-.158-.084-.153-.061-.167-.03-.169-.011-.292-.027-.142-.054-.152-.03-.221.032-.148.198-.259.753-1.146.3-.975.013-.189-.022-.065-.05-.081-.092-.099-.142-.112-.318-.177-.26-.225-.194-.472-.406-1.102-.054-.293.03-.052.119-.104.636-.442.345-.506.427-1.013,1-3.127.465-.755.427-1.263.109-.225.106-.144.485-.417.013-.443-.102-.238-.539-.64-.126-.232-.137-.331-.092-.124-.115-.073-.117-.015-.309.009-.129.027-.79.374-.151.003-.183-.019-.095-.081-.156-.162-.076-.064-.102-.052-.118-.043-.144-.037-.115-.042-.085-.041-.054-.056-.048-.096-.005-.123.02-.157.83-2.661.038-.248.002-.312-.11-.386-.095-.705.016-.227.043-.203.476-.931.061-.278v-.172l-.359-1.106-.266-.57.002-.136.059-.182.817-1.712.074-.32.002-.195-.038-.126-.07-.072-.216-.14-.104-.149-.102-.245-.027-.359-.095-.339-.117-.163-.404-.702-.066-.084-.284-.225-.409.116-.629.343-.769.275-.221.109-.178.122-.769.724-.591.417-.287.116-.223.022-.26-.143-.092-.033-.151-.037-.108-.061-.154-.144-.349-.403-.21-.198-.201-.156-.354-.223-.128-.132-.059-.184-.007-.222.048-.47-.041-.217-.11-.208-.248-.357-.081-.179-.048-.176-.027-.208.054-.558.169-.387.011-.084.016-.063.065-.917-.097-1.434.03-.222.113-.125.172-.023.214-.056.212-.108.205-.262.052-.256.005-.656.043-.219.104-.282.038-.187.004-.184-.049-.206-.057-.098-.097-.065-.129-.045-.14-.075-.142-.123-.111-.185-.07-.166-.086-.278-.079-.185-.099-.146-.154-.112-.884-.411-.859-.259-.275-.138-.232-.202-.225-.403-.072-.329-.016-.253.034-.239.07-.253.072-.15.088-.135.092-.085.128-.053.147-.005.16.044.343.156.153.023.16-.045.12-.089.086-.168-.018-.108-.09-.08-.126-.061-.149-.182-.146-.286-.189-.613-.124-.299-.154-.198-.142-.104-.113-.113-.122-.202-.016-.134.038-.136.113-.199.086-.213.043-.32-.018-.128-.075-.035-.128.065-.494.366-.12.065-.251.056-1.178.061-.402.085-.167-.002-.167-.041-.42-.187-.102-.026-.09-.004-.093.021-.42.153-.167.009-.144-.038-.128-.127-.013-.164.066-.189.359-.496.155-.149,1.043-.747.156-.437-.453-.249-.37-.575-.178-.137-.215-.098-.198-.056-.23-.089-.153-.111-.356-.335-.171-.091-1.882-.59-.774-.143-.162-.153-.077-.143-.016-.062v-.026l-.014-.075-.027-.103-.038-.086-.07-.123-.043-.122.011-.133.095-.282.013-.135-.088-.293-.009-.154.041-.153.115-.17.44.055.194.097.386.137.28.011.411-.081.212-.157.156-.204.093-.178.146-.168.21-.143.282-.061.142-.052.081-.046.043-.06.022-.082.005-.049-.059-.128.095-.186.065-.093.099-.119.149-.144.207-.159.244-.147.32-.081.345.007.498.178.206.211.09.223-.036.369.005.165.047.154.115.117.176.088.286.041.382.004,2.527-.197.28.033.936.262.108-.128.095-.159.205-1.108.419-.721.684-.963.183-.126.23-.083.377-.013.259-.032.338-.151.172-.049.266.07.241.14.974,1.01.237.112.194-.041.129-.23.068-.364.056-.108.154-.073.248-.066.483-.067.835.034.241-.063.225-.115.199-.079.223.011.156.081.3.093.146.071.316.26.239.075.266-.004.436-.126.507-.014.189-.073.259-.279.154-.301.334-.95.122-.217.277-.368.085-.186.28-.16.205-.091,1.828-.165.338-.078.153-.067.149-.089.194-.148.205-.449.6-.746.153-.336.178-.135.162-.163.122-.123.056-.047.065-.067.043-.068.038-.073.031-.078.04-.165.011-.086v-.09l-.065-.16-.49-.795-.14-.099-.074-.09-.449-.233-.535-.104-3.053-.028-.153-.037-.086-.124.036-.299-.068-.18-.205-.134v-.216l.027-.057.097-.168.14-.147.176-.113.677-.341.551-.556.198-.323.322-.358.131-.206.111-.281.248-1.076.016-.248-.075-.2-.092-.061-.135.003-.149.043-.135.021-.102-.016-.059-.045-.036-.078v-.011l.111-.338v-.143l-.085-.211-.088-.108-.043-.253.054-.393.242-.749.41-.862.408-.149.128-.015.185.008.318.079.165.016.194-.032.198-.074.751-.439.16-.06.113-.062.092-.087-.011-.161-.054-.097-.072-.107-.036-.095.014-.145.07-.174.312-.448.201-.402.199-.811.774-.266.855-.022.171.023.172.055.203.132.142.132.118.145.113.17.295.341.189.135.203.079.255-.049.086-.073.036-.111.016-.076.061-.103.278-.374.192-.029.271.078.569.352.769.629.532.27,1.142.273.78,1.106.429.397.932.593.454.135.163.025.178.01.357-.013.115-.021.176-.069.201-.103.751-.793.088-.288.027-.248-.018-.218.027-.161.045-.085.065-.023.117.053.104.104.135.053.158-.031.657-.506.108-.104.086-.137.485-1.27.307-1.174.124-.309.041-.186.027-.499.049-.209.047-.14.169-.254.124-.13.154-.077.217-.005.214-.029.146-.104.102-.164.138-.307.129-.095.196-.056.708-.088.399-.124.243-.051.779-.084.192.095.099.191.054.22.09.191.14.079.167-.02.237-.137.129-.16.068-.153.013-.158.065-.263.095-.083.137-.031.296.003.428.068.124.045.102.055.065.054.045.079.054.251.074.115.137.051.451.043.192.06.158.104.194.096.257.029.375-.098.623-.052.205-.045.185-.123.119-.103.44-.537.607-.887.199-.173.21-.051.259.047.162.14.133.139.156.053.194-.048.253-.205.366-.469.322-.283.167-.217.14-.098.582-.289.111-.212.013-.206-.043-.178-.013-.124.023-.134.176-.353.027-.15.022-.313.041-.132.07-.103.083-.067.302-.108.413-.047.251.007.296.057.194.09.189.135.221.278.124.244.133.177.18.11.32.008,1.173-.245.212.038.145.11.063.287-.014.172-.029.135.027.11.097.132.419.236.275-.028h.334l.156.058h.194l.155-.057.099-.199-.007-.118-.063-.102-.108-.088-.118-.078-.126-.062-.11-.07-.07-.1-.029-.122.007-.146.059-.143.102-.085.203-.003.149.076.25.037.307-.053.99-.395,1.449-.862.14-.225.007-.161-.029-.138-.047-.123-.013-.095.032-.158.126-.188.264-.294.268-.227.35-.156.399-.116.12-.078.075-.136.013-.146-.032-.092-.07-.089-.14-.089-.113-.095-.086-.121-.02-.084.031-.099.07-.079.126-.031.115.025.377.268.259.112.418.016.029.051-.005.185-.022.087-.038.108-.095.15-.029.076-.025.105-.007.096.086.078.165.034.427-.04.28.005.86.194.406-.038.584-.273.017-.044h0l.099.004-.061.302.215.199.32.193.239.286.093-.18.026-.072.23-.056.122.308.174.667.066.468-.04.494-.161.892-.037.497-.181-.071-.068-.04-.031.324-.075.281.078-.035.277-.074-.024.409-.148.315-.181.285-.12.323.004.185.115.53-.1.173-.317.342-.068.162-.054.677-.238,1.278-.102,2.16-.199,1.29-.314.912-.086.637-.113.266-.318.492-.129.326-.198.824-.03.359-.064.251-.412,1.028-.604,1.02-.073.281-.366.684-.153.198-.407.24-.068.058-.041.052-.552.967-.358.362-.921.462-.144.214.161.076.359-.156.544-.342-1,1.557-.243.263-.106.157-.53,1.079-.467.553-.144.272-.023.185.023.593-.038.093-.161.24-.014.07-.01.002-.402.141-.251.19-.352.344-.124.057-.108-.01-.113-.134-.07-.062-.163-.098-.061-.053-.021-.073.027-.081.237-.254.049-.076.032-.098v-.089l-.075-.098-.135-.011-.516.092-.174-.03-.144-.104-.101-.155-.145-.173-.108-.051-.077.011-.025.016-.011.01-.167.195-.075.117-.023.114.032.109.314.282.048.112.011.085-.011.108v.112l.021.092.058.074.136.052.058.065.032.154v.161l-.043.168-.054.135-.095.177-.002.117.056.076.095.025.101.036.081.058.14.172.076.045.077.012.092-.016h.084s.081.016.081.016l.093.032.368.074.469-.007.115-.004h.002s-.133.651-.133.651l-.182.141-.119.333-.327,1.685-.064.694-.161.657-.038.353.093.721.407,1.251.09.685h.122l.076-.153.031-.129-.027-.108-.081-.092.284.038.127.146.092.916-.045.168-.157.046h-.479l-.116-.026-.117-.01-.182.045-.156.082-.164.128-.974.955-.14.277h.119l.229-.122.795-.567.173-.087.127-.314.297-.082.356.069.467.218.108.01.054.072.034,1.376.354,1.831-.054,2.69-.096.478-.378-.087-.327-.012-.28.167-.086.088-.135-.016-.341-.155-.35-.099-.115.053-.038.125.079.087.113.05.061.153.018.228-.023.049-.095.037-.084.01-.206-.186-.273.002-.013.139.101.112.126.035-.05.11-.146.136-.011.191.12.117.153.072.176.002.151.069.052.16.126.054.153-.09h.146s.061.059.061.059l.027.078-.014.094.048.064.171-.057.099.006.097.022.126.047.013.099-.137.117.013.071.031.064-.083.1.074.162.172.096.097.073.027.134.445.168.124-.009ZM107.888,115.011l.373.848.072.682h-.119l-.507-1.272.014-.032.115-.157.051-.069Z"/>
    <path class="cls-1" d="M21.274,141.288l-.693.527-.066.274.281.536-.54-.626-.11-.096-.105-.037-.088-.081-.065-.075-.04-.047-.007-.293.02-1.086.305-.16.305.081.314.064.099-.143.113-.113.248-.133.126-.158.219-.201.28.05.271.095.273-.108.201-.111.268.082v.25l-.253-.005-.183.152-.241.135-.167.152-.18.104-.129-.084-.115-.067-.25.233-.137.423.07.214-.026.256ZM100.217,160.025l-.105.522.116,2.47-.124.009-.445-.168-.027-.134-.097-.073-.172-.096-.074-.162.083-.1-.031-.064-.013-.071.137-.117-.013-.099-.126-.047-.097-.022-.099-.006-.171.057-.048-.064.014-.094-.027-.078-.061-.058h-.146s-.153.089-.153.089l-.126-.054-.052-.16-.151-.069-.176-.002-.153-.072-.12-.117.011-.191.146-.136.05-.11-.126-.035-.101-.112.013-.139.273-.002.206.186.084-.01.095-.037.023-.049-.018-.228-.061-.153-.113-.05-.079-.087.038-.125.115-.053.35.099.341.155.135.016.086-.088.28-.167.327.012.378.087ZM100.267,142.841v.002s-.08.385-.08.385l-.428.964-.164.806h-.002s-.115.004-.115.004l-.469.007-.368-.074-.093-.032-.081-.017h-.084s-.092.016-.092.016l-.077-.012-.076-.045-.14-.172-.081-.058-.101-.036-.095-.025-.056-.076.002-.117.095-.177.054-.135.043-.168v-.161l-.032-.154-.058-.065-.136-.052-.058-.074-.021-.092v-.112l.011-.108-.011-.085-.048-.112-.314-.282-.032-.109.023-.114.075-.117.167-.195.011-.01.025-.016.077-.011.108.051.145.173.101.155.144.104.174.03.516-.092.135.011.075.098v.089l-.032.098-.049.076-.237.254-.027.081.021.073.061.053.163.098.07.062.113.134.108.01.124-.057.352-.344.251-.19.402-.141.01-.002ZM141.642,57.894l.573-.006.162-.041.124-.099.128-.185.072-.079.065.007.056.063.05.088.005.282-.11.145-.192.04-.219-.02.007.002-.092.096.323.094-.214.1-.212.036-.208-.033-.417-.207-.406-.053-.201-.069-.21-.147.005-.078.12-.062.136-.098.111-.12.122-.103.131-.075.14-.036-.14.322.065.171.224.066Z"/>
  </g>
  <text class="cls-2" transform="translate(15.52 123.575)"><tspan x="0" y="0">SOUTHERN</tspan></text>
</svg>