<?xml version="1.0" encoding="UTF-8"?>
<svg id="India" xmlns="http://www.w3.org/2000/svg" version="1.1" viewBox="0 0 221.912 180.875">
  <defs>
    <style>
      .cls-1 {
        fill: #369790;
        stroke: #fff;
        stroke-miterlimit: 10;
        stroke-width: .25px;
      }

      .cls-2 {
        fill: #fff;
        font-family: Helvetica, Helvetica;
        font-size: 12px;
      }
    </style>
  </defs>
  <g>
    <path class="cls-1" d="M.832,16.553h0s.008-.023.008-.023l.413-.637.135-.089.311-.139.122-.076.054-.006.171.033.068-.004.062-.068-.042-.074-.073-.062-.032-.039.02-.121-.007-.168.04-.171.156-.129.175-.033.064.079.041.147.107.177.247.111.237-.102.208-.225.157-.25-.023-.133-.066-.191.01-.159.212-.038.109.075.061.152.025.177-.004.149.553-.4.801-.127,2.021.016,1.714.012,1.356.01.011-2.628.008-1.986.006-1.522.372-.796.902.04.254.391.102,1.102.332.262.176-.143.542-1.011.055-.152.031-.155.091-.112.242-.021.156.063.153.128.129.154.335.608.242.247.315.035.47-.174.707-.392.334-.061.42.124.979.479.322.066.687-.102,1.296-.477,4.905.132.508.23,1.36,1.439.765.381.947.114,3.528-.05.763-.167.629-.531.189-.346.42-1.18.186-.309.206-.115.606-.057,1.001-.335.357-.021.344-.074.635-.464.338-.158.95-.054.305-.116.792-.561,1.818-.436.729.016.214.457-.104.193-.3.2-.095.118-.014.208.169.667.085.754.129.274.296.283.639.317,2.328.184.357-.099.653-.337.357-.129.302-.068.106-.129-.226-.315-.063-.333.271-.341,1.063-.719.323-.104.331.024.379.164.339.012.181-.14.126-.213.187-.21.833-.3.169-.179-.135-.473-.607-.197-.695-.116-.399-.229-.049-.138-.021-.141.002-.144.027-.147.041-.382.058-.13.024-.126-.018-.118-.065-.107-.337-.297-.051-.542.138-.594.25-.454,1.15-.559.357-.257-.126-.195.523.102.747.504,1.609.459.221.016.286-.016.269-.2.226-.117.278-.09.451-.077.243.043.388.182.35.073.262-.043.264-.121.526-.397.185-.108.338-.087,1.335-.031.453.034.332.083.323.266.181.111.295.085.259-.007,1.721-.383.206.029.106.106.045.188.075.203.156.14.401.132.237.008.126-.049.031-.105-.02-.252.005-.12.068-.149.137-.138.268-.123.183-.031.162.019.111.071.178.268.142.113.33.093.248-.023.228-.085.165-.136.278-.339.093-.074.138-.072.83-.213.286-.035.176.128.135.215.207.413.325.229,1.275.429.582.075,1.036-.102.636-.157.278-.033.156.062.086.135.016.152-.022.112-.065.077-.145.063-.199.045-.816.061-.102.032-.088.055-.061.078.027.13.115.165.345.298.239.137.246.066.205.003.275.032.135.06.068.083.05.16.068.143.118.146.145.05h.151l.219-.044.201-.016.284.043.086.108.02.143-.034.167-.005.037.023.194.056.143.176.32.151.347.145.215.137.081.138.016.115-.032.084-.049.054-.051.054-.069.038-.066.28-.993.047-.09.034-.056.043-.051.119-.06.178-.038.338.028.194.066.761.505.28.103.248.055.329.04.165.055.162.111.102.141.097.175.199.525.097.173.135.145.237.183.28.113.232.069.855.06.686.011.438.095.634.215.241.009.232-.062.436-.304.092-.105.065-.097.036-.113.012-.095-.002-.195.011-.079.034-.093.054-.068.047-.078.023-.085.016-.135.004-.262.011-.091.029-.113.076-.152.095-.151.178-.189.09-.061.092-.017.172-.012.259-.049.56-.19.307-.033.198.036.068.068.027.048.013.026.041.133.023.145v.412l-.04.397-.149.412-.005.093.031.094.099.126.135.105.176.083.878.303.135.013.106-.037.115-.096.183-.109.126-.012.14.07.07.147.011.202-.058.245-.093.179-.133.134-.133.066-.205.054h-.264l-.243-.027-.176-.038-.077.015-.036.102-.018.171-.057.153-.146.154-.151.115-.108.133-.472,1.241-.048.237.031.19.262.469.126.381.097.186.176.201.395.196.142.11.239.303.129.093.348.155.124.136.072.15.056.3.07.166.379.464.275.264.178.012.675-.452.156-.126.156-.2.122-.218.201-.498.119-.174.151-.096.128.064.598.895.129.289.048.249-.007.407.007.099.011.047.118.267.208.323.099.523-.097.102-.217.168-.252.138-.277.197-.126.176-.072.199-.011.231.038.471-.009.233-.142.854.021.132.061.059.578-.031.145.037.145.089.12.157.101.204.113.326.14.254.187.182.226.096.458.079.154.078.083.088.124.194.016.13-.038.122-.072.161-.043.193-.005.472-.032.278.016.23.059.088.163.053.189-.061.21-.151.347-.336.173-.121.233.004.253.147.365.483.09.362-.025.397-.065.323.02.367.092.238.135.267.038.196-.036.25-.189.425.145.248.677-.059.187.1.374.38.214.024,1.37-.467.242.019.145.079.11.195.65,1.03.519.571.178.077.153.033.124-.022.144-.045.097-.059.065-.074.043-.082.068-.172.05-.087h.138s.228.063.228.063l.629.537.596.614.932.492.241.216.144.232.029.228-.023.249v.282l.05.304.225.393.223.165.208.063.183-.036.138-.052.113-.07.226-.207.146.006.223.096.476.304.201.274.133.234.066.196.309.532.129.087.196.085.151.098.113.118.14.274.128.353.356.923.192,1.651.075.284.099.166.097.041.113.012.133-.021.135-.06.145-.096.203.037.244.15.44.576.124.346-.016.344-1.421,2.868-.129.185-.151.164-.176.147-.21.123-.136.052-.214.031-.447-.007-.198.033-.14.048-1.306,1.011-.632.729-.169.119-.201.084-.178.036-.173-.01-.984-.309-.095-.009-.126.016-.138.077-.156.127-.149.342.014.219.18.208.796.76.284.204.259.117.198-.005.695-.108.559.033.435.103.226.114.156.16.038.171-.021.191-.084.179-.093.13-.173.181-.219.163-.264.146-.286.105-.546.113-.207.002-.172-.039-.119-.074-.248-.253-.128-.1-.122-.053-.113-.014-.113.027-.108.069-.113.176-.11.267-.052.494.038.325.092.344.031.245-.025.556.036.182.092.146.291.261.142.192.176.394.079.314.054.43.054.194.104.163.16.164.142.242.021.161-.223.711-.004,1.358-1.178.213-1.502.729-.167.249-.388.245-.436.144-.314-.055-.497.282-.659.207-.153.026-.257.106-.205.429-.027.154.013.199.144.52.018.236-.045.261.07.284.142.193.203.125.171.183.034.286-.183.581-.307.301-.316.148-.533.055-.138.092-.043.145.097.274.106.198.512.615.129.225.192.417.076.121.092.06.111-.013.507-.22,1.173-.194.539-.231.713-.215.4-.066.329-.008,1.236.125.181-.041.099-.085.063-.101.054-.054.093-.036.162-.018.156.034.104.049.137.115.108.127.122.108.156.035.661-.129.174-.055.16-.079.287-.184.131-.06.12-.024.097.017.059.046.043.081.102.246.041.141.022.158-.014.168-.056.143-.092.118-.187.157-.275.168-.424.19-2.292.642-.181.012-.189-.036-.417-.182-.172-.056-.196.073-.205.18-.406.461-.264.205-.303.173-.248.232-.239.387-.295,1.206-.189.314-.156.086-.972.355-.216.036-.162-.05-.268-.278-.142-.044-.145.091-.128.298-.266.894-.183.238-.196.123-.194.038-.196.071-.171.092-.151.105-.289.278-.034.017-.054-.004-.097-.029-.124-.051-.151-.046-.156-.016-.154.042-.124.069-.129.037-.124-.026-.957-.531-.178-.056-.146-.01-.084.049-.027.089.014.108.124.197.652.635.636.38.307.016.219-.013.194-.075.16-.009.183.021.172.073.16.124.201.274.081.175.205.271.562.203.264.067.153.183.273.434.322.397.253.247.21.149.153.139.117.222.167.671.172.353.145.436.149,1.435-.005.294-.038.271-.07.241-.106.217-.169.191-.859.652-.499.525-.023.13.04.338-.029.226-.07.237-.101.204-.142.17-.205.125-.289.104-.469.234-.419.269-.226.075-.907.06-.169-.026-.138-.061-.12-.134-.41-.617-.233-.2-.287-.175-.532-.257-.65-.477-.097-.051-.153-.057-.106-.06-.092-.092-.192-.449-.077-.14-.117-.121-.11-.052-.144.016-.086.053-.086.109-.187.493-.244.256-.566.191-.122.126-.009.078.041.121.102.061.133.031.167.007.124.017.12.037.054.061.036.104.054.422.034.108.052.062.088.042.099.025.205.024.075.018.045.048.038.079.036.11.14.661-.086.327-.203.457-.855,1.421-.49.668-.068.238.048.118.065.075.158.05.066.047.054.091.038.141.022.155.011.264.118.883-.027.267-.059.213-.158.295-.038.178.011.16.093.29-.013.145-.092.11-.244.037-.153-.018-.3-.081-1.146-.178-.162.046-.124.084-.138.203-.043.157-.007.12.018.138-.011.127-.029.132-.097.134-.117.104-.25.143-.25.087-.162.041-.463-.071.065-.914-.097-.115-.169-.13-.618-.085-.09.014-.075.056-.059.128-.027.147-.016.226-.027.085-.102.076-.178.063-.354.018-.21-.073-.14-.123-.066-.163-.136-.638-.005-.104.005-.089.029-.098.032-.071.061-.08.102-.091,1.135-.618.095-.099.061-.123.036-.206-.032-.111-.076-.055-.138-.003-.169.035-.153.008-.14-.021-.145-.102-.049-.09.009-.134.043-.173.034-.27-.086-.141-.108-.031-.137.048-.128.083-.559.48-.35.195-.099.01-.113-.022-.19-.079-.109.008-.081.052-.081.134-.235.59-.043.044-.113.013-.162-.02-.286-.067-.138-.013-.124.043-.054.075-.065.14-.012.103.012.102.052.104.086.108.124.103.307.201.14.12.102.121.068.139.038.126.054.726.045.195-.862.373-.435.098-.284.002-.442-.044-.137.041-.111.064-.099.097-.088.009-.404-.169-.099.005-.106.034-.221.149-.113.099-.34.193-.416.056.038-.189.312-.856.109-.811.054-.198.255-.359.058-.21-.035-.056-.079-.002-.081-.02-.042-.104v-.378l.018-.04.09-.6.146-.288.195-.295.168-.334.071-.409h.09s.198-.13.198-.13l.211-.176.117-.13.018-.053h0s.362.045.362.045l.47-.083.274-.208.039-.499-.078-.374-.274-.416-.291-.116h0s.559-.814.559-.814l.127-.353.068-.39.018-.414-.014-.22-.076-.395-.017-.198.055-.171.246-.248.055-.21.064-.838-.025-.363-.157-.256.718-.504h.113s-.031-.195-.031-.195l-.15-.116-.173-.087-.122-.119-.006-.151.065-.131.037-.147-.096-.202-.334.414-.252-.147-.098-.421.144-.408.208-.299-.115-.036-.219.081-.102.059-.667.493.156-.295.146-.654.185-.187-.491-.604.344-.334.522-.261.034-.38-.216.023-.386.119-.366.048-.167-.19-.031-.166-.091-.137-.134-.092-.157-.035-.204-.02-.098-.06-.174-.254-.089-.272.297-.035.68.122.38-.083.085-.179-.59-1.361-.11-.158-.174.023-.764.357-.049-.077-.112-.086-.076-.091-.075.109-.035.123-.018.338-.076.086-.518.242.095-.585.256-.433.141-.341-.255-.297-.13.119-.345-.008-.178.084-.065.146-.014.21.02.404-.031.237-.085.044-.133-.004-.362.226-.143-.047-.255-.332.008-.259.259-.299,1.097-.787.317-.289.161-.088.235-.002-.19-.189-.625-.21-.136-.158-.116-.187-.24-.104-.215-.165-.021-.367-.358.26-.117.119-.214-.254-.071-.205-.072-.555-.161-.453-.033-.171.065-.136.221-.078.614-.082.126-.104-.123-.157-.266.018-.509.139-.264-.078-.195-.174-.052-.174.158-.079,1.066-.322.656-.384.062-.065.901-.635.327.24.096-.199-.071-.298-.178-.06-.956.317-.317.159-.914.656-.501.082.107-.285.518-1.014.269-.222.277-.143.679-.625.24-.144.397-.088.423-.222.383-.286.276-.279.371-.735.221-.165.189-.01.43.128.224.02.314-.074.798-.331.518-.38.993-.368,1.086-.579.403-.068.153-.073.174-.177.088-.205-.102-.168-.127.039-.605.341-.649.243-.098.059-.322.263-.174.059-.365.082-.717.359-.404.078-.767-.15-.429-.036-.31.122-.368.248-.366.028-.738-.213-.389-.047-.987.174-.407-.045-.314-.076-.328-.015-.792.278-.351.07-.272-.116-.107-.413.062-.348.314-.708.107-.416.112-1.212.072-.185.322-.177.232-.412.341-.821.272-.23.314-.067.66.042.212-.164.078-.346.126-.314.356-.067v-.139l-.141-.032-.113-.011-.108.01-.103.033-.119.095-.059.127-.033.116-.037.067-1.225.106-.199.207-.154.222-.363.287-.403.24-.276.083-.163-.177-.457-.782-.093-.255.049-.339.229-.707.078-.413-.013-.221-.034-.212v-.203l.182-.355.058-.206.044-.41.109-.302.265-.372.314-.333.262-.196.41-.125.354.025.311.15.3.251.214.137.17-.007.14-.056.14-.015.202.067.171.089.329.25.73-.992.383-.315.611-.118.307.13.279.244.28.138.327-.188.106-.251.01-.337-.091-.315-.204-.186-.106.228-.236.127h-.288l-.264-.157-.271-.107-.355.059-.339.147-.23.162-.501.246-.522-.097-1.167-.466h-.225l-.195.042-.178.005-.32-.233-.178-.058-.393-.024-.359.108-.554.548-.338.237-.395.131-.223.015-.158-.078-.038-.16.211-.197-.054-.152-.263-.053-.286.205-.322.178-.38-.134-.098-.243-.09-.438-.011-.419.136-.185.291-.198.054-.383-.188-.249-.45.203-.18.233-.198.357-.158.395-.068.344-.144.45-.334.065-.361-.076-.229.018-.208-.299.048-.205-.023-.148-.421-.125-.296-.023-.259.051-.132.168.093.328-.774-.131-.226.057.3.328.428.169.322-.152.542-.538.099.236-.051.18-.102.18-.055.238.086.087.508.227.663-.052.187.834-.167,1.975-.167.323-.041.196-.068-.042-.144.183-.127.223-.017.077-.304.287-.144.072-.209.023-.284-.074-.078.059-.037.256h-.14l-.112-.241-.082.062-.069.187-.083.132-.068.071-.163.132-.168.046-.074-.185-.13-.2-.303-.199-.356-.111-.291.066.388.25.153.188-.057.209-.173.055-.668-.193.105.118.382.264.006.144-.048.12-.102.038-.153-.101-.246-.113-.314.018-.291.111-.17.164,1.024.356.294.037.653-.136.25-.016-.194.152v.127l.24.116-.119.126.303.138-.042.211-.127.246.045.243.119.214-.132.041-.539-.132-.132-.139-.208-.3-.223-.199-.362-.259-.342-.08-.15.341.062.073.15.064.178.043.149.018.106.079.314.556-.308.102-.416-.077-1.02-.435-.119.052-.047.287-.008.508.034.236.093.216.068-.094.074-.049.212-.1-.006.122.014.251-.008.123.576-.21.33-.058.235.079.274.173.247-.026.844-.323.088.055.028.246.075.206.327.165.074.144.041.036.208.656.081.127.083.101.112.086.177.079.198.015.195-.026.151.026.115.353.123.129.123.103.055.104.017.218.033.152.006.143-.055.191-.064.079-.223.209-.069.093-.573,2.131-.387.669-.922.977-.133.349-.132.243-.618.694-.201.143.096.189.025.162-.065.113-.187.043.096.246-.055.175-.1.125-.048.098.047.173.191.397.004.317-.242.252-.105.051-.163.056-.153.081-.066.123-.136.118-1.117.592-.318.076-.802.042-2.087,1.258-.306.27-.445.282-.335.087-.233-.058-.219-.025-.595.381-.754.271-.982.714-.59.129.134-.273.088-.129.122-.115-.317.104-.249.172-.754.65-.157.222-.064.31-.321.278-1.462.479-1.034.187-3.093,1.545-.412-.023-.119.138-.255-.079-.212.133-.185.201-.178.124-.311-.029-.352-.074-.287.054-.03.093-.118-.042-.143-.014-.156.027-.104.096-.078.152v.165l.025.112-2.308.143-.356-.02-.314-.113-.286-.242-.184-.096-.198.052-.201.091-.198.021-.164-.087-.56-.428-2.73-1.135-.997-.667-.366-.091-.202-.13-.598-.639-.317-.241-1.079-.436-.638-.583-.634-.404-1.935-1.816-1.643-1.31-1.502-1.944-.088-.172-.137-.184-.81-.773-1.158-1.384-.526-.818-.106-.597-.345-.065-.3-.169-.263-.223-2.201-2.333-1.069-.634-.269-.28-.573-.736-.355-.287-.362-.603-.56-.254-.328-.278-.516-.633-.103-.315.059-.542-.075-.286-.4.383-.215.055-.335-.173-1.604-1.555-.55-.401-.24-.228-.83-1.146-.544-.389-.283-.266-.191-.433-.762-1.088-.619-.517-.32-.342-.238-.59-.472-.756-.151-.356-.01-.433.129-.31.16-.274.076-.322.045-.382.117-.328.154-.274.168-.228.253-.217.696-.389.453-.334.136.025.066.143-.051.25-.136.189-.321.142-.136.192.245.446.165.154.291.049.154-.037.284-.168.156-.06.161.011.136.062.124.043.133-.053.246-.242.17-.131.168.023.242.216.062.303-.41.602.055.313-.272.406.072.367.288.299.376.204v.14l1.293-.2.856-.402.187-.35.233-.08,1.312-.023.583-.139.187-.082.099-.1.255-.359.047-.103.102-.037.115-.017.082-.046.1-.27-.05-.221-.102-.228-.057-.29.04-.31.105-.015.153.053.178-.112h.119l.208.758.033.373-.122.261.249.132.557.125.26.148.024-.171.042-.112.171-.238.185.146.119-.084.089-.176.093-.131.062-.062.068-.089.074-.08.09-.034.107.027.238.106.085-.006.167-.273.284-.853.14-.29.153.132.809.931.107.085.209-.044.105-.16.068-.215.093-.208.191-.219.148-.048.161.021.221-.01.365-.146.356-.24.987-.916.189-.114.015.027.389-.027.112-.032.315-.224.665-.062,1.488.199.587-.265.195-.296.306-.696.479-.635.563-1.069.901-1.355.072-.176-.03-.451.017-.205.051-.069.304-.316.562-1.116.216-.176.294-.14.56-.664.287-.22h.163s.201.048.201.048l.209.007.195-.119.124-.179.133-.296.096-.16.161-.37.023-.441-.083-.438-.153-.36-.208-.279-.325-.333-.297-.142-.13.295-.151.157-.7.369-.206.319.003.187.037.257.059.226.113.191-.158.449.003.169.031.157-.006.264-.033.263-.049.156-.11.087-.137.038-.365.003-.102.037-.092.069-.099.033-.125-.075-.088-.091-.071-.06-.082-.032-.115-.009-.078.037-.102.07-.092.031-.059-.115-.112-.134-.033-.031-.39-.104-.191-.25-.15-.292-.289-.238-.02.474-.173.296-.311.131-.445-.015-.117.02-.069.053-.081.003-.153-.133-.062-.093-.018-.062-.038-.033-.119-.011-.201-.05-.071-.125.021-.166.076-.172-.366.653.189.124.206.216.054.208-.266.093-1.014.128-1.127.458-.977.143-.98.343-.546.079-.342.096-.458.247-.464.334-.348.358-.543,1.003-.226.149-.373-.053-.704-.202-1.184-.013-.174-.06-.325-.265-.218-.059-.585.022-.187-.022-.184-.057-.119-.07-.092-.067-.089-.049-.826-.18-.325-.176-.58-.1-.598-.264-1.727-.166-.641-.193-1.153-.678-1.663-1.166-3.018-1.304-3.041-2.077-.532-.446-.115-.067-.059-.08.008-.177-.025-.177-.471-.201-.233-.286-.16-.344-.074-.288.045.064.192.193.187-.352.054-.202-.003-.216-.308.152-.478.081-.444-.083-.195-.348.348-.713.13-.044.532-.072.136-.063-.068-.136-.191-.136-.238-.063-.127-.056-.076-.124-.051-.131-.047-.075h-.102s-.116.045-.116.045l-.093.055-.037.03-.201-.115-.153-.115-.096-.147-.034-.208.034-.211.098-.155.153-.083.199.005-.081-.182-.109-.082-.139.018-.156.117-.204-.09-.088.102-.103.161-.263.084-.222-.081-.065-.202.04-.251.076-.238-.236.152-.199.065-.165-.044-.126-.173.161-.379.252-.406.315-.336.352-.166-.079-.208-.099.019-.132.081-.163-.031-.079-.091-.175-.281-.116-.143.071.316.105.296-.008.251-.274.177-.34-.021-.096-.264.082-.755-.102-.92.068-.447.324-.19.765.241.347-.004.021-.354-.113-.072-.161.039-.141-.028-.057-.272.068-.075.339-.104.274-.178.334-.032.167-.061.092-.091.276-.424.501-.544.317-.253.628-.243.29-.708.281-.315.164-.038.615.038.174-.06.339-.268.198-.06.214-.092.918-.704-.277-.114-.445.195-.228-.082-.464.471-.39.235-.45.082-.658.008-.358.06-.181.164-.238.551-.183.252-.194.117-.574.135-.284.137-.236.175-.256.15-.646.124-.402.267-.382.171-.294.26-1.196,1.444.167.116.025.135-.072.137-.12.128-.255.183-.168.015-.165-.055-.243-.025-1.1.044-.859-.113-.417-.127-.243-.224.116-.353.071-.017.351.017.068-.055.064-.255.041-.077.24-.135.195-.069.187.066.219.269.216-.266.291-.044.243-.083.079-.38-.373.213-.312.013-.28-.148-.28-.271-.195-.346-.03-.357.037-.376-.003-.404-.339.387-.175.129-.076-.194.04-.292.167-.473.071-.552.048-.157.009-.12Z"/>
    <path class="cls-1" d="M96.726,165.768l-.191-.023-.304-.037-.284-.068-.17-.118-.047-.219.047-.773-.129-.45-.594-1.142-.297-.396-1.018-.831-.328-.331-.332-.465-.064-.373.498-.057v-.134l-.29.009-.267-.07-.198-.146-.076-.218-.057-.057-.127-.045-.124-.085-.058-.18.103-.094.079-.097.055-.122v-1.049l.047-.268.119-.168.157-.15.151-.218-.399.127-.212.282-.083.419-.017.534-.119-.871v-.725l-.086-.279-.076-.016-.085.064-.109-.028-.106-.13-.055-.117-.075-.366-.477-1.474-.016-.095.016-.341-.052-.06-.303-.13.02-.236.088-.157.15-.114.206-.107-.304-.127-.267-.171-.187-.251-.127-.65-.257-.749-.093-.154-.139-.078-.049-.187.013-.406.062-.137.133.1.122.164.027.063.356.386.204.075.399.021-.16-.057-.124-.072-.106-.095-.093-.133.061-.09.185-.202.109-.088-.3-.007-.305-.108-.238-.19-.096-.254-.02-.145-.025-.021.025-.011.129-.115.061-.013.543-.244.003.301.081.128.098-.04.045-.201-.083-.323-.212-.119-.267.054-.267.198-.197-.434-.028-.121.034-.125.156-.224.035-.149-.033-.241-.088-.134-.283-.24-.187-.487.099-.502.16-.46-.013-.354-.119.135-.178-.275-.208-.504-.092-.484.177-.217-.008-.077-.168-.673.02-.286.076-.246.252-.455-.469-.237-.136-.176.141-.213-.199-.246.004-.185.13-.03.181.225.139-.416-.028-.432-.144-.412-.214-.354.119-.252-.024-.282-.095-.265-.329-.615-.003-.387-.313-.59-.055-.28-.064-.115-.314-.342-.106-.216.286.131.238.215.245.137.31-.101-.249-.316-.475-.931-.198-.283-.441-.368-.071-.225-.021-.197.205-.247.144-.276-.209-.281.127-.367-.263-.466-.588-.652-.099-.311.034-.147.147-.046h.226s.243-.041.243-.041l.648-.308-.257-.109-.553-.056-.259-.094-.191-.195-.119-.269-.018-.283.102-.243-.126-.146-.146-.222-.088-.239.047-.197.16-.208.102-.219v-.226s-.143-.225-.143-.225l-.089-.183-.057-.494-.092-.196-.276-.314-.105-.199-.099-.59-.148-.385-.81-1.332-.026-.37.318-.358-.287-.012-.178-.14-.059-.22.062-.247.187-.18.225-.095.17-.143.021-.327-.2.055-.161.113-.132.155-.11.184-.133-.237-.24-.263-.11-.254.038-.021.061-.109.025-.151-.061-.149-.109-.14-.04-.123-.153-1.406-.216-.391-.485-.117.144-.379.082-.118-.089-.12-.027-.158.031-.177.085-.177.229.086.076.122.03.159.092.198.141.186.071.039.096-.03.223-.016.301.035.347.096.322.189.218.311-.276.167v.225l.171.058.245-.336.042-.366-.151-.607.109-.281-.253-.144-.243-.026-.53.058-.305-.08-.304-.209-.163-.283.117-.309-.279-.01-.137-.088-.3-.4-.099-.048-.093.017-.09.004-.082-.087-.048-.126.006-.081.025-.088.017-.151-.042-.247-.102-.169-.123-.16-.1-.22-.031-.217.031-.721.075-.403.199-.375.303-.219.385.059.249.268.506.87.322.354.107-.354-.184-.184-.271-.18-.136-.345-.054-.278-.13-.308-.175-.249-.175-.104-.505.1-.191-.075-.076-.331-.41-1.064-.307-.245-.16-.588-.062-.703.011-.917.079-.297.15-.241.236-.146.137.006.26.137.184-.009.249-.486.209.177.622.684-.147.33.057.263.192.186.252.105-.123-.416.064-.465.187-.403.24-.222-.492-.207-.116-.142-.113-.285.023-.111.064-.163.034-.148-.068-.064-.098.013-.09.039-.066.058-.025.07-.27.125-.519-.223-.338-.438.274-.53.269.221.113-.172.038-.486.216-.074.246.064.24-.008.192-.292h-.602v-.125l.255-.025.413-.181.871-.242.078.01.177-.368-.296-.04-.485.148-.41.198-.082-.216.074-.484-.119-.173.189-.381-.107-.129-.206-.078-.113-.228.13-1.318h-.13l-.3.643-.252.235-.028.635-.122.246.286.214-.158.384-.744.773v-.175l-.107-.448-.277.264-.317.444-.257.511-.15.745-.11.275-.153.107-.17-.226-.013-.195.058-.192.035-.216-.081-.27h-.119l-.062.116-.071.086-.223.183-.088-.213.099-.21.345-.461.113-.269.044-.208-.038-.532.178.085.071.052.082-.169.042-.211-.051-.176-.204-.067.215-.553.02-.207-.035-.196-.161-.332-.038-.164.045-.135.178-.184.011-.1-.088-.112-.119-.003-.105.068-.098.273-.129.118h-.126s-.058-.168-.058-.168l.031-.164.332-.786.301-.531.178-.216-.26-.022-.226.289-.221.375-.243.232-.055-1.106.059-.62.17-.273.938-.095.481.042.321.38.262.097.518.077.281-.06.229-.091.225.021.272.267.386,1.003.28.344.4-.223-.341-.183-.035-.299.02-.279-.171-.123-.119-.117-.185-.258-.243-.258-.293-.116-.942.067-.31-.067-.267-.171-.491-.423-.32-.156-.32.326-.286-.031-.252-.243-.42-.641-.064-.161-.201-1.012-.024-.435.132-.253.257-.16,1.911-.768-.39-.164-.361.085-.348.15-.348.031-.14-.063-.115-.116-.074-.165-.028-.213-.082-.164-.185-.127-.314-.142h-.129l.065.193.042.175-.017.148-.09.111.256.227.098.132.013.141-.112.124-.133-.063-.331-.371-.204-.941.126-.35-.146-.794-.399-1.373.129.084.102.111.081.14.055.167.324-.153v-.173l-.136-.233-.079-.329.057-.105.123-.021.12-.035.057-.148-.009-.17-.023-.143-.078-.255-.663.82-.212.044-.037-.323.071-.667-.122-.226-.396-.536-.016-.184.174-.265.088-.278.034-.643-.059-.464.042-.205.195-.084.137-.12.177-.281.154-.337.076-.278v-1.073l.006-.028.416-.056.34-.193.113-.099.221-.149.106-.034.099-.005.404.169.088-.009.099-.097.111-.064.137-.041.442.044.284-.002.435-.098.862-.373.399.747.181.449.162.274.128.141.075.017.108-.021.135-.078.269-.224.146-.053.117.048.108.103.108.14.092.047.07.003.081-.041.239-.177.122-.058.171-.007.118.063.129.124.11.135.226.211.108.011.088-.027.093-.088.133-.269.086-.277.038-.277-.031-.684.463.071.162-.041.25-.087.25-.143.117-.104.097-.134.029-.132.011-.127-.018-.138.007-.12.043-.157.138-.203.124-.084.162-.046,1.146.178.3.081.153.018.244-.037.092-.11.013-.145-.093-.29-.011-.16.038-.178.158-.295.059-.213.027-.267-.118-.883-.011-.264-.022-.155-.038-.141-.054-.091-.066-.047-.158-.05-.065-.075-.048-.118.068-.238.49-.668.855-1.421.203-.457.086-.327-.14-.661-.036-.11-.038-.079-.045-.048-.075-.018-.205-.024-.099-.025-.088-.042-.052-.062-.034-.108-.054-.422-.036-.104-.054-.061-.12-.037-.124-.017-.167-.007-.133-.031-.102-.061-.041-.121.009-.078.122-.126.566-.191.244-.256.187-.493.086-.109.086-.053.144-.016.11.052.117.121.077.14.192.449.092.092.106.06.153.057.097.051.65.477.532.257.287.175.233.2.41.617.12.134.138.061.169.026.907-.06.226-.075.419-.269.469-.234.289-.104.205-.125.142-.17.101-.204.07-.237.029-.226-.04-.338.023-.13.499-.525.859-.652.169-.191.106-.217.07-.241.038-.271.005-.294-.149-1.435-.145-.436-.172-.353-.167-.671-.117-.222-.153-.139-.21-.149-.253-.247-.322-.397-.273-.434-.153-.183-.264-.067-.562-.203-.205-.271-.081-.175-.201-.274-.16-.124-.172-.073-.183-.021-.16.009-.194.075-.219.013-.307-.016-.636-.38-.652-.635-.124-.197-.014-.108.027-.089.084-.049.146.01.178.056.957.531.124.026.129-.037.124-.069.154-.042.156.016.151.046.124.051.097.029.054.004.034-.017.289-.278.151-.105.171-.092.196-.071.194-.038.196-.123.183-.238.266-.894.128-.298.145-.091.142.044.268.278.162.05.216-.036.972-.355.156-.086.189-.314.295-1.206.239-.387.248-.232.303-.173.264-.205.406-.461.205-.18.196-.073.172.056.417.182.189.036.181-.012,2.292-.642.424-.19.275-.168.187-.157.092-.118.056-.143.014-.168-.022-.158-.041-.141-.102-.246-.043-.081-.059-.046-.097-.017-.12.024-.131.06-.287.184-.16.079-.174.055-.661.129-.156-.035-.122-.108-.108-.127-.137-.115-.104-.049-.156-.034-.162.018-.093.036-.054.054-.063.101-.099.085-.181.041-1.236-.125-.329.008-.4.066-.713.215-.539.231-1.173.194-.507.22-.111.013-.092-.06-.076-.121-.192-.417-.129-.225-.512-.615-.106-.198-.097-.274.043-.145.138-.092.533-.055.316-.148.307-.301.183-.581-.034-.286-.171-.183-.203-.125-.142-.193-.07-.284.045-.261-.018-.236-.144-.52-.013-.199.027-.154.205-.429.257-.106.153-.026.659-.207.497-.282.314.055.436-.144.388-.245.167-.249,1.502-.729,1.178-.213.388.078.55.341.384.078.404-.021.363-.067.325-.115.289-.168.059-.094.014-.121.002-.111.022-.066.081-.034.199-.037.251-.117.379-.11.167-.083.691-.656.277-.025.354.315,1,1.121.149.539-.039.237-.086,1.566.022.28.059.196.206.403.059.171.039.515.057.17.151.174.232.186.435.288.557.45.289.167.916.253.203.17.176.185.21.172.232.107.399.047.569.003,1.565-.149.189.006.51.076.167.057.162.098.269.231.217.152.262.097.85.047.113.036.445.232.189.129.343.359.67.958.171.443.102.202.138.199.183.159.221.119.979.368,1.78.398.618-.06.215.044.146.055.226.056h1.715l.715.084h.237s.609-.16.609-.16l.392-.009.298-.06.273-.025.661.098.753.037,1.868-.097,1.108-.304.514.149.512-.014.269.03.598.232.92.235.162.009.176-.024.205-.056.21.027.189.175.248.487.39.97.038.795.178.817-.07.225-.133.088-.158.016h-.117s-.106.026-.106.026l-.054.033-.034.054-.011.044-.004.052.025.077.065.126.614.857.399.233.347.157,1.735.204.535-.131,1.067-.092.548-.183.456-.205.226-.27.345-.544.215-.273.286-.257.44-.208.316-.068,1.255-.134.207-.118.18-.207.155-.252.153-.328-.011-.788-.239-.495-.07-.204-.038-.178.065-.152.162-.176.426-.322.672-.375.189-.134.158-.177.347-.743.12-.167.214-.179.145-.157.108-.242.029-.093.011-.066v-.056l-.005-.071.025-.412.023-.125.016-.232.083-.503.354-.43.514-.246.975.013.307-.101,1.936-1.403.704-.348.803-.219.898-.076.203.037.142.088.077.07.052.088.07.094.093.083.119.046h.144s.185-.068.185-.068l.129-.095.101-.134.144-.267.113-.072.485-.105.19-.138.153-.238.194-.166.287-.086,2.22.082.232.051.232.121.102.113.07.14.03.11.032.074.049.083.097.061.388.144.171.111.12.158.059.198.178,1.312v.275l-.023.266.013.252.084.198.124.164.065.141-.038.151-.149.074-.194.035-1.71-.112-.223.026-.145.09-.063.15-.029.223.005.197.027.2.016.038.374.697.472.694.074.206.034.218.038.15.063.032.131-.102.135-.27.081-.093.1-.026.208.029.135.069.129.121.119.159.118.129.14.073.167.036.215-.018.183-.059.278-.151.174-.051.192.013.214.048.449.02.135.061.106.109.09.115.135.034.167-.044.544-.368.318-.125.44-.3.12-.029.19.03.824.359.323.102.338.013.336-.059,2.067-.689.981-.459.693-.414.329-.26.393-.44.208-.293.237-.241.273-.155.97-.214.799-.286.401-.525.124-.099.133-.055.174-.036.138-.012.377.032.106.026.21.116.129.182.016.51.135.3.068.229.05.448-.007.196-.022.071-.005.043.018.021.07.02.095.014.156-.01.151-.04.201-.115.14-.103.19-.106.199-.032.287.036.219.099.155.105.334.295.118.068,1.137.31,1.205.086.348-.029.383-.142,1.069-.099.683-.22.46-.091.675-.06.233-.086.203-.207.052-.179-.02-.171-.075-.173-.065-.197-.02-.157.176-.186.318-.15.796-.243,1.484-.175.598-.168.882-.343.483-.122.37-.141.201-.174.122-.34.029-.226v-.18l.027-.099.043-.064.323-.028.632.303.239.072.402.071.647-.021.282.033.239-.015.242.011.232.048.774.284.268.158.208.443.604.379.075.397.043.121.059.103.057.137.034.149.052.38.07.136.167.072.205-.021.402-.138.239-.15.334-.285.302-.2.171-.068.214-.033.56.054.938-.187.392.036.296.081.257.149.156.191.111.231.093.256.111.165.163.092.216.023.316-.025.28-.055.329-.104.115-.081.201-.224.205-.033.347-.117.219.012.014.04-.002.078.022.083.084.052.088.01.269-.01,1.304-.432.145-.376.343-.231.968-.315.187-.1.128-.11.077-.13.282.26.785.533.487.225.593.083.102.083.045.134.004.148.021.181.061.18.241.29.875.612.259.229.158.213.052.158.048.249-.004.102-.023.072-.054.084-.305.335-.034.131.039.153.122.097.126.042.187-.004.156-.028.469-.153.14-.027h.155s.189.032.189.032l.318.121,1.898,1.18.237.097.135-.016.101-.038.086-.056.327-.258.28-.089-.011.912-.208.416-.505.516-.205.168-1.34.667-1.112.722-.205.195-.131.171-.097.224-.048.193-.165,1.187-.192.679-.029.204.013.267.099.378.158.364.097.154.133.159.146.11.167.079.172.034.117.002.092-.016.271-.095.149-.033.113.007.126.065.111.124.079.147.045.212.02.164.013.387.004,1.797.282,1.538-.034.281-.086.182-.124.098-.726.35-.14.127-.106.148-.119.265-.029.173.005.156.038.092.07.065.093.047.149.023.151-.021.153-.059.257-.151.311-.23.109-.042.14-.017.113.01.257.075.128.053.113.062.135.097.023.087-.002.092-.016.103-.031.811.027.139.043.113.068.077.104.212-.076.219-.113.194-.12.303-.047.17-.05,1.163.023.295.063.254.077.183.095.349.005.173-.076.135-.113.058-.354.128-.172.094-.183.145-.481.464-.228.153-.226.081-.187.039-.984.102-.221.074-.172.118-.119.236-.02.215.016.199-.002.264-.172.59.002.184.068.116.142.048,1.401.079.137.027.122.037.153.066.392,1.134.07.458-.029.223-.021.089-.043.119-.122.477-.106.996-.065.273-.066.169-.09.039-.124.007-.162-.025-.196-.068-.541-.281-.12-.046-.138.051-.129.129-.237.362-.079.186-.027.158.041.084.075.081.093.055.126.045.503.083.128.052.076.09.018.207-.05.165-.074.137-.061.086-.063.068-.153.111-.275.136-.331.112-.174.087-.124.125-.036.129.043.153.145.104.205.086.471.109.189.022.162-.006.093-.03.054-.056.016-.058-.005-.076-.012-.093-.005-.087.013-.093.038-.109.079-.119.111-.096.147-.069.16-.03.174.015.162.085.118.162.068.179.167.682.129.283.156.202.219.181.223.096.67.155.196.072.162.096.149.129.14.228.162.996.113.266.171.187.201.09.839.23.266.127.519.399.145.045.133.006.149.027.124.073.287.301.41.359.273.416.054.29-.029.301-.111.245-.138.2-.201.157-.264.09-.499.06-.203.05-.14.094-.056.165.05.15.311.422.154.324-.021.204-.138.15-.672.265-.402.241-.174.136-.242.228-.221.258-.07.053-.066-.021-.108-.293-.354-.594-.176-.19-.469-.016-.338.103-.28-.033-.298-.423-.23-.737-.192-.184-.392.093-.187.152-.284.426-.163.185-.147.087-.325.112-.156.106-.169.233-.253.562-.16.238-.178.125-.402.168-.149.104-.144.297-.417,1.515-.043.26-.07.361-.354.656-.97,1.137-.323.728-.007.593.217.487,1.047,1.27.088.361-.18.321-1.114.664-.153.159-.095.231.014.201.059.233.097.329-.329.24-.169.055-1.252.136-1.376-.136-.113-.071-.302-.54-.104-.109-.37-.276-.652-.611-.589-.198-.859-.519-.029-.03.578-.524.176-.216.068-.336.011-.91-.18-.604-.221-1.274-.144-.274-.895.204-.302-.118-.05-.597.189-.534.365-.496.445-.384.426-.198-.145-.408-.085-.373-.025-.348.036-.335-.047-.206.007-.062.029-.115.05-.073.217-.176.068-.091.054-.165.061-.285-.011-.365.031-.332.061-.246.075-.678-.002-.239-.027-.202-.111-.352-.059-.124-.061-.091-.124-.136-.214-.332-.063-.068-.072-.048-.084-.034-.178-.048-.255-.117-.341-.092-.081-.031-.075-.047-.061-.066-.111-.156-.228-.469-.117-.151-.404-.353-.128-.146-.153-.218-1.049-.17-.289.076-.07.077-.108.066-1.259.396-.291.13-.111.088-.07.09-.029.187-.004.201-.038.118-.072.12-.187.154-.128.043h-.11s-.081-.027-.081-.027l-.16-.081-.065-.06-.061-.071-.043-.094-.097-.08-.144-.058-.472-.018-.12-.018-.07-.026-1.397.016-.284-.027-.131-.048-.122-.065-.093-.098-.233-.319-.124-.134-.255-.111-1.485-.203-.224-.053-.086-.071-.084-.101-.228-.412-.113-.129-.14-.094-.338-.13-.199-.035h-.199s-1.114.195-1.114.195l-.699.319-.101.087-.059.071-.21.43-.129.086-.219.091-.449.08-.205.009-.122-.025-.032-.062-.02-.07-.081-.069-.146-.089-.339-.088-.172-.069-.12-.102-.043-.109-.025-.194-.052-.08-.108-.066-.453-.155-.14-.068-.083-.074-.059-.104-.435-1.365-.032-.078-.036-.063-.065-.088-.162-.103-.066-.035-.235-.202-.133-.151-.444-.237-.688-.01-.393.066-.106-.013-.575-.337-1.078-.413-.246-.048-.311.057-.255.022-.165-.031-.147-.061-.183-.1-.133-.012-.124.018-.106.04-.137.021-.106.035-.075.044-.038.048-.022.055-.049.076-.07.073-.142.062-.106-.003-1.092-.425-.074-.048-.066-.063-.057-.077-.185-.377-.106-.17-.061-.071-.237-.166-.702-.296-.129.515.135.454.586,1.434.135.176.214.055.126.064.154.152.059.147.011.162-.041.185-.065.173-.086.143-.153.137-.557.325-.178.193-.137.239-.09.395-.307.596-.084.263-.043.432.054.909-.018.194-.047.153-.088.125-.117.097-.169.072-.713.12-.162.072-.151.099-.178.196-.124.218-.224.539-.092.142-.104.125-.108.175-.036.174-.002.148.164.86.004.212-.031.357-.092.172-.12.101-.183.034-.489-.013-.181-.041-.226-.075-.092-.014-.115.006-.316.077-.205.027-.224-.024-.242-.097-.21-.144-.178-.185-.388-.623-.057-.041-.077-.007-.374.05-.158-.02-.307-.109-.151-.033-.133-.003-.149.026-.146.046-.178.097-.169.129-.237.222-.07.108-.005.079.081.053.302.133.072.064-.023.148-.37.421-.14.191-.097.175-.167.594-.171.46-.056.216-.009.177.047.126.032.137.005.15-.054.096-.102.071-.176.077-.126.098-.149.154-.226.294-.187.191-.172.145-.199.107-.072.103-.009.14.117.325.048.184.027.165.005.178.018.105.038.076.059.059.117.016.228-.048.095.012.088.058.063.097.022.089-.016.169.011.085.041.076.102.07.102.024.135-.008.124.007.088.068.041.159-.032.227.018.176.032.128.216.223.735.529.115.113.124.159.021.112v.212l-.111.053-.341.11-.212-.003-.167.074-.241.145-.192.092-.153.205-.189.334-.532,1.185-.138.206-.097.02h-.092s-.411-.043-.411-.043l-.174.017-.194.07-.226.196-.115.189-.041.181.032.189.052.162.034.226-.007.269-.119.46-.111.241-.14.173-.149.087-.173.056-.167.028-.715.049-.151.04-.146.069-.172.154-.108.156-.092.19-.097.124-.278.268-.077.133.066.131.016.098-.038.165-.083.117-.048.133-.03.403-.072.282-.106.184-.146.139-.173.115-.192.153-.083.101-.02.141.785.538.086.113.097.162-.011.128-.113.401-.731-.122-.109.03-.167.072-.284.298-.268.195-.253.044-.162-.043-.099-.111-.043-.141-.036-.37-.129-.097-.232-.114-.602-.2-.275-.125-.165-.108-.048-.177-.018-.183.016-.826-.038-.176-.086-.176-.214-.239-.19-.129-.199-.073-.19-.01-.162.021-.293.12-.557.772-.065.204-.048.255.097.536-.013.404-.065.213-.108.15-.133.068-.167.037-.469.2-1.026.786-.232.234-.118.192-.065.206-.032.189-.077.212-.129.104-.187.041-.339-.056-.181.005-.207.06-.212.117-.169.069-.144.009-.476-.077-.357.038-.611.224-.246.194-.128.231.079.704v.228l-.022.244-.221.913-.031.196v.287l.057.514-.036.355-.093.387-.251.541-.201.236-.217.118-.239-.005-.939-.265-.162-.028-.135-.004-.232.045.027.387.216.507.036.25-.022.173-.07.104-.133.118-.171.098-.336.157-.162.135-.162.28-.149.393-.203.873-.266-.053-.386-.344-.223-.139-.158-.157-.26-.371-.155-.093-.163.011-.216.052-.303.012-.325-.171-.208-.021-.169.076-.077.114-.124.32-.077.081-.128.074-.217.063-.133.086-.065.106.004.133.016.117-.011.141-.079.126-.135.098-.393.156-.167.103-.092.122-.052.119-.056.197-.341.31-1.189.346-.158.144-.027.157.102.151.248.298.081.145.016.151-.02.151-.07.244.004.073.113.203.021.133-.065.119-.144.147-.174.244-.031.245.09.176.199.176.061.156.079.399.111.188.39.273.144.155.039.199-.093.123-.372.27-.171.093-.224.03-.471-.115-.219-.029-.447.008-.181-.05-.167-.121-.295-.279-.147-.079-.167-.037-.21.02-.246.062-.307.186-.172.058-.178-.004-.334-.185-.25-.012-.312.076-.58.364-.361.15-.221.065-.119-.011-.194-.133-.228.08-.582.121-.192.108-.273.194-.165-.093-.126-.192-.155-.106-.228-.085-.088-.212-.032-.277-.066-.279-.163-.313-.131-.076-.428.254-.237-.269-.277.203-.287.359-.268.202-.244-.044-.12-.143-.076-.189-.099-.18-.214-.184-.185-.046-.438.045-.465-.172-.19-.378-.129-.379-.282-.172-.178-.067-.198.072-.151.086-.095.129-.099.174-.237.536-.128.183-.129.123-.232.172-.151.174.023.423.295.572.09.29.065.353.065.154.086.094.264.13.151.146.09.202.081.293.023.214-.005.175-.065.167-.092.156-.084.187-.056.245.002.381.076.22.111.156.162.145.16.18.158.285.057.221-.009.19-.066.105-.232.157-.079.093-.04.139.011.078.253.366.048.18.022.158-.014.2-.045.155-.07.132-.117.113-.185.042-.241-.063-.232-.149-.458-.413-.163-.101-.088-.007-.086.059-.187.273-.115.139-.149.13-.151.097-.65.246-.18.024-.138-.042-.11-.113-.093-.126-.12-.088-.151-.048-.961.007-.178.045-.377.229-.237.103-.316.067-.887.013-.18.096-.074.109-.007.19.048.346-.022.289-.79.453-.532.164-.203-.012-.18-.047-.181-.098-.275-.101-.172-.161-.119-.154-.059-.09-.085-.071-.307-.137-.151-.127-.099-.156-.057-.203-.074-.137-.083-.046-.095.007-.762.139-.508-.183-.113.018-.066.056-.151.548-.057.11-.257.218-.075.083-.115.156-.16.091-.239.102-.788.235-.142.079-.022.05-.009.067.009.049.119.228.066.161.063.209.137.771v.086l-.018.086-.038.064-.102.094-.129.014-.192-.035-.262-.101-.293-.051-.192.022-.14.066-.131.097-.392.215-.225.048-.104.043-.054.038-.129.208-.14.131-.126.056-.146.02h-.183l-.104.046-.059.076-.167.557-.054.087-.081.086-.137.083-.264.206.478.478-.048.203-.059.143-.181.067-.334.037-.12.029-.129.057-.133.092-.571.514-.138.087-.167.075-.108.026-.088-.003-.063-.027-.038-.038-.014-.051-.002-.081.005-.063v-.077l-.027-.085-.063-.11-.172-.227-.039-.087-.036-.294-.034-.157-.084-.038-.14-.032-.575-.052-.153-.05-.264-.16-.232-.076-.111-.006-.084.044-.045.092-.151.608-.057.12-.07.112-.088.092-.101.069-.223.119-.095.063-.086.076-.295.345-.124.121-.113.031-.108-.046-.083-.088-.079-.104-.076-.083-.09-.066-.12-.024-.065.027-.063.074-.12.377-.043.077-.097.098-.122.035-.124-.024-.115-.079-.117-.121-.122-.091-.167-.021-.083.099-.09.356-.221.492-.011.069.016.046.048.042.059.022.049.004.047-.016.045-.022.194-.133.135-.061.079-.021.056.005.045.04.04.077.043.211.005.084.014.076.018.06.052.076.086.044.102.023h.093s.194-.025.194-.025l.07.003.065.047.049.081.021.126.005.131.022.13.043.101.066.083.102.071.108.06.243.104.061.046.032.066-.023.098-.079.079-.092.05-.124.026-.305.029-.196.057-.079.086-.032.138.025.301.045.149.07.154.124.193.027.073v.087l-.027.339.025.145.048.116.074.043h.077s.086-.036.086-.036l.065-.04.151-.116.086-.045.09-.011.109.026,1.489.701.122.082.126.125.081.119.054.141.036.19.005.261-.102.748.027.6-.041.325-.092.147-.119.075-.722.019-.167.057-.145.087-.192.208-.059.131.02.132.083.074.124.053.392.1.086.033.072.049.054.075.032.162-.002.236-.074.446-.118.306-.146.253-.221.319-.323.661-.483.638-.05.093.016.079.233.209.084.117.039.167-.061.174-.348.654-.32.492-.165.165-.302.235-.178.094-.215.082-.445.069h-.564s-.104-.027-.104-.027l-.052-.03-.011-.043.005-.054.02-.079.021-.217-.014-.122-.034-.119-.074-.077-.122-.04-.14.026-.145.069-.833.65-.228.284-.138.421-.081.143-.092.088-.214.081-.034.063.023.08.092.171.02.27-.679.014-1.02.404-.217.061-.19-.024-.26-.071-.375-.245-.189-.213-.124-.252-.208-.927-.077-.201-.14-.167-.154-.097-.253-.069-.332-.055-.126-.038-.117-.076-.061-.088-.038-.13-.041-.287-.059-.075-.102-.028-.149.111-.083.089-.246.405-.108.139-.147.053-.241.037-.839.041-.37.199Z"/>
    <path class="cls-1" d="M103.508,180.73l-.175-.114-.068-.079-.716-.409-.099-.249.013-.26.086-.534-.082-.28-.192-.116-.232-.055-.192-.104-.396-.826-.15-.139-.891-.255.164-.517.112-.228.14-.176.369-.227.068-.159-.14-.29-.119.133-.973-3.265-.151-.217-.228-.076-.366-.01-.365-.091-.296-.222-.478-.543.982.069.157-.008.204-.06.205.108.226.069.255-.177.587.224.208.174.153.348.076-.016.055-.019.044-.035.062-.064-.136-.124-.399-.549-.164-.109-.724-.319-.117-.01-.245.026-.113-.016-.076-.055-.127-.158-.092-.032-.615-.06-.17.06-.021-.213.092-.255.146-.233.151-.155.184-.085.767-.171-.158-.097-.062-.086.017-.085.095-.099v-.111l-1.209.667-.174.147-.349-.091-.262-.284.085-.438-.259-.401-.076-.211-.03-.256.034-.225.081-.101.085-.075.037-.15.204-.274.468-.175.883-.224v-.123l-.645-.013-.298.049-.126.148-.146.071-.608.392-.086.098-.174-.136-.195-.297-.158-.343-.124-.555-.085-.188.016-.158.245-.181.37-.199.839-.041.241-.037.147-.053.108-.139.246-.405.083-.089.149-.111.102.028.059.075.041.287.038.13.061.088.117.076.126.038.332.055.253.069.154.097.14.167.077.201.208.927.124.252.189.213.375.245.26.071.19.024.217-.061,1.02-.404.679-.014.259.075.21.017.23-.043.124-.046.102-.056.232-.164.09-.018.115.024.327.121.505.278.126.127.068.121.14.517.14.974.065.255-.057.327-.158.227-.154.272.047.327.205.207.066.118.057.143.016.145-.004.086-.029.226v.152l.032.147.077.153.487.513.076.118.045.1.031.136.07.714-.038.159-.065.132-.151.112-.129.059-.535.104-.075.026-.065.063-.043.093.005.17.052.116.086.105.512.294.086.069.079.082.05.101.031.119-.016.171-.059.2-.411.837-.039.143-.049.27v.133l.011.129.118.594.007.152-.016.162-.04.18-.059.164-.102.229-.129.404-.041.214-.027.08-.043.093-.253.229-.291.174-.214.086-.25.035-.392-.043-.106.031-.12.072-.388.333-.594.307Z"/>
    <path class="cls-1" d="M49.891,74.557l-.089.266-.32.222-.164.01-.025-.112v-.165l.078-.152.104-.096.156-.027.143.014.118.042ZM81.385,81.159l.047-.136.04-.565.11-.389.184-.383.122-.177h0s.291.116.291.116l.274.416.078.374-.039.499-.274.208-.47.083-.362-.045h0Z"/>
    <path class="cls-1" d="M87.436,86.018l.031.684-.038.277-.086.277-.133.269-.093.088-.088.027-.108-.011-.226-.211-.11-.135-.129-.124-.118-.063-.171.007-.122.058-.239.177-.081.041-.07-.003-.092-.047-.108-.14-.108-.103-.117-.048-.146.053-.269.224-.135.078-.108.021-.075-.017-.128-.141-.162-.274-.181-.449-.399-.747-.045-.195-.054-.726-.038-.126-.068-.139-.102-.121-.14-.12-.307-.201-.124-.103-.086-.108-.052-.104-.012-.102.012-.103.065-.14.054-.075.124-.043.138.013.286.067.162.02.113-.013.043-.044.235-.59.081-.134.081-.052.109-.008.19.079.113.022.099-.01.35-.195.559-.48.128-.083.137-.048.108.031.086.141-.034.27-.043.173-.009.134.049.09.145.102.14.021.153-.008.169-.035.138.003.076.055.032.111-.036.206-.061.123-.095.099-1.135.618-.102.091-.061.08-.032.071-.029.098-.005.089.005.104.136.638.066.163.14.123.21.073.354-.018.178-.063.102-.076.027-.085.016-.226.027-.147.059-.128.075-.056.09-.014.618.085.169.13.097.115-.065.914Z"/>
  </g>
  <text class="cls-2" transform="translate(95.844 105.687)"><tspan x="0" y="0">WESTERN</tspan></text>
</svg>